Monoto-CondensedBold.ufo
<glyph name="exclam" format="2">
  <advance width="300"/>
  <unicode hex="0021"/>
  <outline>
    <contour>
      <point x="106" y="222" type="line"/>
      <point x="198" y="222" type="line"/>
      <point x="218" y="714" type="line"/>
      <point x="85" y="714" type="line"/>
    </contour>
    <contour>
      <point x="153" y="-12" type="curve" smooth="yes"/>
      <point x="184" y="-12"/>
      <point x="214" y="15"/>
      <point x="214" y="66" type="curve" smooth="yes"/>
      <point x="214" y="118"/>
      <point x="186" y="142"/>
      <point x="153" y="142" type="curve" smooth="yes"/>
      <point x="115" y="142"/>
      <point x="90" y="116"/>
      <point x="90" y="66" type="curve" smooth="yes"/>
      <point x="90" y="15"/>
      <point x="117" y="-12"/>
    </contour>
  </outline>
</glyph>
<glyph name="percent" format="2">
  <advance width="300"/>
  <unicode hex="0025"/>
  <outline>
    <contour>
      <point x="7" y="168" type="line"/>
      <point x="81" y="168" type="line"/>
      <point x="294" y="545" type="line"/>
      <point x="221" y="545" type="line"/>
    </contour>
    <contour>
      <point x="212" y="-10" type="curve" smooth="yes"/>
      <point x="260" y="-10"/>
      <point x="290" y="54"/>
      <point x="290" y="161" type="curve" smooth="yes"/>
      <point x="290" y="268"/>
      <point x="259" y="330"/>
      <point x="212" y="330" type="curve" smooth="yes"/>
      <point x="165" y="330"/>
      <point x="136" y="268"/>
      <point x="136" y="161" type="curve" smooth="yes"/>
      <point x="136" y="54"/>
      <point x="167" y="-10"/>
    </contour>
    <contour>
      <point x="213" y="53" type="curve" smooth="yes"/>
      <point x="206" y="53"/>
      <point x="204" y="90"/>
      <point x="204" y="161" type="curve" smooth="yes"/>
      <point x="204" y="233"/>
      <point x="206" y="268"/>
      <point x="213" y="268" type="curve" smooth="yes"/>
      <point x="220" y="268"/>
      <point x="222" y="232"/>
      <point x="222" y="161" type="curve" smooth="yes"/>
      <point x="222" y="89"/>
      <point x="220" y="53"/>
    </contour>
    <contour>
      <point x="87" y="384" type="curve" smooth="yes"/>
      <point x="135" y="384"/>
      <point x="166" y="447"/>
      <point x="166" y="554" type="curve" smooth="yes"/>
      <point x="166" y="661"/>
      <point x="134" y="723"/>
      <point x="87" y="723" type="curve" smooth="yes"/>
      <point x="40" y="723"/>
      <point x="11" y="661"/>
      <point x="11" y="554" type="curve" smooth="yes"/>
      <point x="11" y="447"/>
      <point x="42" y="384"/>
    </contour>
    <contour>
      <point x="88" y="446" type="curve" smooth="yes"/>
      <point x="81" y="446"/>
      <point x="79" y="483"/>
      <point x="79" y="554" type="curve" smooth="yes"/>
      <point x="79" y="625"/>
      <point x="81" y="660"/>
      <point x="88" y="660" type="curve" smooth="yes"/>
      <point x="95" y="660"/>
      <point x="97" y="625"/>
      <point x="97" y="554" type="curve" smooth="yes"/>
      <point x="97" y="482"/>
      <point x="95" y="446"/>
    </contour>
  </outline>
</glyph>
<glyph name="ampersand" format="2">
  <advance width="300"/>
  <unicode hex="0026"/>
  <outline>
    <contour>
      <point x="123" y="-10" type="curve" smooth="yes"/>
      <point x="237" y="-10"/>
      <point x="273" y="183"/>
      <point x="285" y="347" type="curve"/>
      <point x="214" y="347" type="line"/>
      <point x="209" y="239"/>
      <point x="183" y="71"/>
      <point x="133" y="71" type="curve" smooth="yes"/>
      <point x="115" y="71"/>
      <point x="101" y="107"/>
      <point x="101" y="171" type="curve" smooth="yes"/>
      <point x="101" y="250"/>
      <point x="125" y="300"/>
      <point x="152" y="348" type="curve" smooth="yes"/>
      <point x="185" y="409"/>
      <point x="222" y="481"/>
      <point x="222" y="577" type="curve" smooth="yes"/>
      <point x="222" y="666"/>
      <point x="197" y="724"/>
      <point x="139" y="724" type="curve" smooth="yes"/>
      <point x="84" y="724"/>
      <point x="53" y="667"/>
      <point x="53" y="577" type="curve" smooth="yes"/>
      <point x="53" y="499"/>
      <point x="74" y="427"/>
      <point x="95" y="357" type="curve" smooth="yes"/>
      <point x="200" y="0" type="line"/>
      <point x="282" y="0" type="line"/>
      <point x="153" y="419" type="line" smooth="yes"/>
      <point x="141" y="456"/>
      <point x="126" y="518"/>
      <point x="126" y="579" type="curve" smooth="yes"/>
      <point x="126" y="626"/>
      <point x="131" y="651"/>
      <point x="139" y="651" type="curve" smooth="yes"/>
      <point x="148" y="651"/>
      <point x="153" y="628"/>
      <point x="153" y="579" type="curve" smooth="yes"/>
      <point x="153" y="491"/>
      <point x="118" y="437"/>
      <point x="107" y="413" type="curve" smooth="yes"/>
      <point x="73" y="339"/>
      <point x="24" y="276"/>
      <point x="24" y="169" type="curve" smooth="yes"/>
      <point x="24" y="70"/>
      <point x="50" y="-10"/>
    </contour>
  </outline>
</glyph>
<glyph name="parenleft" format="2">
  <advance width="300"/>
  <unicode hex="0028"/>
  <outline>
    <contour>
      <point x="153" y="-170" type="curve"/>
      <point x="248" y="-170" type="line"/>
      <point x="212" y="-39"/>
      <point x="186" y="109"/>
      <point x="186" y="269" type="curve" smooth="yes"/>
      <point x="186" y="434"/>
      <point x="209" y="584"/>
      <point x="249" y="714" type="curve"/>
      <point x="153" y="714" type="line"/>
      <point x="109" y="600"/>
      <point x="79" y="445"/>
      <point x="79" y="268" type="curve" smooth="yes"/>
      <point x="79" y="94"/>
      <point x="106" y="-55"/>
    </contour>
  </outline>
</glyph>
<glyph name="comma" format="2">
  <advance width="300"/>
  <unicode hex="002C"/>
  <outline>
    <contour>
      <point x="72" y="-134" type="curve"/>
      <point x="161" y="-134" type="line"/>
      <point x="179" y="-62"/>
      <point x="195" y="25"/>
      <point x="206" y="116" type="curve"/>
      <point x="201" y="127" type="line"/>
      <point x="89" y="127" type="line"/>
      <point x="88" y="55"/>
      <point x="76" y="-56"/>
    </contour>
  </outline>
</glyph>
<glyph name="slash" format="2">
  <advance width="300"/>
  <unicode hex="002F"/>
  <outline>
    <contour>
      <point x="-5" y="-6" type="line"/>
      <point x="92" y="-6" type="line"/>
      <point x="244" y="720" type="line"/>
      <point x="147" y="720" type="line"/>
    </contour>
  </outline>
</glyph>
<glyph name="zero" format="2">
  <advance width="300"/>
  <unicode hex="0030"/>
  <outline>
    <contour>
      <point x="149" y="-10" type="curve" smooth="yes"/>
      <point x="260" y="-10"/>
      <point x="287" y="134"/>
      <point x="287" y="357" type="curve" smooth="yes"/>
      <point x="287" y="592"/>
      <point x="240" y="725"/>
      <point x="148" y="725" type="curve" smooth="yes"/>
      <point x="55" y="725"/>
      <point x="12" y="595"/>
      <point x="12" y="357" type="curve" smooth="yes"/>
      <point x="12" y="123"/>
      <point x="53" y="-10"/>
    </contour>
    <contour>
      <point x="109" y="114" type="line"/>
      <point x="252" y="568" type="line"/>
      <point x="187" y="605" type="line"/>
      <point x="45" y="148" type="line"/>
    </contour>
    <contour>
      <point x="148" y="83" type="curve" smooth="yes"/>
      <point x="116" y="83"/>
      <point x="111" y="185"/>
      <point x="111" y="357" type="curve" smooth="yes"/>
      <point x="111" y="539"/>
      <point x="122" y="632"/>
      <point x="148" y="632" type="curve" smooth="yes"/>
      <point x="181" y="632"/>
      <point x="189" y="535"/>
      <point x="189" y="357" type="curve" smooth="yes"/>
      <point x="189" y="173"/>
      <point x="180" y="83"/>
    </contour>
  </outline>
</glyph>
<glyph name="three" format="2">
  <advance width="300"/>
  <unicode hex="0033"/>
  <outline>
    <contour>
      <point x="114" y="-10" type="curve" smooth="yes"/>
      <point x="212" y="-10"/>
      <point x="269" y="75"/>
      <point x="269" y="202" type="curve" smooth="yes"/>
      <point x="269" y="298"/>
      <point x="247" y="356"/>
      <point x="192" y="373" type="curve"/>
      <point x="192" y="376" type="line"/>
      <point x="243" y="399"/>
      <point x="259" y="459"/>
      <point x="259" y="546" type="curve" smooth="yes"/>
      <point x="259" y="657"/>
      <point x="218" y="724"/>
      <point x="138" y="724" type="curve" smooth="yes"/>
      <point x="96" y="724"/>
      <point x="57" y="701"/>
      <point x="28" y="660" type="curve"/>
      <point x="75" y="569" type="line"/>
      <point x="93" y="600"/>
      <point x="109" y="616"/>
      <point x="122" y="616" type="curve" smooth="yes"/>
      <point x="136" y="616"/>
      <point x="135" y="585"/>
      <point x="135" y="531" type="curve" smooth="yes"/>
      <point x="135" y="463"/>
      <point x="132" y="420"/>
      <point x="88" y="420" type="curve" smooth="yes"/>
      <point x="73" y="420" type="line"/>
      <point x="73" y="315" type="line"/>
      <point x="88" y="315" type="line" smooth="yes"/>
      <point x="133" y="315"/>
      <point x="136" y="284"/>
      <point x="136" y="208" type="curve" smooth="yes"/>
      <point x="136" y="139"/>
      <point x="130" y="99"/>
      <point x="107" y="99" type="curve" smooth="yes"/>
      <point x="83" y="99"/>
      <point x="56" y="115"/>
      <point x="25" y="146" type="curve"/>
      <point x="25" y="28" type="line"/>
      <point x="62" y="-1"/>
      <point x="90" y="-10"/>
    </contour>
  </outline>
</glyph>
<glyph name="four" format="2">
  <advance width="300"/>
  <unicode hex="0034"/>
  <outline>
    <contour>
      <point x="140" y="0" type="line"/>
      <point x="239" y="0" type="line"/>
      <point x="239" y="155" type="line"/>
      <point x="280" y="155" type="line"/>
      <point x="280" y="250" type="line"/>
      <point x="239" y="250" type="line"/>
      <point x="239" y="717" type="line"/>
      <point x="138" y="717" type="line"/>
      <point x="20" y="247" type="line"/>
      <point x="20" y="155" type="line"/>
      <point x="140" y="155" type="line"/>
    </contour>
    <contour>
      <point x="105" y="250" type="line"/>
      <point x="125" y="477" type="line" smooth="yes"/>
      <point x="128" y="506"/>
      <point x="138" y="550"/>
      <point x="140" y="584" type="curve"/>
      <point x="143" y="584" type="line"/>
      <point x="142" y="540"/>
      <point x="140" y="459"/>
      <point x="140" y="404" type="curve" smooth="yes"/>
      <point x="140" y="250" type="line"/>
    </contour>
  </outline>
</glyph>
<glyph name="seven" format="2">
  <advance width="300"/>
  <unicode hex="0037"/>
  <outline>
    <contour>
      <point x="48" y="0" type="line"/>
      <point x="180" y="0" type="line"/>
      <point x="276" y="622" type="line"/>
      <point x="276" y="714" type="line"/>
      <point x="29" y="714" type="line"/>
      <point x="29" y="601" type="line"/>
      <point x="148" y="601" type="line"/>
    </contour>
  </outline>
</glyph>
<glyph name="eight" format="2">
  <advance width="300"/>
  <unicode hex="0038"/>
  <outline>
    <contour>
      <point x="147" y="-10" type="curve" smooth="yes"/>
      <point x="224" y="-10"/>
      <point x="270" y="65"/>
      <point x="270" y="187" type="curve" smooth="yes"/>
      <point x="270" y="275"/>
      <point x="256" y="331"/>
      <point x="215" y="377" type="curve"/>
      <point x="249" y="415"/>
      <point x="260" y="469"/>
      <point x="260" y="551" type="curve" smooth="yes"/>
      <point x="260" y="667"/>
      <point x="216" y="725"/>
      <point x="150" y="725" type="curve" smooth="yes"/>
      <point x="85" y="725"/>
      <point x="38" y="667"/>
      <point x="38" y="550" type="curve" smooth="yes"/>
      <point x="38" y="473"/>
      <point x="47" y="416"/>
      <point x="77" y="374" type="curve"/>
      <point x="39" y="333"/>
      <point x="28" y="275"/>
      <point x="28" y="184" type="curve" smooth="yes"/>
      <point x="28" y="56"/>
      <point x="73" y="-10"/>
    </contour>
    <contour>
      <point x="149" y="79" type="curve" smooth="yes"/>
      <point x="131" y="79"/>
      <point x="127" y="120"/>
      <point x="127" y="185" type="curve" smooth="yes"/>
      <point x="127" y="247"/>
      <point x="127" y="290"/>
      <point x="146" y="327" type="curve"/>
      <point x="165" y="281"/>
      <point x="171" y="248"/>
      <point x="171" y="188" type="curve" smooth="yes"/>
      <point x="171" y="120"/>
      <point x="167" y="79"/>
    </contour>
    <contour>
      <point x="149" y="426" type="curve"/>
      <point x="142" y="456"/>
      <point x="137" y="486"/>
      <point x="137" y="545" type="curve" smooth="yes"/>
      <point x="137" y="604"/>
      <point x="141" y="636"/>
      <point x="149" y="636" type="curve" smooth="yes"/>
      <point x="155" y="636"/>
      <point x="162" y="605"/>
      <point x="162" y="545" type="curve" smooth="yes"/>
      <point x="162" y="490"/>
      <point x="163" y="455"/>
    </contour>
  </outline>
</glyph>
<glyph name="nine" format="2">
  <advance width="300"/>
  <unicode hex="0039"/>
  <outline>
    <contour>
      <point x="97" y="-10" type="curve" smooth="yes"/>
      <point x="239" y="-10"/>
      <point x="268" y="194"/>
      <point x="268" y="408" type="curve" smooth="yes"/>
      <point x="268" y="618"/>
      <point x="215" y="724"/>
      <point x="143" y="724" type="curve" smooth="yes"/>
      <point x="70" y="724"/>
      <point x="25" y="631"/>
      <point x="25" y="481" type="curve" smooth="yes"/>
      <point x="25" y="341"/>
      <point x="59" y="259"/>
      <point x="112" y="259" type="curve" smooth="yes"/>
      <point x="133" y="259"/>
      <point x="150" y="291"/>
      <point x="167" y="343" type="curve"/>
      <point x="170" y="343" type="line"/>
      <point x="167" y="190"/>
      <point x="148" y="80"/>
      <point x="88" y="80" type="curve" smooth="yes"/>
      <point x="75" y="80"/>
      <point x="62" y="84"/>
      <point x="47" y="92" type="curve"/>
      <point x="47" y="-1" type="line"/>
      <point x="64" y="-7"/>
      <point x="81" y="-10"/>
    </contour>
    <contour>
      <point x="143" y="347" type="curve" smooth="yes"/>
      <point x="134" y="347"/>
      <point x="128" y="397"/>
      <point x="128" y="484" type="curve" smooth="yes"/>
      <point x="128" y="581"/>
      <point x="135" y="632"/>
      <point x="144" y="632" type="curve" smooth="yes"/>
      <point x="150" y="632"/>
      <point x="164" y="549"/>
      <point x="164" y="475" type="curve" smooth="yes"/>
      <point x="164" y="398"/>
      <point x="154" y="347"/>
    </contour>
  </outline>
</glyph>
<glyph name="greater" format="2">
  <advance width="300"/>
  <unicode hex="003E"/>
  <outline>
    <contour>
      <point x="38" y="124" type="line"/>
      <point x="261" y="327" type="line"/>
      <point x="261" y="389" type="line"/>
      <point x="38" y="591" type="line"/>
      <point x="38" y="486" type="line"/>
      <point x="134" y="358" type="line"/>
      <point x="38" y="229" type="line"/>
    </contour>
  </outline>
</glyph>
<glyph name="question" format="2">
  <advance width="300"/>
  <unicode hex="003F"/>
  <outline>
    <contour>
      <point x="98" y="222" type="line"/>
      <point x="190" y="222" type="line"/>
      <point x="190" y="243" type="line" smooth="yes"/>
      <point x="190" y="288"/>
      <point x="192" y="309"/>
      <point x="220" y="359" type="curve" smooth="yes"/>
      <point x="255" y="421"/>
      <point x="268" y="465"/>
      <point x="268" y="552" type="curve" smooth="yes"/>
      <point x="268" y="659"/>
      <point x="231" y="724"/>
      <point x="151" y="724" type="curve" smooth="yes"/>
      <point x="109" y="724"/>
      <point x="68" y="705"/>
      <point x="31" y="669" type="curve"/>
      <point x="68" y="578" type="line"/>
      <point x="94" y="605"/>
      <point x="116" y="622"/>
      <point x="142" y="622" type="curve" smooth="yes"/>
      <point x="156" y="622"/>
      <point x="159" y="594"/>
      <point x="159" y="543" type="curve" smooth="yes"/>
      <point x="159" y="493"/>
      <point x="160" y="466"/>
      <point x="134" y="414" type="curve" smooth="yes"/>
      <point x="109" y="364"/>
      <point x="98" y="324"/>
      <point x="98" y="255" type="curve" smooth="yes"/>
    </contour>
    <contour>
      <point x="147" y="-12" type="curve" smooth="yes"/>
      <point x="180" y="-12"/>
      <point x="207" y="15"/>
      <point x="207" y="66" type="curve" smooth="yes"/>
      <point x="207" y="118"/>
      <point x="181" y="142"/>
      <point x="147" y="142" type="curve" smooth="yes"/>
      <point x="109" y="142"/>
      <point x="84" y="116"/>
      <point x="84" y="66" type="curve" smooth="yes"/>
      <point x="84" y="15"/>
      <point x="111" y="-12"/>
    </contour>
  </outline>
</glyph>
<glyph name="B" format="2">
  <advance width="300"/>
  <unicode hex="0042"/>
  <anchor x="150" y="0" name="bottom"/>
  <anchor x="150" y="714" name="top"/>
  <anchor x="278" y="714" name="topright"/>
  <outline>
    <contour>
      <point x="26" y="0" type="line"/>
      <point x="149" y="0" type="line" smooth="yes"/>
      <point x="227" y="0"/>
      <point x="274" y="77"/>
      <point x="274" y="209" type="curve" smooth="yes"/>
      <point x="274" y="306"/>
      <point x="251" y="356"/>
      <point x="219" y="374" type="curve"/>
      <point x="219" y="379" type="line"/>
      <point x="247" y="395"/>
      <point x="267" y="454"/>
      <point x="267" y="540" type="curve" smooth="yes"/>
      <point x="267" y="661"/>
      <point x="218" y="714"/>
      <point x="139" y="714" type="curve" smooth="yes"/>
      <point x="26" y="714" type="line"/>
    </contour>
    <contour>
      <point x="124" y="95" type="line"/>
      <point x="124" y="327" type="line"/>
      <point x="139" y="327" type="line" smooth="yes"/>
      <point x="170" y="327"/>
      <point x="175" y="286"/>
      <point x="175" y="212" type="curve" smooth="yes"/>
      <point x="175" y="138"/>
      <point x="169" y="95"/>
      <point x="141" y="95" type="curve" smooth="yes"/>
    </contour>
    <contour>
      <point x="124" y="417" type="line"/>
      <point x="124" y="620" type="line"/>
      <point x="133" y="620" type="line" smooth="yes"/>
      <point x="153" y="620"/>
      <point x="168" y="589"/>
      <point x="168" y="520" type="curve" smooth="yes"/>
      <point x="168" y="452"/>
      <point x="156" y="417"/>
      <point x="134" y="417" type="curve" smooth="yes"/>
    </contour>
  </outline>
</glyph>
<glyph name="E" format="2">
  <advance width="300"/>
  <unicode hex="0045"/>
  <anchor x="152" y="0" name="bottom"/>
  <anchor x="246" y="10" name="ogonek"/>
  <anchor x="153" y="714" name="top"/>
  <anchor x="22" y="714" name="topleft"/>
  <anchor x="279" y="714" name="topright"/>
  <outline>
    <contour>
      <point x="20" y="0" type="line"/>
      <point x="286" y="0" type="line"/>
      <point x="286" y="109" type="line"/>
      <point x="137" y="109" type="line"/>
      <point x="137" y="312" type="line"/>
      <point x="276" y="312" type="line"/>
      <point x="276" y="421" type="line"/>
      <point x="137" y="421" type="line"/>
      <point x="137" y="605" type="line"/>
      <point x="286" y="605" type="line"/>
      <point x="286" y="714" type="line"/>
      <point x="20" y="714" type="line"/>
    </contour>
  </outline>
</glyph>
<glyph name="G" format="2">
  <advance width="300"/>
  <unicode hex="0047"/>
  <anchor x="172" y="0" name="bottom"/>
  <anchor x="175" y="714" name="top"/>
  <anchor x="279" y="714" name="topright"/>
  <outline>
    <contour>
      <point x="175" y="-10" type="curve" smooth="yes"/>
      <point x="212" y="-10"/>
      <point x="241" y="1"/>
      <point x="285" y="29" type="curve"/>
      <point x="285" y="396" type="line"/>
      <point x="162" y="396" type="line"/>
      <point x="162" y="289" type="line"/>
      <point x="176" y="289" type="line"/>
      <point x="176" y="109" type="line"/>
      <point x="166" y="102"/>
      <point x="163" y="98"/>
      <point x="161" y="98" type="curve" smooth="yes"/>
      <point x="138" y="98"/>
      <point x="123" y="208"/>
      <point x="123" y="350" type="curve" smooth="yes"/>
      <point x="123" y="525"/>
      <point x="153" y="619"/>
      <point x="193" y="619" type="curve" smooth="yes"/>
      <point x="220" y="619"/>
      <point x="233" y="610"/>
      <point x="260" y="584" type="curve"/>
      <point x="293" y="681" type="line"/>
      <point x="267" y="709"/>
      <point x="235" y="726"/>
      <point x="186" y="726" type="curve" smooth="yes"/>
      <point x="78" y="726"/>
      <point x="6" y="582"/>
      <point x="6" y="348" type="curve" smooth="yes"/>
      <point x="6" y="128"/>
      <point x="61" y="-10"/>
    </contour>
  </outline>
</glyph>
<glyph name="J" format="2">
  <advance width="300"/>
  <unicode hex="004A"/>
  <anchor x="150" y="0" name="bottom"/>
  <anchor x="207" y="714" name="top"/>
  <anchor x="278" y="714" name="topright"/>
  <outline>
    <contour>
      <point x="86" y="-10" type="curve" smooth="yes"/>
      <point x="197" y="-10"/>
      <point x="266" y="89"/>
      <point x="266" y="226" type="curve" smooth="yes"/>
      <point x="266" y="714" type="line"/>
      <point x="152" y="714" type="line"/>
      <point x="152" y="252" type="line" smooth="yes"/>
      <point x="152" y="146"/>
      <point x="111" y="96"/>
      <point x="71" y="96" type="curve" smooth="yes"/>
      <point x="69" y="96"/>
      <point x="50" y="103"/>
      <point x="27" y="119" type="curve"/>
      <point x="27" y="15" type="line"/>
      <point x="42" y="-1"/>
      <point x="64" y="-10"/>
    </contour>
  </outline>
</glyph>
<glyph name="M" format="2">
  <advance width="300"/>
  <unicode hex="004D"/>
  <anchor x="149" y="0" name="bottom"/>
  <anchor x="151" y="714" name="top"/>
  <anchor x="289" y="714" name="topright"/>
  <outline>
    <contour>
      <point x="16" y="0" type="line"/>
      <point x="92" y="0" type="line"/>
      <point x="91" y="357" type="line" smooth="yes"/>
      <point x="90" y="442"/>
      <point x="78" y="586"/>
      <point x="76" y="639" type="curve"/>
      <point x="82" y="639" type="line"/>
      <point x="108" y="198" type="line"/>
      <point x="193" y="198" type="line"/>
      <point x="220" y="639" type="line"/>
      <point x="225" y="639" type="line"/>
      <point x="223" y="573"/>
      <point x="209" y="436"/>
      <point x="209" y="359" type="curve" smooth="yes"/>
      <point x="208" y="0" type="line"/>
      <point x="283" y="0" type="line"/>
      <point x="283" y="714" type="line"/>
      <point x="165" y="714" type="line"/>
      <point x="152" y="288" type="line"/>
      <point x="151" y="288" type="line"/>
      <point x="135" y="714" type="line"/>
      <point x="16" y="714" type="line"/>
    </contour>
  </outline>
</glyph>
<glyph name="N" format="2">
  <advance width="300"/>
  <unicode hex="004E"/>
  <anchor x="150" y="0" name="bottom"/>
  <anchor x="153" y="714" name="top"/>
  <anchor x="290" y="714" name="topright"/>
  <outline>
    <contour>
      <point x="23" y="0" type="line"/>
      <point x="103" y="0" type="line"/>
      <point x="103" y="416" type="line" smooth="yes"/>
      <point x="103" y="489"/>
      <point x="96" y="552"/>
      <point x="93" y="623" type="curve"/>
      <point x="97" y="623" type="line"/>
      <point x="155" y="0" type="line"/>
      <point x="277" y="0" type="line"/>
      <point x="277" y="714" type="line"/>
      <point x="196" y="714" type="line"/>
      <point x="196" y="285" type="line" smooth="yes"/>
      <point x="196" y="220"/>
      <point x="204" y="132"/>
      <point x="207" y="96" type="curve"/>
      <point x="202" y="96" type="line"/>
      <point x="149" y="714" type="line"/>
      <point x="23" y="714" type="line"/>
    </contour>
  </outline>
</glyph>
<glyph name="P" format="2">
  <advance width="300"/>
  <unicode hex="0050"/>
  <anchor x="150" y="0" name="bottom"/>
  <anchor x="153" y="714" name="top"/>
  <anchor x="289" y="714" name="topright"/>
  <outline>
    <contour>
      <point x="26" y="0" type="line"/>
      <point x="128" y="0" type="line"/>
      <point x="128" y="268" type="line"/>
      <point x="143" y="268" type="line" smooth="yes"/>
      <point x="242" y="268"/>
      <point x="274" y="364"/>
      <point x="274" y="499" type="curve" smooth="yes"/>
      <point x="274" y="637"/>
      <point x="239" y="714"/>
      <point x="151" y="714" type="curve" smooth="yes"/>
      <point x="26" y="714" type="line"/>
    </contour>
    <contour>
      <point x="128" y="362" type="line"/>
      <point x="128" y="620" type="line"/>
      <point x="150" y="620" type="line" smooth="yes"/>
      <point x="166" y="620"/>
      <point x="175" y="581"/>
      <point x="175" y="493" type="curve" smooth="yes"/>
      <point x="175" y="400"/>
      <point x="166" y="362"/>
      <point x="135" y="362" type="curve" smooth="yes"/>
    </contour>
  </outline>
</glyph>
<glyph name="Q" format="2">
  <advance width="300"/>
  <unicode hex="0051"/>
  <anchor x="139" y="-220" name="bottom"/>
  <anchor x="139" y="714" name="top"/>
  <anchor x="279" y="714" name="topright"/>
  <anchor x="22" y="714" name="topleft"/>
  <anchor x="159" y="10" name="ogonek"/>
  <anchor x="150" y="357" name="center"/>
  <outline>
    <contour>
      <point x="171" y="-180" type="line"/>
      <point x="292" y="-180" type="line"/>
      <point x="214" y="98" type="line"/>
      <point x="131" y="28" type="line"/>
    </contour>
    <component base="O"/>
  </outline>
</glyph>
<glyph name="S" format="2">
  <advance width="300"/>
  <unicode hex="0053"/>
  <anchor x="149" y="0" name="bottom"/>
  <anchor x="156" y="714" name="top"/>
  <anchor x="278" y="714" name="topright"/>
  <outline>
    <contour>
      <point x="130" y="-10" type="curve" smooth="yes"/>
      <point x="221" y="-10"/>
      <point x="278" y="58"/>
      <point x="278" y="198" type="curve" smooth="yes"/>
      <point x="278" y="312"/>
      <point x="246" y="351"/>
      <point x="185" y="415" type="curve" smooth="yes"/>
      <point x="147" y="455"/>
      <point x="139" y="478"/>
      <point x="139" y="534" type="curve" smooth="yes"/>
      <point x="139" y="583"/>
      <point x="139" y="619"/>
      <point x="164" y="619" type="curve" smooth="yes"/>
      <point x="192" y="619"/>
      <point x="215" y="606"/>
      <point x="242" y="579" type="curve"/>
      <point x="277" y="681" type="line"/>
      <point x="237" y="710"/>
      <point x="201" y="725"/>
      <point x="159" y="725" type="curve" smooth="yes"/>
      <point x="73" y="725"/>
      <point x="22" y="658"/>
      <point x="22" y="532" type="curve" smooth="yes"/>
      <point x="22" y="422"/>
      <point x="59" y="371"/>
      <point x="106" y="318" type="curve" smooth="yes"/>
      <point x="144" y="275"/>
      <point x="161" y="252"/>
      <point x="161" y="191" type="curve" smooth="yes"/>
      <point x="161" y="142"/>
      <point x="164" y="97"/>
      <point x="125" y="97" type="curve" smooth="yes"/>
      <point x="90" y="97"/>
      <point x="59" y="117"/>
      <point x="25" y="148" type="curve"/>
      <point x="25" y="30" type="line"/>
      <point x="56" y="2"/>
      <point x="93" y="-10"/>
    </contour>
  </outline>
</glyph>
<glyph name="V" format="2">
  <advance width="300"/>
  <unicode hex="0056"/>
  <anchor x="150" y="0" name="bottom"/>
  <anchor x="150" y="714" name="top"/>
  <anchor x="279" y="714" name="topright"/>
  <outline>
    <contour>
      <point x="81" y="0" type="line"/>
      <point x="218" y="0" type="line"/>
      <point x="292" y="714" type="line"/>
      <point x="175" y="714" type="line"/>
      <point x="162" y="281" type="line" smooth="yes"/>
      <point x="161" y="228"/>
      <point x="153" y="156"/>
      <point x="151" y="109" type="curve"/>
      <point x="149" y="109" type="line"/>
      <point x="147" y="157"/>
      <point x="139" y="228"/>
      <point x="137" y="279" type="curve" smooth="yes"/>
      <point x="122" y="714" type="line"/>
      <point x="8" y="714" type="line"/>
    </contour>
  </outline>
</glyph>
<glyph name="W" format="2">
  <advance width="300"/>
  <unicode hex="0057"/>
  <anchor x="150" y="0" name="bottom"/>
  <anchor x="150" y="714" name="top"/>
  <anchor x="279" y="714" name="topright"/>
  <outline>
    <contour>
      <point x="9" y="0" type="line"/>
      <point x="142" y="0" type="line"/>
      <point x="143" y="260" type="line" smooth="yes"/>
      <point x="143" y="317"/>
      <point x="148" y="375"/>
      <point x="149" y="413" type="curve"/>
      <point x="152" y="413" type="line"/>
      <point x="154" y="375"/>
      <point x="159" y="317"/>
      <point x="159" y="260" type="curve" smooth="yes"/>
      <point x="161" y="0" type="line"/>
      <point x="294" y="0" type="line"/>
      <point x="292" y="714" type="line"/>
      <point x="198" y="714" type="line"/>
      <point x="205" y="615"/>
      <point x="212" y="516"/>
      <point x="217" y="417" type="curve" smooth="yes"/>
      <point x="221" y="360"/>
      <point x="216" y="194"/>
      <point x="216" y="110" type="curve"/>
      <point x="212" y="110" type="line"/>
      <point x="211" y="162"/>
      <point x="199" y="263"/>
      <point x="198" y="329" type="curve" smooth="yes"/>
      <point x="198" y="545" type="line"/>
      <point x="101" y="545" type="line"/>
      <point x="105" y="330" type="line" smooth="yes"/>
      <point x="106" y="275"/>
      <point x="94" y="164"/>
      <point x="91" y="110" type="curve"/>
      <point x="87" y="110" type="line"/>
      <point x="88" y="193"/>
      <point x="83" y="358"/>
      <point x="84" y="416" type="curve" smooth="yes"/>
      <point x="86" y="516"/>
      <point x="93" y="615"/>
      <point x="99" y="714" type="curve"/>
      <point x="8" y="714" type="line"/>
    </contour>
  </outline>
</glyph>
<glyph name="Z" format="2">
  <advance width="300"/>
  <unicode hex="005A"/>
  <anchor x="157" y="0" name="bottom"/>
  <anchor x="152" y="714" name="top"/>
  <anchor x="280" y="714" name="topright"/>
  <outline>
    <contour>
      <point x="21" y="0" type="line"/>
      <point x="277" y="0" type="line"/>
      <point x="277" y="109" type="line"/>
      <point x="153" y="109" type="line"/>
      <point x="278" y="623" type="line"/>
      <point x="278" y="714" type="line"/>
      <point x="20" y="714" type="line"/>
      <point x="20" y="605" type="line"/>
      <point x="153" y="605" type="line"/>
      <point x="21" y="92" type="line"/>
    </contour>
  </outline>
</glyph>
<glyph name="asciicircum" format="2">
  <advance width="300"/>
  <unicode hex="005E"/>
  <outline>
    <contour>
      <point x="16" y="298" type="line"/>
      <point x="119" y="298" type="line"/>
      <point x="145" y="567" type="line"/>
      <point x="179" y="298" type="line"/>
      <point x="282" y="298" type="line"/>
      <point x="172" y="714" type="line"/>
      <point x="117" y="714" type="line"/>
    </contour>
  </outline>
</glyph>
<glyph name="b" format="2">
  <advance width="300"/>
  <unicode hex="0062"/>
  <anchor x="150" y="0" name="bottom"/>
  <anchor x="150" y="760" name="top"/>
  <anchor x="279" y="760" name="topright"/>
  <outline>
    <contour>
      <point x="194" y="-10" type="curve" smooth="yes"/>
      <point x="243" y="-10"/>
      <point x="289" y="93"/>
      <point x="289" y="274" type="curve" smooth="yes"/>
      <point x="289" y="443"/>
      <point x="253" y="555"/>
      <point x="193" y="555" type="curve" smooth="yes"/>
      <point x="172" y="555"/>
      <point x="151" y="526"/>
      <point x="129" y="475" type="curve"/>
      <point x="125" y="475" type="line"/>
      <point x="128" y="511"/>
      <point x="130" y="539"/>
      <point x="130" y="575" type="curve" smooth="yes"/>
      <point x="130" y="760" type="line"/>
      <point x="17" y="760" type="line"/>
      <point x="17" y="0" type="line"/>
      <point x="107" y="0" type="line"/>
      <point x="122" y="62" type="line"/>
      <point x="129" y="62" type="line"/>
      <point x="155" y="14"/>
      <point x="178" y="-10"/>
    </contour>
    <contour>
      <point x="153" y="96" type="curve" smooth="yes"/>
      <point x="137" y="96"/>
      <point x="128" y="155"/>
      <point x="128" y="276" type="curve" smooth="yes"/>
      <point x="128" y="391"/>
      <point x="135" y="449"/>
      <point x="148" y="449" type="curve" smooth="yes"/>
      <point x="160" y="449"/>
      <point x="169" y="392"/>
      <point x="169" y="273" type="curve" smooth="yes"/>
      <point x="169" y="157"/>
      <point x="167" y="96"/>
    </contour>
  </outline>
</glyph>
<glyph name="c" format="2">
  <advance width="300"/>
  <unicode hex="0063"/>
  <anchor x="174" y="0" name="bottom"/>
  <anchor x="171" y="545" name="top"/>
  <anchor x="278" y="545" name="topright"/>
  <outline>
    <contour>
      <point x="178" y="-10" type="curve" smooth="yes"/>
      <point x="209" y="-10"/>
      <point x="240" y="1"/>
      <point x="269" y="24" type="curve"/>
      <point x="269" y="137" type="line"/>
      <point x="242" y="109"/>
      <point x="215" y="96"/>
      <point x="191" y="96" type="curve" smooth="yes"/>
      <point x="167" y="96"/>
      <point x="142" y="149"/>
      <point x="142" y="272" type="curve" smooth="yes"/>
      <point x="142" y="389"/>
      <point x="150" y="449"/>
      <point x="184" y="449" type="curve" smooth="yes"/>
      <point x="210" y="449"/>
      <point x="226" y="440"/>
      <point x="246" y="421" type="curve"/>
      <point x="283" y="519" type="line"/>
      <point x="250" y="543"/>
      <point x="211" y="555"/>
      <point x="173" y="555" type="curve" smooth="yes"/>
      <point x="71" y="555"/>
      <point x="22" y="452"/>
      <point x="22" y="270" type="curve" smooth="yes"/>
      <point x="22" y="74"/>
      <point x="99" y="-10"/>
    </contour>
  </outline>
</glyph>
<glyph name="d" format="2">
  <advance width="300"/>
  <unicode hex="0064"/>
  <anchor x="150" y="0" name="bottom"/>
  <anchor x="150" y="273" name="center"/>
  <anchor x="150" y="760" name="top"/>
  <anchor x="290" y="760" name="topright"/>
  <outline>
    <contour>
      <point x="114" y="-10" type="curve" smooth="yes"/>
      <point x="132" y="-10"/>
      <point x="155" y="22"/>
      <point x="172" y="73" type="curve"/>
      <point x="178" y="73" type="line"/>
      <point x="190" y="0" type="line"/>
      <point x="283" y="0" type="line"/>
      <point x="283" y="760" type="line"/>
      <point x="170" y="760" type="line"/>
      <point x="170" y="570" type="line" smooth="yes"/>
      <point x="170" y="539"/>
      <point x="174" y="503"/>
      <point x="177" y="476" type="curve"/>
      <point x="171" y="476" type="line"/>
      <point x="150" y="527"/>
      <point x="129" y="555"/>
      <point x="113" y="555" type="curve" smooth="yes"/>
      <point x="51" y="555"/>
      <point x="11" y="451"/>
      <point x="11" y="271" type="curve" smooth="yes"/>
      <point x="11" y="97"/>
      <point x="51" y="-10"/>
    </contour>
    <contour>
      <point x="154" y="96" type="curve" smooth="yes"/>
      <point x="134" y="96"/>
      <point x="128" y="153"/>
      <point x="128" y="268" type="curve" smooth="yes"/>
      <point x="128" y="386"/>
      <point x="131" y="449"/>
      <point x="155" y="449" type="curve" smooth="yes"/>
      <point x="174" y="449"/>
      <point x="172" y="393"/>
      <point x="172" y="271" type="curve" smooth="yes"/>
      <point x="172" y="253" type="line" smooth="yes"/>
      <point x="172" y="148"/>
      <point x="165" y="96"/>
    </contour>
  </outline>
</glyph>
<glyph name="e" format="2">
  <advance width="300"/>
  <unicode hex="0065"/>
  <anchor x="155" y="0" name="bottom"/>
  <anchor x="157" y="10" name="ogonek"/>
  <anchor x="152" y="545" name="top"/>
  <anchor x="288" y="545" name="topright"/>
  <outline>
    <contour>
      <point x="167" y="-10" type="curve" smooth="yes"/>
      <point x="212" y="-10"/>
      <point x="241" y="4"/>
      <point x="267" y="28" type="curve"/>
      <point x="267" y="135" type="line"/>
      <point x="246" y="110"/>
      <point x="217" y="94"/>
      <point x="179" y="94" type="curve" smooth="yes"/>
      <point x="154" y="94"/>
      <point x="130" y="139"/>
      <point x="127" y="235" type="curve"/>
      <point x="284" y="235" type="line"/>
      <point x="284" y="304" type="line" smooth="yes"/>
      <point x="284" y="465"/>
      <point x="225" y="555"/>
      <point x="153" y="555" type="curve" smooth="yes"/>
      <point x="63" y="555"/>
      <point x="9" y="444"/>
      <point x="9" y="269" type="curve" smooth="yes"/>
      <point x="9" y="89"/>
      <point x="72" y="-10"/>
    </contour>
    <contour>
      <point x="128" y="324" type="line"/>
      <point x="127" y="407"/>
      <point x="133" y="452"/>
      <point x="150" y="452" type="curve" smooth="yes"/>
      <point x="160" y="452"/>
      <point x="171" y="406"/>
      <point x="172" y="324" type="curve"/>
    </contour>
  </outline>
</glyph>
<glyph name="f" format="2">
  <advance width="300"/>
  <unicode hex="0066"/>
  <anchor x="150" y="0" name="bottom"/>
  <anchor x="172" y="765" name="top"/>
  <anchor x="279" y="766" name="topright"/>
  <outline>
    <contour>
      <point x="73" y="0" type="line"/>
      <point x="189" y="0" type="line"/>
      <point x="189" y="442" type="line"/>
      <point x="270" y="442" type="line"/>
      <point x="270" y="545" type="line"/>
      <point x="189" y="545" type="line"/>
      <point x="189" y="578" type="line" smooth="yes"/>
      <point x="189" y="641"/>
      <point x="201" y="661"/>
      <point x="208" y="661" type="curve" smooth="yes"/>
      <point x="221" y="661"/>
      <point x="235" y="657"/>
      <point x="254" y="646" type="curve"/>
      <point x="285" y="743" type="line"/>
      <point x="252" y="759"/>
      <point x="216" y="766"/>
      <point x="183" y="766" type="curve" smooth="yes"/>
      <point x="113" y="766"/>
      <point x="73" y="714"/>
      <point x="73" y="584" type="curve" smooth="yes"/>
      <point x="73" y="546" type="line"/>
      <point x="11" y="514" type="line"/>
      <point x="11" y="442" type="line"/>
      <point x="73" y="442" type="line"/>
    </contour>
  </outline>
</glyph>
<glyph name="g" format="2">
  <advance width="300"/>
  <unicode hex="0067"/>
  <anchor x="150" y="-245" name="bottom"/>
  <anchor x="150" y="545" name="top"/>
  <anchor x="289" y="545" name="topright"/>
  <outline>
    <contour>
      <point x="136" y="-245" type="curve" smooth="yes"/>
      <point x="235" y="-245"/>
      <point x="283" y="-159"/>
      <point x="283" y="2" type="curve" smooth="yes"/>
      <point x="283" y="545" type="line"/>
      <point x="186" y="545" type="line"/>
      <point x="176" y="475" type="line"/>
      <point x="170" y="475" type="line"/>
      <point x="145" y="532"/>
      <point x="124" y="555"/>
      <point x="110" y="555" type="curve" smooth="yes"/>
      <point x="53" y="555"/>
      <point x="11" y="445"/>
      <point x="11" y="270" type="curve" smooth="yes"/>
      <point x="11" y="96"/>
      <point x="50" y="-10"/>
      <point x="115" y="-10" type="curve" smooth="yes"/>
      <point x="127" y="-10"/>
      <point x="143" y="12"/>
      <point x="167" y="69" type="curve"/>
      <point x="169" y="69" type="line"/>
      <point x="169" y="53"/>
      <point x="168" y="25"/>
      <point x="168" y="6" type="curve" smooth="yes"/>
      <point x="168" y="-16" type="line" smooth="yes"/>
      <point x="168" y="-96"/>
      <point x="152" y="-140"/>
      <point x="129" y="-140" type="curve" smooth="yes"/>
      <point x="113" y="-140"/>
      <point x="75" y="-127"/>
      <point x="37" y="-98" type="curve"/>
      <point x="37" y="-207" type="line"/>
      <point x="70" y="-233"/>
      <point x="101" y="-245"/>
    </contour>
    <contour>
      <point x="159" y="96" type="curve" smooth="yes"/>
      <point x="138" y="96"/>
      <point x="135" y="156"/>
      <point x="135" y="269" type="curve" smooth="yes"/>
      <point x="135" y="385"/>
      <point x="141" y="449"/>
      <point x="156" y="449" type="curve" smooth="yes"/>
      <point x="166" y="449"/>
      <point x="172" y="398"/>
      <point x="172" y="271" type="curve" smooth="yes"/>
      <point x="172" y="253" type="line" smooth="yes"/>
      <point x="172" y="140"/>
      <point x="160" y="96"/>
    </contour>
  </outline>
</glyph>
<glyph name="h" format="2">
  <advance width="300"/>
  <unicode hex="0068"/>
  <anchor x="150" y="0" name="bottom"/>
  <anchor x="150" y="273" name="center"/>
  <anchor x="75" y="760" name="top"/>
  <anchor x="279" y="760" name="topright"/>
  <outline>
    <contour>
      <point x="17" y="0" type="line"/>
      <point x="133" y="0" type="line"/>
      <point x="133" y="279" type="line" smooth="yes"/>
      <point x="133" y="385"/>
      <point x="125" y="446"/>
      <point x="151" y="446" type="curve" smooth="yes"/>
      <point x="177" y="446"/>
      <point x="170" y="401"/>
      <point x="170" y="321" type="curve" smooth="yes"/>
      <point x="170" y="0" type="line"/>
      <point x="286" y="0" type="line"/>
      <point x="286" y="355" type="line" smooth="yes"/>
      <point x="286" y="488"/>
      <point x="246" y="555"/>
      <point x="191" y="555" type="curve" smooth="yes"/>
      <point x="169" y="555"/>
      <point x="148" y="523"/>
      <point x="131" y="474" type="curve"/>
      <point x="125" y="474" type="line"/>
      <point x="130" y="507"/>
      <point x="133" y="542"/>
      <point x="133" y="577" type="curve" smooth="yes"/>
      <point x="133" y="760" type="line"/>
      <point x="17" y="760" type="line"/>
    </contour>
  </outline>
</glyph>
<glyph name="i" format="2">
  <advance width="300"/>
  <unicode hex="0069"/>
  <anchor x="159" y="0" name="bottom"/>
  <anchor x="153" y="770" name="top"/>
  <anchor x="251" y="770" name="topright"/>
  <outline>
    <contour>
      <point x="26" y="0" type="line"/>
      <point x="267" y="0" type="line"/>
      <point x="267" y="87" type="line"/>
      <point x="211" y="101" type="line"/>
      <point x="211" y="545" type="line"/>
      <point x="37" y="545" type="line"/>
      <point x="37" y="454" type="line"/>
      <point x="97" y="441" type="line"/>
      <point x="97" y="101" type="line"/>
      <point x="26" y="87" type="line"/>
    </contour>
    <contour>
      <point x="153" y="621" type="curve" smooth="yes"/>
      <point x="192" y="621"/>
      <point x="216" y="647"/>
      <point x="216" y="695" type="curve" smooth="yes"/>
      <point x="216" y="745"/>
      <point x="192" y="770"/>
      <point x="153" y="770" type="curve" smooth="yes"/>
      <point x="116" y="770"/>
      <point x="90" y="745"/>
      <point x="90" y="695" type="curve" smooth="yes"/>
      <point x="90" y="646"/>
      <point x="116" y="621"/>
    </contour>
  </outline>
</glyph>
<glyph name="k" format="2">
  <advance width="300"/>
  <unicode hex="006B"/>
  <anchor x="147" y="0" name="bottom"/>
  <anchor x="167" y="760" name="top"/>
  <anchor x="279" y="760" name="topright"/>
  <outline>
    <contour>
      <point x="13" y="0" type="line"/>
      <point x="112" y="0" type="line"/>
      <point x="112" y="190" type="line"/>
      <point x="122" y="226" type="line"/>
      <point x="174" y="0" type="line"/>
      <point x="293" y="0" type="line"/>
      <point x="192" y="298" type="line"/>
      <point x="294" y="542" type="line"/>
      <point x="176" y="542" type="line"/>
      <point x="133" y="360" type="line" smooth="yes"/>
      <point x="127" y="334"/>
      <point x="115" y="312"/>
      <point x="106" y="287" type="curve"/>
      <point x="105" y="287" type="line"/>
      <point x="109" y="335"/>
      <point x="112" y="378"/>
      <point x="112" y="425" type="curve" smooth="yes"/>
      <point x="112" y="760" type="line"/>
      <point x="13" y="760" type="line"/>
    </contour>
  </outline>
</glyph>
<glyph name="m" format="2">
  <advance width="300"/>
  <unicode hex="006D"/>
  <anchor x="154" y="0" name="bottom"/>
  <anchor x="159" y="541" name="top"/>
  <anchor x="287" y="541" name="topright"/>
  <outline>
    <contour>
      <point x="10" y="0" type="line"/>
      <point x="90" y="0" type="line"/>
      <point x="90" y="348" type="line" smooth="yes"/>
      <point x="90" y="406"/>
      <point x="87" y="467"/>
      <point x="102" y="467" type="curve" smooth="yes"/>
      <point x="113" y="467"/>
      <point x="109" y="442"/>
      <point x="109" y="389" type="curve" smooth="yes"/>
      <point x="109" y="0" type="line"/>
      <point x="188" y="0" type="line"/>
      <point x="188" y="356" type="line" smooth="yes"/>
      <point x="188" y="417"/>
      <point x="184" y="467"/>
      <point x="199" y="467" type="curve" smooth="yes"/>
      <point x="211" y="467"/>
      <point x="208" y="442"/>
      <point x="208" y="391" type="curve" smooth="yes"/>
      <point x="208" y="0" type="line"/>
      <point x="289" y="0" type="line"/>
      <point x="289" y="387" type="line" smooth="yes"/>
      <point x="289" y="499"/>
      <point x="285" y="551"/>
      <point x="239" y="551" type="curve" smooth="yes"/>
      <point x="215" y="551"/>
      <point x="199" y="527"/>
      <point x="187" y="479" type="curve"/>
      <point x="185" y="479" type="line"/>
      <point x="176" y="525"/>
      <point x="166" y="551"/>
      <point x="141" y="551" type="curve" smooth="yes"/>
      <point x="122" y="551"/>
      <point x="105" y="531"/>
      <point x="93" y="485" type="curve"/>
      <point x="90" y="485" type="line"/>
      <point x="78" y="541" type="line"/>
      <point x="10" y="541" type="line"/>
    </contour>
  </outline>
</glyph>
<glyph name="p" format="2">
  <advance width="300"/>
  <unicode hex="0070"/>
  <anchor x="163" y="-240" name="bottom"/>
  <anchor x="163" y="545" name="top"/>
  <anchor x="279" y="545" name="topright"/>
  <outline>
    <contour>
      <point x="17" y="-240" type="line"/>
      <point x="131" y="-240" type="line"/>
      <point x="131" y="-41" type="line" smooth="yes"/>
      <point x="131" y="-3"/>
      <point x="126" y="43"/>
      <point x="124" y="62" type="curve"/>
      <point x="130" y="62" type="line"/>
      <point x="153" y="19"/>
      <point x="174" y="-10"/>
      <point x="194" y="-10" type="curve" smooth="yes"/>
      <point x="243" y="-10"/>
      <point x="289" y="93"/>
      <point x="289" y="274" type="curve" smooth="yes"/>
      <point x="289" y="440"/>
      <point x="256" y="555"/>
      <point x="194" y="555" type="curve" smooth="yes"/>
      <point x="169" y="555"/>
      <point x="147" y="522"/>
      <point x="130" y="472" type="curve"/>
      <point x="124" y="472" type="line"/>
      <point x="106" y="545" type="line"/>
      <point x="17" y="545" type="line"/>
    </contour>
    <contour>
      <point x="156" y="96" type="curve" smooth="yes"/>
      <point x="132" y="96"/>
      <point x="131" y="151"/>
      <point x="131" y="273" type="curve" smooth="yes"/>
      <point x="131" y="291" type="line" smooth="yes"/>
      <point x="131" y="398"/>
      <point x="136" y="449"/>
      <point x="152" y="449" type="curve" smooth="yes"/>
      <point x="165" y="449"/>
      <point x="168" y="392"/>
      <point x="168" y="274" type="curve" smooth="yes"/>
      <point x="168" y="158"/>
      <point x="172" y="96"/>
    </contour>
  </outline>
</glyph>
<glyph name="s" format="2">
  <advance width="300"/>
  <unicode hex="0073"/>
  <anchor x="156" y="0" name="bottom"/>
  <anchor x="156" y="545" name="top"/>
  <anchor x="278" y="545" name="topright"/>
  <outline>
    <contour>
      <point x="130" y="-10" type="curve" smooth="yes"/>
      <point x="231" y="-10"/>
      <point x="278" y="48"/>
      <point x="278" y="156" type="curve" smooth="yes"/>
      <point x="278" y="242"/>
      <point x="264" y="273"/>
      <point x="204" y="319" type="curve" smooth="yes"/>
      <point x="156" y="356"/>
      <point x="146" y="371"/>
      <point x="146" y="404" type="curve" smooth="yes"/>
      <point x="146" y="434"/>
      <point x="147" y="454"/>
      <point x="167" y="454" type="curve" smooth="yes"/>
      <point x="185" y="454"/>
      <point x="204" y="445"/>
      <point x="242" y="421" type="curve"/>
      <point x="278" y="517" type="line"/>
      <point x="234" y="544"/>
      <point x="200" y="555"/>
      <point x="162" y="555" type="curve" smooth="yes"/>
      <point x="74" y="555"/>
      <point x="27" y="501"/>
      <point x="27" y="403" type="curve" smooth="yes"/>
      <point x="27" y="325"/>
      <point x="53" y="279"/>
      <point x="103" y="240" type="curve" smooth="yes"/>
      <point x="163" y="194"/>
      <point x="161" y="183"/>
      <point x="161" y="150" type="curve" smooth="yes"/>
      <point x="161" y="117"/>
      <point x="163" y="93"/>
      <point x="137" y="93" type="curve" smooth="yes"/>
      <point x="101" y="93"/>
      <point x="56" y="110"/>
      <point x="29" y="134" type="curve"/>
      <point x="29" y="23" type="line"/>
      <point x="60" y="2"/>
      <point x="92" y="-10"/>
    </contour>
  </outline>
</glyph>
<glyph name="t" format="2">
  <advance width="300"/>
  <unicode hex="0074"/>
  <anchor x="180" y="0" name="bottom"/>
  <anchor x="125" y="289" name="center"/>
  <anchor x="150" y="681" name="top"/>
  <anchor x="279" y="681" name="topright"/>
  <outline>
    <contour>
      <point x="184" y="-10" type="curve" smooth="yes"/>
      <point x="213" y="-10"/>
      <point x="258" y="-3"/>
      <point x="288" y="11" type="curve"/>
      <point x="288" y="115" type="line"/>
      <point x="256" y="102"/>
      <point x="230" y="98"/>
      <point x="220" y="98" type="curve" smooth="yes"/>
      <point x="210" y="98"/>
      <point x="183" y="117"/>
      <point x="183" y="188" type="curve" smooth="yes"/>
      <point x="183" y="441" type="line"/>
      <point x="293" y="441" type="line"/>
      <point x="293" y="545" type="line"/>
      <point x="185" y="545" type="line"/>
      <point x="185" y="681" type="line"/>
      <point x="113" y="681" type="line"/>
      <point x="75" y="546" type="line"/>
      <point x="-2" y="504" type="line"/>
      <point x="-2" y="441" type="line"/>
      <point x="67" y="441" type="line"/>
      <point x="67" y="167" type="line" smooth="yes"/>
      <point x="67" y="40"/>
      <point x="128" y="-10"/>
    </contour>
  </outline>
</glyph>
<glyph name="v" format="2">
  <advance width="300"/>
  <unicode hex="0076"/>
  <anchor x="150" y="0" name="bottom"/>
  <anchor x="150" y="545" name="top"/>
  <anchor x="279" y="545" name="topright"/>
  <outline>
    <contour>
      <point x="76" y="0" type="line"/>
      <point x="218" y="0" type="line"/>
      <point x="305" y="545" type="line"/>
      <point x="184" y="545" type="line"/>
      <point x="165" y="235" type="line" smooth="yes"/>
      <point x="162" y="191"/>
      <point x="154" y="145"/>
      <point x="152" y="105" type="curve"/>
      <point x="150" y="105" type="line"/>
      <point x="146" y="145"/>
      <point x="138" y="191"/>
      <point x="135" y="235" type="curve" smooth="yes"/>
      <point x="112" y="545" type="line"/>
      <point x="-5" y="545" type="line"/>
    </contour>
  </outline>
</glyph>
<glyph name="x" format="2">
  <advance width="300"/>
  <unicode hex="0078"/>
  <anchor x="151" y="0" name="bottom"/>
  <anchor x="151" y="542" name="top"/>
  <anchor x="279" y="542" name="topright"/>
  <outline>
    <contour>
      <point x="3" y="0" type="line"/>
      <point x="118" y="0" type="line"/>
      <point x="149" y="197" type="line"/>
      <point x="180" y="0" type="line"/>
      <point x="298" y="0" type="line"/>
      <point x="214" y="276" type="line"/>
      <point x="295" y="542" type="line"/>
      <point x="179" y="542" type="line"/>
      <point x="150" y="358" type="line"/>
      <point x="122" y="542" type="line"/>
      <point x="5" y="542" type="line"/>
      <point x="86" y="278" type="line"/>
    </contour>
  </outline>
</glyph>
<glyph name="z" format="2">
  <advance width="300"/>
  <unicode hex="007A"/>
  <anchor x="146" y="0" name="bottom"/>
  <anchor x="146" y="545" name="top"/>
  <anchor x="279" y="545" name="topright"/>
  <outline>
    <contour>
      <point x="20" y="0" type="line"/>
      <point x="281" y="0" type="line"/>
      <point x="281" y="104" type="line"/>
      <point x="161" y="104" type="line"/>
      <point x="270" y="453" type="line"/>
      <point x="270" y="545" type="line"/>
      <point x="20" y="545" type="line"/>
      <point x="20" y="442" type="line"/>
      <point x="139" y="442" type="line"/>
      <point x="20" y="80" type="line"/>
    </contour>
  </outline>
</glyph>
<glyph name="braceleft" format="2">
  <advance width="300"/>
  <unicode hex="007B"/>
  <outline>
    <contour>
      <point x="241" y="-164" type="curve" smooth="yes"/>
      <point x="241" y="-73" type="line" smooth="yes"/>
      <point x="241" y="-71"/>
      <point x="209" y="-49"/>
      <point x="209" y="6" type="curve"/>
      <point x="209" y="153" type="line"/>
      <point x="209" y="223"/>
      <point x="151" y="263"/>
      <point x="151" y="276" type="curve" smooth="yes"/>
      <point x="151" y="281" type="line" smooth="yes"/>
      <point x="151" y="292"/>
      <point x="209" y="331"/>
      <point x="209" y="405" type="curve"/>
      <point x="209" y="551" type="line"/>
      <point x="209" y="611"/>
      <point x="241" y="627"/>
      <point x="241" y="629" type="curve" smooth="yes"/>
      <point x="241" y="720" type="line" smooth="yes"/>
      <point x="241" y="719"/>
      <point x="104" y="670"/>
      <point x="104" y="558" type="curve"/>
      <point x="104" y="414" type="line"/>
      <point x="104" y="349"/>
      <point x="50" y="322"/>
      <point x="50" y="322" type="curve" smooth="yes"/>
      <point x="50" y="234" type="line" smooth="yes"/>
      <point x="50" y="234"/>
      <point x="104" y="202"/>
      <point x="104" y="142" type="curve"/>
      <point x="104" y="-1" type="line"/>
      <point x="104" y="-121"/>
      <point x="241" y="-163"/>
    </contour>
  </outline>
</glyph>
<glyph name="asciitilde" format="2">
  <advance width="300"/>
  <unicode hex="007E"/>
  <outline>
    <contour>
      <point x="35" y="276" type="line"/>
      <point x="53" y="314"/>
      <point x="72" y="335"/>
      <point x="85" y="335" type="curve" smooth="yes"/>
      <point x="94" y="335"/>
      <point x="115" y="325"/>
      <point x="135" y="308" type="curve" smooth="yes"/>
      <point x="159" y="287"/>
      <point x="180" y="278"/>
      <point x="203" y="278" type="curve" smooth="yes"/>
      <point x="225" y="278"/>
      <point x="244" y="296"/>
      <point x="263" y="329" type="curve"/>
      <point x="263" y="430" type="line"/>
      <point x="248" y="394"/>
      <point x="227" y="371"/>
      <point x="212" y="371" type="curve" smooth="yes"/>
      <point x="200" y="371"/>
      <point x="181" y="380"/>
      <point x="158" y="398" type="curve" smooth="yes"/>
      <point x="134" y="416"/>
      <point x="113" y="429"/>
      <point x="94" y="429" type="curve" smooth="yes"/>
      <point x="70" y="429"/>
      <point x="52" y="411"/>
      <point x="35" y="377" type="curve"/>
    </contour>
  </outline>
</glyph>
<glyph name="yen" format="2">
  <advance width="300"/>
  <unicode hex="00A5"/>
  <outline>
    <contour>
      <point x="93" y="0" type="line"/>
      <point x="206" y="0" type="line"/>
      <point x="206" y="120" type="line"/>
      <point x="257" y="120" type="line"/>
      <point x="257" y="196" type="line"/>
      <point x="206" y="196" type="line"/>
      <point x="206" y="271" type="line"/>
      <point x="257" y="271" type="line"/>
      <point x="257" y="347" type="line"/>
      <point x="225" y="347" type="line"/>
      <point x="275" y="714" type="line"/>
      <point x="156" y="714" type="line"/>
      <point x="150" y="415" type="line"/>
      <point x="141" y="714" type="line"/>
      <point x="24" y="714" type="line"/>
      <point x="72" y="347" type="line"/>
      <point x="43" y="347" type="line"/>
      <point x="43" y="271" type="line"/>
      <point x="93" y="271" type="line"/>
      <point x="93" y="196" type="line"/>
      <point x="43" y="196" type="line"/>
      <point x="43" y="120" type="line"/>
      <point x="93" y="120" type="line"/>
    </contour>
  </outline>
</glyph>
<glyph name="copyright" format="2">
  <advance width="300"/>
  <unicode hex="00A9"/>
  <outline>
    <contour>
      <point x="152" y="128" type="curve" smooth="yes"/>
      <point x="231" y="128"/>
      <point x="289" y="219"/>
      <point x="289" y="360" type="curve" smooth="yes"/>
      <point x="289" y="498"/>
      <point x="232" y="592"/>
      <point x="151" y="592" type="curve" smooth="yes"/>
      <point x="69" y="592"/>
      <point x="11" y="501"/>
      <point x="11" y="360" type="curve" smooth="yes"/>
      <point x="11" y="225"/>
      <point x="63" y="128"/>
    </contour>
    <contour>
      <point x="154" y="216" type="curve" smooth="yes"/>
      <point x="169" y="216"/>
      <point x="183" y="222"/>
      <point x="197" y="233" type="curve"/>
      <point x="197" y="289" type="line"/>
      <point x="185" y="279"/>
      <point x="169" y="272"/>
      <point x="153" y="272" type="curve" smooth="yes"/>
      <point x="141" y="272"/>
      <point x="139" y="301"/>
      <point x="139" y="358" type="curve" smooth="yes"/>
      <point x="139" y="415"/>
      <point x="145" y="445"/>
      <point x="153" y="445" type="curve" smooth="yes"/>
      <point x="161" y="445"/>
      <point x="172" y="441"/>
      <point x="183" y="430" type="curve"/>
      <point x="204" y="482" type="line"/>
      <point x="186" y="495"/>
      <point x="167" y="502"/>
      <point x="148" y="502" type="curve" smooth="yes"/>
      <point x="107" y="502"/>
      <point x="83" y="446"/>
      <point x="83" y="359" type="curve" smooth="yes"/>
      <point x="83" y="271"/>
      <point x="104" y="216"/>
    </contour>
    <contour>
      <point x="151" y="179" type="curve" smooth="yes"/>
      <point x="100" y="179"/>
      <point x="59" y="247"/>
      <point x="59" y="360" type="curve" smooth="yes"/>
      <point x="59" y="470"/>
      <point x="94" y="540"/>
      <point x="150" y="540" type="curve" smooth="yes"/>
      <point x="201" y="540"/>
      <point x="240" y="471"/>
      <point x="240" y="359" type="curve" smooth="yes"/>
      <point x="240" y="248"/>
      <point x="205" y="179"/>
    </contour>
  </outline>
</glyph>
<glyph name="guillemotleft" format="2">
  <advance width="300"/>
  <unicode hex="00AB"/>
  <outline>
    <contour>
      <point x="222" y="48" type="line"/>
      <point x="301" y="91" type="line"/>
      <point x="257" y="264" type="line"/>
      <point x="301" y="438" type="line"/>
      <point x="222" y="480" type="line"/>
      <point x="137" y="271" type="line"/>
      <point x="137" y="257" type="line"/>
    </contour>
    <contour>
      <point x="83" y="48" type="line"/>
      <point x="162" y="91" type="line"/>
      <point x="118" y="264" type="line"/>
      <point x="163" y="438" type="line"/>
      <point x="83" y="480" type="line"/>
      <point x="-1" y="271" type="line"/>
      <point x="-1" y="257" type="line"/>
    </contour>
  </outline>
</glyph>
<glyph name="registered" format="2">
  <advance width="300"/>
  <unicode hex="00AE"/>
  <outline>
    <contour>
      <point x="151" y="128" type="curve" smooth="yes"/>
      <point x="230" y="128"/>
      <point x="288" y="218"/>
      <point x="288" y="359" type="curve" smooth="yes"/>
      <point x="288" y="497"/>
      <point x="231" y="590"/>
      <point x="151" y="590" type="curve" smooth="yes"/>
      <point x="71" y="590"/>
      <point x="13" y="500"/>
      <point x="13" y="359" type="curve" smooth="yes"/>
      <point x="13" y="225"/>
      <point x="64" y="128"/>
    </contour>
    <contour>
      <point x="151" y="179" type="curve" smooth="yes"/>
      <point x="101" y="179"/>
      <point x="61" y="247"/>
      <point x="61" y="359" type="curve" smooth="yes"/>
      <point x="61" y="469"/>
      <point x="95" y="539"/>
      <point x="149" y="539" type="curve" smooth="yes"/>
      <point x="200" y="539"/>
      <point x="239" y="470"/>
      <point x="239" y="359" type="curve" smooth="yes"/>
      <point x="239" y="248"/>
      <point x="204" y="179"/>
    </contour>
    <contour>
      <point x="88" y="228" type="line"/>
      <point x="136" y="228" type="line"/>
      <point x="136" y="325" type="line"/>
      <point x="137" y="325" type="line"/>
      <point x="161" y="228" type="line"/>
      <point x="215" y="228" type="line"/>
      <point x="178" y="337" type="line"/>
      <point x="190" y="350"/>
      <point x="197" y="374"/>
      <point x="197" y="414" type="curve" smooth="yes"/>
      <point x="197" y="466"/>
      <point x="181" y="495"/>
      <point x="134" y="495" type="curve" smooth="yes"/>
      <point x="88" y="495" type="line"/>
    </contour>
    <contour>
      <point x="137" y="371" type="line"/>
      <point x="137" y="447" type="line"/>
      <point x="131" y="447" type="line" smooth="yes"/>
      <point x="146" y="447"/>
      <point x="149" y="436"/>
      <point x="149" y="411" type="curve" smooth="yes"/>
      <point x="149" y="383"/>
      <point x="144" y="371"/>
      <point x="132" y="371" type="curve" smooth="yes"/>
    </contour>
  </outline>
</glyph>
<glyph name="threesuperior" format="2">
  <advance width="300"/>
  <unicode hex="00B3"/>
  <outline>
    <contour>
      <point x="150" y="407" type="curve" smooth="yes"/>
      <point x="203" y="407"/>
      <point x="244" y="453"/>
      <point x="244" y="532" type="curve" smooth="yes"/>
      <point x="244" y="589"/>
      <point x="225" y="623"/>
      <point x="198" y="638" type="curve"/>
      <point x="198" y="642" type="line"/>
      <point x="227" y="660"/>
      <point x="237" y="697"/>
      <point x="237" y="744" type="curve" smooth="yes"/>
      <point x="237" y="813"/>
      <point x="202" y="853"/>
      <point x="155" y="853" type="curve" smooth="yes"/>
      <point x="125" y="853"/>
      <point x="100" y="836"/>
      <point x="75" y="801" type="curve"/>
      <point x="111" y="743" type="line"/>
      <point x="125" y="768"/>
      <point x="134" y="779"/>
      <point x="143" y="779" type="curve" smooth="yes"/>
      <point x="156" y="779"/>
      <point x="162" y="760"/>
      <point x="162" y="728" type="curve" smooth="yes"/>
      <point x="162" y="691"/>
      <point x="152" y="668"/>
      <point x="131" y="668" type="curve" smooth="yes"/>
      <point x="118" y="668" type="line"/>
      <point x="118" y="600" type="line"/>
      <point x="136" y="600" type="line" smooth="yes"/>
      <point x="156" y="600"/>
      <point x="165" y="579"/>
      <point x="165" y="540" type="curve" smooth="yes"/>
      <point x="165" y="506"/>
      <point x="165" y="485"/>
      <point x="146" y="485" type="curve" smooth="yes"/>
      <point x="123" y="485"/>
      <point x="100" y="496"/>
      <point x="83" y="518" type="curve"/>
      <point x="83" y="436" type="line"/>
      <point x="103" y="417"/>
      <point x="125" y="407"/>
    </contour>
  </outline>
</glyph>
<glyph name="paragraph" format="2">
  <advance width="300"/>
  <unicode hex="00B6"/>
  <outline>
    <contour>
      <point x="130" y="-127" type="line"/>
      <point x="190" y="-127" type="line"/>
      <point x="190" y="695" type="line"/>
      <point x="200" y="695" type="line"/>
      <point x="200" y="-127" type="line"/>
      <point x="260" y="-127" type="line"/>
      <point x="260" y="760" type="line"/>
      <point x="120" y="760" type="line" smooth="yes"/>
      <point x="57" y="760"/>
      <point x="30" y="675"/>
      <point x="30" y="509" type="curve" smooth="yes"/>
      <point x="30" y="344"/>
      <point x="56" y="264"/>
      <point x="109" y="264" type="curve" smooth="yes"/>
      <point x="118" y="264"/>
      <point x="126" y="267"/>
      <point x="130" y="273" type="curve"/>
    </contour>
  </outline>
</glyph>
<glyph name="cedilla" format="2">
  <advance width="300"/>
  <unicode hex="00B8"/>
  <outline>
    <contour>
      <point x="132" y="-240" type="curve" smooth="yes"/>
      <point x="185" y="-240"/>
      <point x="210" y="-201"/>
      <point x="210" y="-137" type="curve" smooth="yes"/>
      <point x="210" y="-86"/>
      <point x="196" y="-55"/>
      <point x="166" y="-44" type="curve"/>
      <point x="170" y="0" type="line"/>
      <point x="116" y="0" type="line"/>
      <point x="99" y="-81" type="line"/>
      <point x="115" y="-86"/>
      <point x="127" y="-100"/>
      <point x="127" y="-132" type="curve" smooth="yes"/>
      <point x="127" y="-156"/>
      <point x="126" y="-172"/>
      <point x="114" y="-172" type="curve" smooth="yes"/>
      <point x="108" y="-172"/>
      <point x="99" y="-170"/>
      <point x="90" y="-166" type="curve"/>
      <point x="90" y="-233" type="line"/>
      <point x="101" y="-238"/>
      <point x="118" y="-240"/>
    </contour>
  </outline>
</glyph>
<glyph name="AE" format="2">
  <advance width="300"/>
  <unicode hex="00C6"/>
  <anchor x="150" y="0" name="bottom"/>
  <anchor x="159" y="714" name="top"/>
  <outline>
    <contour>
      <point x="13" y="0" type="line"/>
      <point x="117" y="0" type="line"/>
      <point x="142" y="608" type="line"/>
      <point x="145" y="608" type="line"/>
      <point x="145" y="0" type="line"/>
      <point x="282" y="0" type="line"/>
      <point x="282" y="110" type="line"/>
      <point x="243" y="110" type="line"/>
      <point x="243" y="316" type="line"/>
      <point x="271" y="316" type="line"/>
      <point x="271" y="426" type="line"/>
      <point x="243" y="426" type="line"/>
      <point x="243" y="604" type="line"/>
      <point x="282" y="604" type="line"/>
      <point x="282" y="714" type="line"/>
      <point x="64" y="714" type="line"/>
    </contour>
    <contour>
      <point x="99" y="189" type="line"/>
      <point x="166" y="189" type="line"/>
      <point x="169" y="297" type="line"/>
      <point x="116" y="297" type="line"/>
    </contour>
  </outline>
</glyph>
<glyph name="Eth" format="2">
  <advance width="300"/>
  <unicode hex="00D0"/>
  <anchor x="150" y="0" name="bottom"/>
  <anchor x="150" y="714" name="top"/>
  <anchor x="306" y="714" name="topright"/>
  <anchor x="172" y="357" name="center"/>
  <outline>
    <contour>
      <point x="10" y="317" type="line"/>
      <point x="166" y="317" type="line"/>
      <point x="166" y="410" type="line"/>
      <point x="10" y="410" type="line"/>
    </contour>
    <component base="D" xOffset="16"/>
  </outline>
</glyph>
<glyph name="multiply" format="2">
  <advance width="300"/>
  <unicode hex="00D7"/>
  <outline>
    <contour>
      <point x="101" y="158" type="line"/>
      <point x="154" y="289" type="line"/>
      <point x="207" y="159" type="line"/>
      <point x="268" y="222" type="line"/>
      <point x="217" y="353" type="line"/>
      <point x="270" y="486" type="line"/>
      <point x="208" y="549" type="line"/>
      <point x="154" y="419" type="line"/>
      <point x="101" y="548" type="line"/>
      <point x="41" y="483" type="line"/>
      <point x="92" y="353" type="line"/>
      <point x="42" y="223" type="line"/>
    </contour>
  </outline>
</glyph>
<glyph name="Thorn" format="2">
  <advance width="300"/>
  <unicode hex="00DE"/>
  <anchor x="150" y="0" name="bottom"/>
  <anchor x="150" y="714" name="top"/>
  <outline>
    <contour>
      <point x="20" y="0" type="line"/>
      <point x="136" y="0" type="line"/>
      <point x="136" y="142" type="line"/>
      <point x="142" y="142" type="line" smooth="yes"/>
      <point x="245" y="142"/>
      <point x="276" y="240"/>
      <point x="276" y="376" type="curve" smooth="yes"/>
      <point x="276" y="516"/>
      <point x="243" y="594"/>
      <point x="152" y="594" type="curve" smooth="yes"/>
      <point x="136" y="594" type="line"/>
      <point x="136" y="714" type="line"/>
      <point x="20" y="714" type="line"/>
    </contour>
    <contour>
      <point x="136" y="246" type="line"/>
      <point x="136" y="491" type="line"/>
      <point x="152" y="491" type="line" smooth="yes"/>
      <point x="158" y="491"/>
      <point x="163" y="453"/>
      <point x="163" y="369" type="curve" smooth="yes"/>
      <point x="163" y="283"/>
      <point x="158" y="246"/>
      <point x="134" y="246" type="curve" smooth="yes"/>
    </contour>
  </outline>
</glyph>
<glyph name="germandbls" format="2">
  <advance width="300"/>
  <unicode hex="00DF"/>
  <anchor x="150" y="0" name="bottom"/>
  <anchor x="150" y="765" name="top"/>
  <outline>
    <contour>
      <point x="186" y="-10" type="curve" smooth="yes"/>
      <point x="244" y="-10"/>
      <point x="282" y="50"/>
      <point x="282" y="158" type="curve" smooth="yes"/>
      <point x="282" y="237"/>
      <point x="267" y="273"/>
      <point x="249" y="322" type="curve" smooth="yes"/>
      <point x="235" y="361"/>
      <point x="242" y="380"/>
      <point x="242" y="404" type="curve" smooth="yes"/>
      <point x="242" y="469"/>
      <point x="261" y="493"/>
      <point x="261" y="600" type="curve" smooth="yes"/>
      <point x="261" y="708"/>
      <point x="207" y="765"/>
      <point x="137" y="765" type="curve" smooth="yes"/>
      <point x="57" y="765"/>
      <point x="10" y="687"/>
      <point x="10" y="566" type="curve" smooth="yes"/>
      <point x="10" y="0" type="line"/>
      <point x="120" y="0" type="line"/>
      <point x="120" y="545" type="line" smooth="yes"/>
      <point x="120" y="628"/>
      <point x="120" y="669"/>
      <point x="131" y="669" type="curve" smooth="yes"/>
      <point x="145" y="669"/>
      <point x="149" y="640"/>
      <point x="149" y="596" type="curve" smooth="yes"/>
      <point x="149" y="511"/>
      <point x="129" y="495"/>
      <point x="129" y="395" type="curve" smooth="yes"/>
      <point x="129" y="326"/>
      <point x="146" y="291"/>
      <point x="160" y="251" type="curve" smooth="yes"/>
      <point x="175" y="207"/>
      <point x="171" y="188"/>
      <point x="171" y="158" type="curve" smooth="yes"/>
      <point x="171" y="112"/>
      <point x="172" y="90"/>
      <point x="170" y="90" type="curve" smooth="yes"/>
      <point x="157" y="90"/>
      <point x="146" y="103"/>
      <point x="133" y="126" type="curve"/>
      <point x="133" y="18" type="line"/>
      <point x="152" y="-2"/>
      <point x="170" y="-10"/>
    </contour>
  </outline>
</glyph>
<glyph name="ae" format="2">
  <advance width="300"/>
  <unicode hex="00E6"/>
  <anchor x="150" y="0" name="bottom"/>
  <anchor x="150" y="540" name="top"/>
  <outline>
    <contour>
      <point x="86" y="-10" type="curve" smooth="yes"/>
      <point x="111" y="-10"/>
      <point x="130" y="20"/>
      <point x="150" y="97" type="curve"/>
      <point x="172" y="19"/>
      <point x="198" y="-10"/>
      <point x="225" y="-10" type="curve" smooth="yes"/>
      <point x="247" y="-10"/>
      <point x="264" y="0"/>
      <point x="279" y="27" type="curve"/>
      <point x="279" y="116" type="line"/>
      <point x="266" y="87"/>
      <point x="255" y="76"/>
      <point x="238" y="76" type="curve" smooth="yes"/>
      <point x="216" y="76"/>
      <point x="194" y="120"/>
      <point x="193" y="248" type="curve"/>
      <point x="289" y="248" type="line"/>
      <point x="289" y="300" type="line" smooth="yes"/>
      <point x="289" y="456"/>
      <point x="268" y="550"/>
      <point x="209" y="550" type="curve" smooth="yes"/>
      <point x="191" y="550"/>
      <point x="173" y="520"/>
      <point x="157" y="472" type="curve"/>
      <point x="139" y="527"/>
      <point x="116" y="550"/>
      <point x="96" y="550" type="curve" smooth="yes"/>
      <point x="71" y="550"/>
      <point x="42" y="531"/>
      <point x="19" y="504" type="curve"/>
      <point x="48" y="434" type="line"/>
      <point x="58" y="454"/>
      <point x="72" y="466"/>
      <point x="86" y="466" type="curve" smooth="yes"/>
      <point x="100" y="466"/>
      <point x="113" y="439"/>
      <point x="114" y="361" type="curve" smooth="yes"/>
      <point x="114" y="327" type="line"/>
      <point x="83" y="323" type="line" smooth="yes"/>
      <point x="35" y="317"/>
      <point x="12" y="261"/>
      <point x="12" y="151" type="curve" smooth="yes"/>
      <point x="12" y="48"/>
      <point x="39" y="-10"/>
    </contour>
    <contour>
      <point x="100" y="76" type="curve" smooth="yes"/>
      <point x="93" y="76"/>
      <point x="87" y="101"/>
      <point x="87" y="155" type="curve" smooth="yes"/>
      <point x="87" y="221"/>
      <point x="96" y="254"/>
      <point x="104" y="254" type="curve" smooth="yes"/>
      <point x="113" y="254" type="line"/>
      <point x="113" y="211" type="line" smooth="yes"/>
      <point x="113" y="114"/>
      <point x="106" y="76"/>
    </contour>
    <contour>
      <point x="194" y="325" type="line"/>
      <point x="194" y="421"/>
      <point x="196" y="465"/>
      <point x="205" y="465" type="curve" smooth="yes"/>
      <point x="213" y="465"/>
      <point x="217" y="420"/>
      <point x="217" y="325" type="curve"/>
    </contour>
  </outline>
</glyph>
<glyph name="eth" format="2">
  <advance width="300"/>
  <unicode hex="00F0"/>
  <anchor x="150" y="0" name="bottom"/>
  <anchor x="150" y="273" name="center"/>
  <anchor x="150" y="766" name="top"/>
  <anchor x="279" y="760" name="topright"/>
  <outline>
    <contour>
      <point x="152" y="-10" type="curve" smooth="yes"/>
      <point x="238" y="-10"/>
      <point x="289" y="90"/>
      <point x="289" y="273" type="curve" smooth="yes"/>
      <point x="289" y="487"/>
      <point x="218" y="676"/>
      <point x="114" y="766" type="curve"/>
      <point x="68" y="698" type="line"/>
      <point x="90" y="645"/>
      <point x="143" y="549"/>
      <point x="155" y="450" type="curve"/>
      <point x="154" y="448" type="line"/>
      <point x="142" y="472"/>
      <point x="135" y="483"/>
      <point x="126" y="483" type="curve" smooth="yes"/>
      <point x="63" y="483"/>
      <point x="11" y="393"/>
      <point x="11" y="238" type="curve" smooth="yes"/>
      <point x="11" y="92"/>
      <point x="70" y="-10"/>
    </contour>
    <contour>
      <point x="154" y="87" type="curve" smooth="yes"/>
      <point x="127" y="87"/>
      <point x="125" y="146"/>
      <point x="125" y="236" type="curve" smooth="yes"/>
      <point x="125" y="335"/>
      <point x="126" y="386"/>
      <point x="147" y="386" type="curve" smooth="yes"/>
      <point x="167" y="386"/>
      <point x="176" y="327"/>
      <point x="176" y="243" type="curve" smooth="yes"/>
      <point x="176" y="142"/>
      <point x="175" y="87"/>
    </contour>
    <contour>
      <point x="105" y="539" type="line"/>
      <point x="244" y="706" type="line"/>
      <point x="201" y="766" type="line"/>
      <point x="62" y="600" type="line"/>
    </contour>
  </outline>
</glyph>
<glyph name="divide" format="2">
  <advance width="300"/>
  <unicode hex="00F7"/>
  <outline>
    <contour>
      <point x="40" y="307" type="line"/>
      <point x="259" y="307" type="line"/>
      <point x="259" y="400" type="line"/>
      <point x="40" y="400" type="line"/>
    </contour>
    <contour>
      <point x="151" y="95" type="curve" smooth="yes"/>
      <point x="180" y="95"/>
      <point x="203" y="120"/>
      <point x="203" y="167" type="curve" smooth="yes"/>
      <point x="203" y="213"/>
      <point x="183" y="238"/>
      <point x="151" y="238" type="curve" smooth="yes"/>
      <point x="116" y="238"/>
      <point x="96" y="213"/>
      <point x="96" y="167" type="curve" smooth="yes"/>
      <point x="96" y="120"/>
      <point x="119" y="95"/>
    </contour>
    <contour>
      <point x="151" y="467" type="curve" smooth="yes"/>
      <point x="180" y="467"/>
      <point x="203" y="492"/>
      <point x="203" y="539" type="curve" smooth="yes"/>
      <point x="203" y="585"/>
      <point x="183" y="610"/>
      <point x="151" y="610" type="curve" smooth="yes"/>
      <point x="116" y="610"/>
      <point x="96" y="585"/>
      <point x="96" y="539" type="curve" smooth="yes"/>
      <point x="96" y="492"/>
      <point x="119" y="467"/>
    </contour>
  </outline>
</glyph>
<glyph name="oslash" format="2">
  <advance width="300"/>
  <unicode hex="00F8"/>
  <anchor x="150" y="0" name="bottom"/>
  <anchor x="150" y="545" name="top"/>
  <anchor x="161" y="10" name="ogonek"/>
  <anchor x="299" y="545" name="topright"/>
  <anchor x="160" y="273" name="center"/>
  <outline>
    <contour>
      <point x="110" y="-55" type="line"/>
      <point x="259" y="554" type="line"/>
      <point x="201" y="586" type="line"/>
      <point x="53" y="-22" type="line"/>
    </contour>
    <component base="o" xOffset="10"/>
  </outline>
</glyph>
<glyph name="dcaron" format="2">
  <advance width="300"/>
  <unicode hex="010F"/>
  <anchor x="133" y="0" name="bottom"/>
  <anchor x="133" y="273" name="center"/>
  <anchor x="134" y="760" name="top"/>
  <anchor x="262" y="760" name="topright"/>
  <outline>
    <contour>
      <point x="99" y="-10" type="curve" smooth="yes"/>
      <point x="119" y="-10"/>
      <point x="140" y="22"/>
      <point x="155" y="73" type="curve"/>
      <point x="160" y="73" type="line"/>
      <point x="172" y="0" type="line"/>
      <point x="265" y="0" type="line"/>
      <point x="265" y="760" type="line"/>
      <point x="152" y="760" type="line"/>
      <point x="152" y="570" type="line" smooth="yes"/>
      <point x="152" y="537"/>
      <point x="156" y="503"/>
      <point x="159" y="476" type="curve"/>
      <point x="153" y="476" type="line"/>
      <point x="134" y="529"/>
      <point x="115" y="555"/>
      <point x="101" y="555" type="curve" smooth="yes"/>
      <point x="43" y="555"/>
      <point x="5" y="450"/>
      <point x="5" y="270" type="curve" smooth="yes"/>
      <point x="5" y="97"/>
      <point x="41" y="-10"/>
    </contour>
    <contour>
      <point x="136" y="96" type="curve" smooth="yes"/>
      <point x="120" y="96"/>
      <point x="119" y="153"/>
      <point x="119" y="269" type="curve" smooth="yes"/>
      <point x="119" y="387"/>
      <point x="116" y="449"/>
      <point x="137" y="449" type="curve" smooth="yes"/>
      <point x="150" y="449"/>
      <point x="154" y="399"/>
      <point x="154" y="277" type="curve" smooth="yes"/>
      <point x="154" y="259" type="line" smooth="yes"/>
      <point x="154" y="149"/>
      <point x="148" y="96"/>
    </contour>
    <component base="caroncommaaccent" xOffset="177"/>
  </outline>
</glyph>
<glyph name="dcroat" format="2">
  <advance width="300"/>
  <unicode hex="0111"/>
  <anchor x="149" y="0" name="bottom"/>
  <anchor x="149" y="273" name="center"/>
  <anchor x="149" y="760" name="top"/>
  <anchor x="278" y="760" name="topright"/>
  <outline>
    <contour>
      <point x="114" y="-10" type="curve" smooth="yes"/>
      <point x="132" y="-10"/>
      <point x="155" y="22"/>
      <point x="172" y="73" type="curve"/>
      <point x="178" y="73" type="line"/>
      <point x="190" y="0" type="line"/>
      <point x="283" y="0" type="line"/>
      <point x="283" y="760" type="line"/>
      <point x="170" y="760" type="line"/>
      <point x="170" y="568" type="line" smooth="yes"/>
      <point x="170" y="527"/>
      <point x="175" y="488"/>
      <point x="177" y="463" type="curve"/>
      <point x="171" y="463" type="line"/>
      <point x="150" y="514"/>
      <point x="129" y="543"/>
      <point x="113" y="543" type="curve" smooth="yes"/>
      <point x="51" y="543"/>
      <point x="11" y="440"/>
      <point x="11" y="264" type="curve" smooth="yes"/>
      <point x="11" y="94"/>
      <point x="51" y="-10"/>
    </contour>
    <contour>
      <point x="154" y="96" type="curve" smooth="yes"/>
      <point x="134" y="96"/>
      <point x="128" y="150"/>
      <point x="128" y="260" type="curve" smooth="yes"/>
      <point x="128" y="375"/>
      <point x="131" y="437"/>
      <point x="155" y="437" type="curve" smooth="yes"/>
      <point x="174" y="437"/>
      <point x="172" y="381"/>
      <point x="172" y="264" type="curve" smooth="yes"/>
      <point x="172" y="246" type="line" smooth="yes"/>
      <point x="172" y="146"/>
      <point x="165" y="96"/>
    </contour>
    <contour>
      <point x="114" y="593" type="line"/>
      <point x="290" y="593" type="line"/>
      <point x="290" y="677" type="line"/>
      <point x="114" y="677" type="line"/>
    </contour>
  </outline>
</glyph>
<glyph name="eogonek" format="2">
  <advance width="300"/>
  <unicode hex="0119"/>
  <anchor x="146" y="-232" name="bottom"/>
  <anchor x="140" y="545" name="top"/>
  <anchor x="157" y="10" name="ogonek"/>
  <anchor x="288" y="545" name="topright"/>
  <outline>
    <contour>
      <point x="225" y="-232" type="curve" smooth="yes"/>
      <point x="241" y="-232"/>
      <point x="254" y="-227"/>
      <point x="262" y="-221" type="curve"/>
      <point x="262" y="-148" type="line"/>
      <point x="259" y="-152"/>
      <point x="257" y="-156"/>
      <point x="251" y="-156" type="curve" smooth="yes"/>
      <point x="240" y="-156"/>
      <point x="233" y="-135"/>
      <point x="233" y="-102" type="curve" smooth="yes"/>
      <point x="233" y="-64"/>
      <point x="225" y="-22"/>
      <point x="258" y="29" type="curve"/>
      <point x="209" y="43" type="line"/>
      <point x="179" y="4"/>
      <point x="151" y="-44"/>
      <point x="151" y="-120" type="curve" smooth="yes"/>
      <point x="151" y="-186"/>
      <point x="171" y="-232"/>
    </contour>
    <component base="e"/>
  </outline>
</glyph>
<glyph name="Hbar" format="2">
  <advance width="300"/>
  <unicode hex="0126"/>
  <anchor x="150" y="0" name="bottom"/>
  <anchor x="150" y="357" name="center"/>
  <anchor x="150" y="714" name="top"/>
  <anchor x="21" y="714" name="topleft"/>
  <outline>
    <contour>
      <point x="10" y="525" type="line"/>
      <point x="290" y="525" type="line"/>
      <point x="290" y="611" type="line"/>
      <point x="10" y="611" type="line"/>
    </contour>
    <contour>
      <point x="19" y="0" type="line"/>
      <point x="135" y="0" type="line"/>
      <point x="135" y="314" type="line"/>
      <point x="164" y="314" type="line"/>
      <point x="164" y="0" type="line"/>
      <point x="280" y="0" type="line"/>
      <point x="280" y="714" type="line"/>
      <point x="164" y="714" type="line"/>
      <point x="164" y="423" type="line"/>
      <point x="135" y="423" type="line"/>
      <point x="135" y="714" type="line"/>
      <point x="19" y="714" type="line"/>
    </contour>
  </outline>
</glyph>
<glyph name="IJ" format="2">
  <advance width="300"/>
  <unicode hex="0132"/>
  <anchor x="150" y="0" name="bottom"/>
  <anchor x="10" y="0" name="caret_1"/>
  <anchor x="150" y="714" name="top"/>
  <anchor x="22" y="714" name="topleft"/>
  <outline>
    <contour>
      <point x="120" y="-10" type="curve" smooth="yes"/>
      <point x="218" y="-10"/>
      <point x="277" y="84"/>
      <point x="277" y="236" type="curve" smooth="yes"/>
      <point x="277" y="714" type="line"/>
      <point x="162" y="714" type="line"/>
      <point x="162" y="262" type="line" smooth="yes"/>
      <point x="162" y="140"/>
      <point x="130" y="101"/>
      <point x="100" y="101" type="curve" smooth="yes"/>
      <point x="88" y="101"/>
      <point x="59" y="113"/>
      <point x="34" y="124" type="curve"/>
      <point x="34" y="15" type="line"/>
      <point x="65" y="-1"/>
      <point x="99" y="-10"/>
    </contour>
    <contour>
      <point x="33" y="202" type="line"/>
      <point x="148" y="202" type="line"/>
      <point x="148" y="714" type="line"/>
      <point x="33" y="714" type="line"/>
    </contour>
  </outline>
</glyph>
<glyph name="kgreenlandic" format="2">
  <advance width="300"/>
  <unicode hex="0138"/>
  <anchor x="150" y="0" name="bottom"/>
  <anchor x="150" y="545" name="top"/>
  <outline>
    <contour>
      <point x="1" y="0" type="line"/>
      <point x="114" y="0" type="line"/>
      <point x="114" y="186" type="line"/>
      <point x="116" y="217" type="line"/>
      <point x="160" y="0" type="line"/>
      <point x="297" y="0" type="line"/>
      <point x="196" y="295" type="line"/>
      <point x="299" y="545" type="line"/>
      <point x="165" y="545" type="line"/>
      <point x="133" y="370" type="line" smooth="yes"/>
      <point x="128" y="343"/>
      <point x="116" y="320"/>
      <point x="107" y="294" type="curve"/>
      <point x="106" y="294" type="line"/>
      <point x="110" y="341"/>
      <point x="114" y="386"/>
      <point x="114" y="432" type="curve" smooth="yes"/>
      <point x="114" y="545" type="line"/>
      <point x="1" y="545" type="line"/>
    </contour>
  </outline>
</glyph>
<glyph name="Lslash" format="2">
  <advance width="300"/>
  <unicode hex="0141"/>
  <anchor x="171" y="0" name="bottom"/>
  <anchor x="99" y="714" name="top"/>
  <anchor x="221" y="714" name="topright"/>
  <anchor x="150" y="357" name="center"/>
  <outline>
    <contour>
      <point x="2" y="251" type="line"/>
      <point x="227" y="447" type="line"/>
      <point x="227" y="546" type="line"/>
      <point x="2" y="350" type="line"/>
    </contour>
    <component base="L"/>
  </outline>
</glyph>
<glyph name="lslash" format="2">
  <advance width="300"/>
  <unicode hex="0142"/>
  <anchor x="149" y="0" name="bottom"/>
  <anchor x="149" y="760" name="top"/>
  <anchor x="265" y="760" name="topright"/>
  <anchor x="162" y="382" name="center"/>
  <outline>
    <contour>
      <point x="47" y="251" type="line"/>
      <point x="272" y="447" type="line"/>
      <point x="272" y="546" type="line"/>
      <point x="47" y="350" type="line"/>
    </contour>
    <component base="l" xOffset="10"/>
  </outline>
</glyph>
<glyph name="eng" format="2">
  <advance width="300"/>
  <unicode hex="014B"/>
  <anchor x="140" y="-240" name="bottom"/>
  <anchor x="148" y="545" name="top"/>
  <anchor x="291" y="545" name="topright"/>
  <outline>
    <contour>
      <point x="165" y="-240" type="curve" smooth="yes"/>
      <point x="245" y="-240"/>
      <point x="275" y="-167"/>
      <point x="275" y="-67" type="curve" smooth="yes"/>
      <point x="276" y="309" type="line"/>
      <point x="171" y="266" type="line" smooth="yes"/>
      <point x="171" y="27" type="line" smooth="yes"/>
      <point x="170" y="-129"/>
      <point x="147" y="-140"/>
      <point x="139" y="-140" type="curve" smooth="yes"/>
      <point x="132" y="-140"/>
      <point x="128" y="-137"/>
      <point x="119" y="-131" type="curve"/>
      <point x="119" y="-230" type="line"/>
      <point x="135" y="-237"/>
      <point x="149" y="-240"/>
    </contour>
    <component base="n"/>
  </outline>
</glyph>
<glyph name="Tbar" format="2">
  <advance width="300"/>
  <unicode hex="0166"/>
  <anchor x="139" y="0" name="bottom"/>
  <anchor x="139" y="714" name="top"/>
  <anchor x="278" y="714" name="topright"/>
  <anchor x="150" y="357" name="center"/>
  <outline>
    <contour>
      <point x="62" y="309" type="line"/>
      <point x="240" y="309" type="line"/>
      <point x="240" y="401" type="line"/>
      <point x="62" y="401" type="line"/>
    </contour>
    <component base="T"/>
  </outline>
</glyph>
<glyph name="Uogonek" format="2">
  <advance width="300"/>
  <unicode hex="0172"/>
  <anchor x="168" y="-232" name="bottom"/>
  <anchor x="140" y="714" name="top"/>
  <anchor x="262" y="10" name="ogonek"/>
  <anchor x="279" y="714" name="topright"/>
  <outline>
    <contour>
      <point x="167" y="-232" type="curve" smooth="yes"/>
      <point x="187" y="-232"/>
      <point x="200" y="-227"/>
      <point x="210" y="-221" type="curve"/>
      <point x="210" y="-148" type="line"/>
      <point x="205" y="-152"/>
      <point x="203" y="-156"/>
      <point x="195" y="-156" type="curve" smooth="yes"/>
      <point x="180" y="-156"/>
      <point x="174" y="-138"/>
      <point x="174" y="-110" type="curve" smooth="yes"/>
      <point x="174" y="-64"/>
      <point x="191" y="-26"/>
      <point x="223" y="16" type="curve"/>
      <point x="170" y="30" type="line"/>
      <point x="125" y="-6"/>
      <point x="92" y="-65"/>
      <point x="92" y="-135" type="curve" smooth="yes"/>
      <point x="92" y="-195"/>
      <point x="115" y="-232"/>
    </contour>
    <component base="U"/>
  </outline>
</glyph>
<glyph name="longs" format="2">
  <advance width="300"/>
  <unicode hex="017F"/>
  <anchor x="150" y="0" name="bottom"/>
  <anchor x="171" y="765" name="top"/>
  <outline>
    <contour>
      <point x="73" y="0" type="line"/>
      <point x="190" y="0" type="line"/>
      <point x="190" y="558" type="line" smooth="yes"/>
      <point x="190" y="641"/>
      <point x="195" y="666"/>
      <point x="202" y="666" type="curve" smooth="yes"/>
      <point x="214" y="666"/>
      <point x="225" y="661"/>
      <point x="237" y="655" type="curve"/>
      <point x="262" y="746" type="line"/>
      <point x="231" y="760"/>
      <point x="210" y="765"/>
      <point x="185" y="765" type="curve" smooth="yes"/>
      <point x="108" y="765"/>
      <point x="73" y="706"/>
      <point x="73" y="568" type="curve" smooth="yes"/>
    </contour>
  </outline>
</glyph>
<glyph name="uni0183" format="2">
  <advance width="300"/>
  <unicode hex="0183"/>
  <anchor x="149" y="0" name="bottom"/>
  <anchor x="149" y="760" name="top"/>
  <anchor x="289" y="760" name="topright"/>
  <outline>
    <contour>
      <point x="77" y="658" type="line"/>
      <point x="252" y="658" type="line"/>
      <point x="252" y="760" type="line"/>
      <point x="77" y="760" type="line"/>
    </contour>
    <component base="b" xOffset="10"/>
  </outline>
</glyph>
<glyph name="uni0184" format="2">
  <advance width="300"/>
  <unicode hex="0184"/>
  <anchor x="150" y="0" name="bottom"/>
  <anchor x="150" y="760" name="top"/>
  <outline>
    <contour>
      <point x="146" y="-9" type="curve"/>
      <point x="232" y="-9"/>
      <point x="275" y="79"/>
      <point x="275" y="218" type="curve" smooth="yes"/>
      <point x="275" y="354"/>
      <point x="243" y="434"/>
      <point x="151" y="434" type="curve" smooth="yes"/>
      <point x="135" y="434" type="line"/>
      <point x="135" y="714" type="line"/>
      <point x="20" y="714" type="line"/>
      <point x="20" y="212" type="line" smooth="yes"/>
      <point x="20" y="59"/>
      <point x="54" y="-9"/>
    </contour>
    <contour>
      <point x="149" y="97" type="curve"/>
      <point x="130" y="97"/>
      <point x="135" y="129"/>
      <point x="135" y="218" type="curve" smooth="yes"/>
      <point x="135" y="332" type="line"/>
      <point x="142" y="332" type="line" smooth="yes"/>
      <point x="153" y="332"/>
      <point x="160" y="301"/>
      <point x="160" y="215" type="curve" smooth="yes"/>
      <point x="160" y="131"/>
      <point x="155" y="97"/>
    </contour>
  </outline>
</glyph>
<glyph name="uni0187" format="2">
  <advance width="300"/>
  <unicode hex="0187"/>
  <anchor x="162" y="0" name="bottom"/>
  <anchor x="162" y="876" name="top"/>
  <anchor x="288" y="714" name="topright"/>
  <outline>
    <contour>
      <point x="186" y="681" type="line"/>
      <point x="286" y="681" type="line"/>
      <point x="286" y="714" type="line" smooth="yes"/>
      <point x="286" y="760"/>
      <point x="296" y="773"/>
      <point x="310" y="773" type="curve" smooth="yes"/>
      <point x="318" y="773"/>
      <point x="324" y="768"/>
      <point x="331" y="765" type="curve"/>
      <point x="331" y="865" type="line"/>
      <point x="323" y="870"/>
      <point x="311" y="876"/>
      <point x="285" y="876" type="curve" smooth="yes"/>
      <point x="239" y="876"/>
      <point x="186" y="837"/>
      <point x="186" y="741" type="curve" smooth="yes"/>
    </contour>
    <component base="C" xOffset="10"/>
  </outline>
</glyph>
<glyph name="uni0188" format="2">
  <advance width="300"/>
  <unicode hex="0188"/>
  <anchor x="149" y="0" name="bottom"/>
  <anchor x="149" y="766" name="top"/>
  <anchor x="288" y="545" name="topright"/>
  <outline>
    <contour>
      <point x="185" y="519" type="line"/>
      <point x="282" y="519" type="line"/>
      <point x="282" y="616" type="line" smooth="yes"/>
      <point x="282" y="656"/>
      <point x="290" y="670"/>
      <point x="301" y="670" type="curve" smooth="yes"/>
      <point x="314" y="670"/>
      <point x="326" y="663"/>
      <point x="329" y="659" type="curve"/>
      <point x="329" y="751" type="line"/>
      <point x="324" y="757"/>
      <point x="306" y="766"/>
      <point x="280" y="766" type="curve" smooth="yes"/>
      <point x="229" y="766"/>
      <point x="185" y="722"/>
      <point x="185" y="621" type="curve" smooth="yes"/>
    </contour>
    <component base="c" xOffset="10"/>
  </outline>
</glyph>
<glyph name="uni018A" format="2">
  <advance width="300"/>
  <unicode hex="018A"/>
  <anchor x="150" y="0" name="bottom"/>
  <anchor x="150" y="714" name="top"/>
  <outline>
    <contour>
      <point x="88" y="0" type="line"/>
      <point x="172" y="0" type="line" smooth="yes"/>
      <point x="253" y="0"/>
      <point x="283" y="122"/>
      <point x="283" y="368" type="curve" smooth="yes"/>
      <point x="283" y="598"/>
      <point x="255" y="714"/>
      <point x="176" y="714" type="curve" smooth="yes"/>
      <point x="88" y="714" type="line"/>
    </contour>
    <contour>
      <point x="175" y="91" type="line"/>
      <point x="175" y="623" type="line"/>
      <point x="173" y="623" type="line" smooth="yes"/>
      <point x="192" y="623"/>
      <point x="196" y="545"/>
      <point x="196" y="364" type="curve" smooth="yes"/>
      <point x="196" y="179"/>
      <point x="188" y="91"/>
      <point x="173" y="91" type="curve" smooth="yes"/>
    </contour>
    <contour>
      <point x="15" y="507" type="curve"/>
      <point x="76" y="507" type="line"/>
      <point x="74" y="517"/>
      <point x="73" y="540"/>
      <point x="73" y="568" type="curve" smooth="yes"/>
      <point x="73" y="607"/>
      <point x="78" y="627"/>
      <point x="93" y="627" type="curve" smooth="yes"/>
      <point x="110" y="627" type="line"/>
      <point x="110" y="714" type="line"/>
      <point x="98" y="714" type="line"/>
      <point x="36" y="714"/>
      <point x="10" y="660"/>
      <point x="10" y="575" type="curve" smooth="yes"/>
      <point x="10" y="545"/>
      <point x="13" y="519"/>
    </contour>
  </outline>
</glyph>
<glyph name="florin" format="2">
  <advance width="300"/>
  <unicode hex="0192"/>
  <anchor x="147" y="-240" name="bottom"/>
  <anchor x="202" y="724" name="top"/>
  <outline>
    <contour>
      <point x="91" y="-240" type="curve" smooth="yes"/>
      <point x="177" y="-240"/>
      <point x="209" y="-177"/>
      <point x="209" y="-44" type="curve" smooth="yes"/>
      <point x="209" y="392" type="line"/>
      <point x="274" y="392" type="line"/>
      <point x="274" y="486" type="line"/>
      <point x="209" y="486" type="line"/>
      <point x="209" y="537" type="line" smooth="yes"/>
      <point x="209" y="602"/>
      <point x="216" y="628"/>
      <point x="230" y="628" type="curve" smooth="yes"/>
      <point x="238" y="628"/>
      <point x="244" y="623"/>
      <point x="256" y="615" type="curve"/>
      <point x="280" y="701" type="line"/>
      <point x="250" y="718"/>
      <point x="231" y="724"/>
      <point x="205" y="724" type="curve" smooth="yes"/>
      <point x="133" y="724"/>
      <point x="99" y="666"/>
      <point x="99" y="532" type="curve" smooth="yes"/>
      <point x="99" y="487" type="line"/>
      <point x="42" y="453" type="line"/>
      <point x="42" y="392" type="line"/>
      <point x="99" y="392" type="line"/>
      <point x="99" y="-59" type="line" smooth="yes"/>
      <point x="99" y="-117"/>
      <point x="91" y="-144"/>
      <point x="67" y="-144" type="curve" smooth="yes"/>
      <point x="59" y="-144"/>
      <point x="50" y="-141"/>
      <point x="38" y="-134" type="curve"/>
      <point x="38" y="-230" type="line"/>
      <point x="53" y="-236"/>
      <point x="69" y="-240"/>
    </contour>
  </outline>
</glyph>
<glyph name="uni0194" format="2">
  <advance width="300"/>
  <unicode hex="0194"/>
  <anchor x="150" y="-240" name="bottom"/>
  <anchor x="150" y="714" name="top"/>
  <outline>
    <contour>
      <point x="148" y="-240" type="curve" smooth="yes"/>
      <point x="228" y="-240"/>
      <point x="262" y="-179"/>
      <point x="262" y="-89" type="curve" smooth="yes"/>
      <point x="262" y="-24"/>
      <point x="248" y="45"/>
      <point x="221" y="133" type="curve"/>
      <point x="295" y="714" type="line"/>
      <point x="166" y="714" type="line"/>
      <point x="167" y="397" type="line" smooth="yes"/>
      <point x="167" y="352"/>
      <point x="152" y="276"/>
      <point x="150" y="237" type="curve"/>
      <point x="149" y="276"/>
      <point x="134" y="351"/>
      <point x="134" y="397" type="curve" smooth="yes"/>
      <point x="134" y="714" type="line"/>
      <point x="5" y="714" type="line"/>
      <point x="77" y="134" type="line"/>
      <point x="46" y="50"/>
      <point x="38" y="-21"/>
      <point x="38" y="-88" type="curve" smooth="yes"/>
      <point x="38" y="-182"/>
      <point x="73" y="-240"/>
    </contour>
    <contour>
      <point x="150" y="-158" type="curve" smooth="yes"/>
      <point x="150" y="-158"/>
      <point x="139" y="-137"/>
      <point x="139" y="-90" type="curve" smooth="yes"/>
      <point x="139" y="-56"/>
      <point x="137" y="-9"/>
      <point x="151" y="44" type="curve"/>
      <point x="161" y="-9"/>
      <point x="163" y="-57"/>
      <point x="163" y="-94" type="curve" smooth="yes"/>
      <point x="163" y="-138"/>
      <point x="152" y="-158"/>
    </contour>
  </outline>
</glyph>
<glyph name="uni019C" format="2">
  <advance width="300"/>
  <unicode hex="019C"/>
  <anchor x="150" y="0" name="bottom"/>
  <anchor x="150" y="357" name="center"/>
  <anchor x="150" y="714" name="top"/>
  <anchor x="21" y="714" name="topleft"/>
  <outline>
    <contour>
      <point x="64" y="-11" type="curve" smooth="yes"/>
      <point x="88" y="-11"/>
      <point x="100" y="15"/>
      <point x="114" y="62" type="curve"/>
      <point x="116" y="62" type="line"/>
      <point x="125" y="15"/>
      <point x="138" y="-11"/>
      <point x="160" y="-11" type="curve" smooth="yes"/>
      <point x="176" y="-11"/>
      <point x="192" y="10"/>
      <point x="203" y="57" type="curve"/>
      <point x="206" y="57" type="line"/>
      <point x="217" y="0" type="line"/>
      <point x="284" y="0" type="line"/>
      <point x="284" y="714" type="line"/>
      <point x="207" y="714" type="line"/>
      <point x="207" y="196" type="line" smooth="yes"/>
      <point x="207" y="133"/>
      <point x="210" y="72"/>
      <point x="196" y="72" type="curve" smooth="yes"/>
      <point x="183" y="72"/>
      <point x="187" y="101"/>
      <point x="187" y="154" type="curve" smooth="yes"/>
      <point x="187" y="714" type="line"/>
      <point x="112" y="714" type="line"/>
      <point x="112" y="189" type="line" smooth="yes"/>
      <point x="112" y="125"/>
      <point x="117" y="72"/>
      <point x="102" y="72" type="curve" smooth="yes"/>
      <point x="88" y="72"/>
      <point x="92" y="102"/>
      <point x="92" y="152" type="curve" smooth="yes"/>
      <point x="92" y="714" type="line"/>
      <point x="15" y="714" type="line"/>
      <point x="15" y="151" type="line" smooth="yes"/>
      <point x="15" y="40"/>
      <point x="21" y="-11"/>
    </contour>
  </outline>
</glyph>
<glyph name="uni01A2" format="2">
  <advance width="300"/>
  <unicode hex="01A2"/>
  <anchor x="65" y="0" name="bottom"/>
  <anchor x="75" y="10" name="ogonek"/>
  <anchor x="175" y="714" name="top"/>
  <anchor x="-68" y="714" name="topleft"/>
  <anchor x="424" y="714" name="topright"/>
  <outline>
    <contour>
      <point x="64" y="-10" type="curve" smooth="yes"/>
      <point x="177" y="-10"/>
      <point x="233" y="139"/>
      <point x="233" y="357" type="curve" smooth="yes"/>
      <point x="233" y="549"/>
      <point x="185" y="725"/>
      <point x="65" y="725" type="curve" smooth="yes"/>
      <point x="-35" y="725"/>
      <point x="-101" y="604"/>
      <point x="-101" y="358" type="curve" smooth="yes"/>
      <point x="-101" y="142"/>
      <point x="-48" y="-10"/>
    </contour>
    <contour>
      <point x="64" y="96" type="curve" smooth="yes"/>
      <point x="34" y="96"/>
      <point x="20" y="185"/>
      <point x="20" y="357" type="curve" smooth="yes"/>
      <point x="20" y="531"/>
      <point x="34" y="621"/>
      <point x="65" y="621" type="curve" smooth="yes"/>
      <point x="98" y="621"/>
      <point x="112" y="535"/>
      <point x="112" y="360" type="curve" smooth="yes"/>
      <point x="112" y="181"/>
      <point x="94" y="96"/>
    </contour>
    <contour>
      <point x="286" y="0" type="line"/>
      <point x="401" y="0" type="line"/>
      <point x="401" y="501" type="line" smooth="yes"/>
      <point x="401" y="664"/>
      <point x="352" y="724"/>
      <point x="284" y="724" type="curve" smooth="yes"/>
      <point x="243" y="724"/>
      <point x="201" y="689"/>
      <point x="157" y="619" type="curve"/>
      <point x="191" y="551" type="line"/>
      <point x="209" y="592"/>
      <point x="227" y="620"/>
      <point x="242" y="620" type="curve" smooth="yes"/>
      <point x="275" y="620"/>
      <point x="286" y="579"/>
      <point x="286" y="478" type="curve" smooth="yes"/>
    </contour>
  </outline>
</glyph>
<glyph name="uni01A4" format="2">
  <advance width="300"/>
  <unicode hex="01A4"/>
  <anchor x="171" y="0" name="bottom"/>
  <anchor x="171" y="714" name="top"/>
  <outline>
    <contour>
      <point x="87" y="0" type="line"/>
      <point x="180" y="0" type="line"/>
      <point x="180" y="272" type="line"/>
      <point x="171" y="272" type="line" smooth="yes"/>
      <point x="251" y="272"/>
      <point x="282" y="367"/>
      <point x="282" y="501" type="curve" smooth="yes"/>
      <point x="282" y="638"/>
      <point x="250" y="714"/>
      <point x="178" y="714" type="curve" smooth="yes"/>
      <point x="97" y="714" type="line" smooth="yes"/>
      <point x="31" y="714"/>
      <point x="11" y="657"/>
      <point x="11" y="575" type="curve" smooth="yes"/>
      <point x="11" y="545"/>
      <point x="14" y="519"/>
      <point x="16" y="507" type="curve"/>
      <point x="79" y="507" type="line"/>
      <point x="78" y="517"/>
      <point x="76" y="540"/>
      <point x="76" y="568" type="curve" smooth="yes"/>
      <point x="76" y="603"/>
      <point x="77" y="629"/>
      <point x="87" y="630" type="curve"/>
    </contour>
    <contour>
      <point x="180" y="360" type="line"/>
      <point x="180" y="630" type="line"/>
      <point x="176" y="630" type="line" smooth="yes"/>
      <point x="187" y="630"/>
      <point x="192" y="588"/>
      <point x="192" y="496" type="curve" smooth="yes"/>
      <point x="192" y="397"/>
      <point x="185" y="360"/>
      <point x="170" y="360" type="curve" smooth="yes"/>
    </contour>
  </outline>
</glyph>
<glyph name="uni01A5" format="2">
  <advance width="300"/>
  <unicode hex="01A5"/>
  <anchor x="161" y="-240" name="bottom"/>
  <anchor x="161" y="765" name="top"/>
  <outline>
    <contour>
      <point x="17" y="-240" type="line"/>
      <point x="131" y="-240" type="line"/>
      <point x="131" y="-37" type="line" smooth="yes"/>
      <point x="131" y="-6"/>
      <point x="127" y="41"/>
      <point x="124" y="62" type="curve"/>
      <point x="131" y="62" type="line"/>
      <point x="154" y="19"/>
      <point x="174" y="-10"/>
      <point x="194" y="-10" type="curve" smooth="yes"/>
      <point x="243" y="-10"/>
      <point x="289" y="93"/>
      <point x="289" y="274" type="curve" smooth="yes"/>
      <point x="289" y="441"/>
      <point x="256" y="555"/>
      <point x="194" y="555" type="curve" smooth="yes"/>
      <point x="169" y="555"/>
      <point x="147" y="522"/>
      <point x="130" y="472" type="curve"/>
      <point x="125" y="472" type="line"/>
      <point x="129" y="504"/>
      <point x="131" y="526"/>
      <point x="131" y="560" type="curve" smooth="yes"/>
      <point x="131" y="601" type="line" smooth="yes"/>
      <point x="131" y="645"/>
      <point x="133" y="662"/>
      <point x="149" y="662" type="curve" smooth="yes"/>
      <point x="155" y="662"/>
      <point x="163" y="659"/>
      <point x="172" y="654" type="curve"/>
      <point x="172" y="755" type="line"/>
      <point x="161" y="760"/>
      <point x="134" y="765"/>
      <point x="121" y="765" type="curve" smooth="yes"/>
      <point x="45" y="765"/>
      <point x="17" y="703"/>
      <point x="17" y="597" type="curve" smooth="yes"/>
    </contour>
    <contour>
      <point x="156" y="96" type="curve" smooth="yes"/>
      <point x="132" y="96"/>
      <point x="131" y="151"/>
      <point x="131" y="273" type="curve" smooth="yes"/>
      <point x="131" y="291" type="line" smooth="yes"/>
      <point x="131" y="398"/>
      <point x="136" y="449"/>
      <point x="152" y="449" type="curve" smooth="yes"/>
      <point x="165" y="449"/>
      <point x="168" y="392"/>
      <point x="168" y="274" type="curve" smooth="yes"/>
      <point x="168" y="158"/>
      <point x="172" y="96"/>
    </contour>
  </outline>
</glyph>
<glyph name="uni01A6" format="2">
  <advance width="300"/>
  <unicode hex="01A6"/>
  <anchor x="159" y="-99" name="bottom"/>
  <anchor x="159" y="714" name="top"/>
  <outline>
    <contour>
      <point x="183" y="-99" type="line"/>
      <point x="282" y="-99" type="line"/>
      <point x="216" y="213" type="line"/>
      <point x="254" y="250"/>
      <point x="268" y="318"/>
      <point x="268" y="414" type="curve" smooth="yes"/>
      <point x="268" y="548"/>
      <point x="226" y="615"/>
      <point x="133" y="615" type="curve" smooth="yes"/>
      <point x="123" y="615" type="line"/>
      <point x="123" y="714" type="line"/>
      <point x="30" y="714" type="line"/>
      <point x="30" y="0" type="line"/>
      <point x="123" y="0" type="line"/>
      <point x="123" y="192" type="line"/>
      <point x="134" y="192" type="line"/>
    </contour>
    <contour>
      <point x="123" y="280" type="line"/>
      <point x="123" y="527" type="line"/>
      <point x="133" y="527" type="line" smooth="yes"/>
      <point x="165" y="527"/>
      <point x="176" y="491"/>
      <point x="176" y="407" type="curve" smooth="yes"/>
      <point x="176" y="320"/>
      <point x="162" y="280"/>
      <point x="129" y="280" type="curve" smooth="yes"/>
    </contour>
  </outline>
</glyph>
<glyph name="uni01AD" format="2">
  <advance width="300"/>
  <unicode hex="01AD"/>
  <anchor x="150" y="0" name="bottom"/>
  <anchor x="150" y="765" name="top"/>
  <outline>
    <contour>
      <point x="184" y="-10" type="curve" smooth="yes"/>
      <point x="213" y="-10"/>
      <point x="258" y="-3"/>
      <point x="288" y="11" type="curve"/>
      <point x="288" y="115" type="line"/>
      <point x="256" y="102"/>
      <point x="230" y="98"/>
      <point x="220" y="98" type="curve" smooth="yes"/>
      <point x="210" y="98"/>
      <point x="183" y="117"/>
      <point x="183" y="188" type="curve" smooth="yes"/>
      <point x="183" y="441" type="line"/>
      <point x="293" y="441" type="line"/>
      <point x="293" y="544" type="line"/>
      <point x="185" y="544" type="line"/>
      <point x="185" y="596" type="line" smooth="yes"/>
      <point x="185" y="645"/>
      <point x="184" y="663"/>
      <point x="188" y="663" type="curve" smooth="yes"/>
      <point x="189" y="663"/>
      <point x="193" y="660"/>
      <point x="200" y="655" type="curve"/>
      <point x="200" y="755" type="line"/>
      <point x="192" y="760"/>
      <point x="173" y="765"/>
      <point x="158" y="765" type="curve" smooth="yes"/>
      <point x="103" y="765"/>
      <point x="67" y="703"/>
      <point x="67" y="597" type="curve" smooth="yes"/>
      <point x="67" y="545" type="line"/>
      <point x="-2" y="504" type="line"/>
      <point x="-2" y="441" type="line"/>
      <point x="67" y="441" type="line"/>
      <point x="67" y="167" type="line" smooth="yes"/>
      <point x="67" y="40"/>
      <point x="128" y="-10"/>
    </contour>
  </outline>
</glyph>
<glyph name="uni01AE" format="2">
  <advance width="300"/>
  <unicode hex="01AE"/>
  <anchor x="181" y="-217" name="bottom"/>
  <anchor x="150" y="714" name="top"/>
  <outline>
    <contour>
      <point x="212" y="-217" type="curve" smooth="yes"/>
      <point x="228" y="-217"/>
      <point x="241" y="-214"/>
      <point x="257" y="-206" type="curve"/>
      <point x="257" y="-97" type="line"/>
      <point x="250" y="-103"/>
      <point x="243" y="-107"/>
      <point x="232" y="-107" type="curve" smooth="yes"/>
      <point x="207" y="-107"/>
      <point x="208" y="-76"/>
      <point x="208" y="-13" type="curve" smooth="yes"/>
      <point x="208" y="605" type="line"/>
      <point x="286" y="605" type="line"/>
      <point x="286" y="714" type="line"/>
      <point x="13" y="714" type="line"/>
      <point x="13" y="605" type="line"/>
      <point x="92" y="605" type="line"/>
      <point x="92" y="-21" type="line" smooth="yes"/>
      <point x="92" y="-159"/>
      <point x="126" y="-217"/>
    </contour>
  </outline>
</glyph>
<glyph name="uni01B4" format="2">
  <advance width="300"/>
  <unicode hex="01B4"/>
  <anchor x="150" y="-245" name="bottom"/>
  <anchor x="150" y="545" name="top"/>
  <outline>
    <contour>
      <point x="54" y="-245" type="curve" smooth="yes"/>
      <point x="133" y="-245"/>
      <point x="188" y="-183"/>
      <point x="202" y="-54" type="curve" smooth="yes"/>
      <point x="253" y="348" type="line" smooth="yes"/>
      <point x="263" y="427"/>
      <point x="272" y="440"/>
      <point x="287" y="440" type="curve" smooth="yes"/>
      <point x="293" y="440"/>
      <point x="296" y="438"/>
      <point x="301" y="435" type="curve"/>
      <point x="301" y="542" type="line"/>
      <point x="290" y="548"/>
      <point x="275" y="554"/>
      <point x="251" y="554" type="curve" smooth="yes"/>
      <point x="188" y="554"/>
      <point x="163" y="504"/>
      <point x="163" y="435" type="curve" smooth="yes"/>
      <point x="160" y="264" type="line" smooth="yes"/>
      <point x="159" y="222"/>
      <point x="151" y="177"/>
      <point x="151" y="145" type="curve"/>
      <point x="148" y="145" type="line"/>
      <point x="144" y="179"/>
      <point x="138" y="218"/>
      <point x="135" y="264" type="curve" smooth="yes"/>
      <point x="114" y="545" type="line"/>
      <point x="-13" y="545" type="line"/>
      <point x="98" y="-3" type="line"/>
      <point x="97" y="-44" type="line" smooth="yes"/>
      <point x="95" y="-128"/>
      <point x="60" y="-144"/>
      <point x="35" y="-144" type="curve" smooth="yes"/>
      <point x="26" y="-144"/>
      <point x="15" y="-141"/>
      <point x="8" y="-138" type="curve"/>
      <point x="8" y="-237" type="line"/>
      <point x="21" y="-242"/>
      <point x="38" y="-245"/>
    </contour>
  </outline>
</glyph>
<glyph name="uni01B5" format="2">
  <advance width="300"/>
  <unicode hex="01B5"/>
  <anchor x="145" y="0" name="bottom"/>
  <anchor x="145" y="714" name="top"/>
  <anchor x="289" y="714" name="topright"/>
  <outline>
    <contour>
      <point x="24" y="309" type="line"/>
      <point x="272" y="309" type="line"/>
      <point x="272" y="416" type="line"/>
      <point x="24" y="416" type="line"/>
    </contour>
    <component base="Z" xOffset="9"/>
  </outline>
</glyph>
<glyph name="uni01BB" format="2">
  <advance width="300"/>
  <unicode hex="01BB"/>
  <anchor x="146" y="0" name="bottom"/>
  <anchor x="154" y="714" name="top"/>
  <outline>
    <contour>
      <point x="4" y="306" type="line"/>
      <point x="257" y="306" type="line"/>
      <point x="257" y="395" type="line"/>
      <point x="4" y="395" type="line"/>
    </contour>
    <component base="two" xOffset="10"/>
  </outline>
</glyph>
<glyph name="uni01BC" format="2">
  <advance width="300"/>
  <unicode hex="01BC"/>
  <anchor x="149" y="0" name="bottom"/>
  <anchor x="149" y="714" name="top"/>
  <outline>
    <contour>
      <point x="140" y="-10" type="curve" smooth="yes"/>
      <point x="233" y="-10"/>
      <point x="285" y="84"/>
      <point x="285" y="236" type="curve" smooth="yes"/>
      <point x="285" y="366"/>
      <point x="255" y="454"/>
      <point x="182" y="454" type="curve" smooth="yes"/>
      <point x="183" y="454" type="line"/>
      <point x="183" y="605" type="line"/>
      <point x="279" y="605" type="line"/>
      <point x="279" y="714" type="line"/>
      <point x="16" y="714" type="line"/>
      <point x="16" y="605" type="line"/>
      <point x="64" y="605" type="line"/>
      <point x="64" y="353" type="line"/>
      <point x="130" y="353" type="line" smooth="yes"/>
      <point x="152" y="353"/>
      <point x="165" y="311"/>
      <point x="165" y="232" type="curve" smooth="yes"/>
      <point x="165" y="154"/>
      <point x="145" y="99"/>
      <point x="132" y="99" type="curve" smooth="yes"/>
      <point x="103" y="99"/>
      <point x="61" y="116"/>
      <point x="30" y="141" type="curve"/>
      <point x="30" y="24" type="line"/>
      <point x="63" y="1"/>
      <point x="100" y="-10"/>
    </contour>
  </outline>
</glyph>
<glyph name="uni01BE" format="2">
  <advance width="300"/>
  <unicode hex="01BE"/>
  <anchor x="161" y="0" name="bottom"/>
  <anchor x="148" y="681" name="top"/>
  <outline>
    <contour>
      <point x="131" y="-10" type="curve" smooth="yes"/>
      <point x="232" y="-10"/>
      <point x="281" y="55"/>
      <point x="281" y="159" type="curve" smooth="yes"/>
      <point x="281" y="248"/>
      <point x="255" y="283"/>
      <point x="203" y="320" type="curve" smooth="yes"/>
      <point x="187" y="331"/>
      <point x="182" y="349"/>
      <point x="182" y="382" type="curve" smooth="yes"/>
      <point x="182" y="441" type="line"/>
      <point x="293" y="441" type="line"/>
      <point x="293" y="545" type="line"/>
      <point x="183" y="545" type="line"/>
      <point x="183" y="681" type="line"/>
      <point x="113" y="681" type="line"/>
      <point x="75" y="546" type="line"/>
      <point x="-2" y="504" type="line"/>
      <point x="-2" y="441" type="line"/>
      <point x="66" y="441" type="line"/>
      <point x="66" y="349" type="line" smooth="yes"/>
      <point x="66" y="294"/>
      <point x="78" y="256"/>
      <point x="110" y="236" type="curve" smooth="yes"/>
      <point x="151" y="211"/>
      <point x="163" y="199"/>
      <point x="163" y="158" type="curve" smooth="yes"/>
      <point x="163" y="121"/>
      <point x="161" y="94"/>
      <point x="129" y="94" type="curve" smooth="yes"/>
      <point x="90" y="94"/>
      <point x="53" y="114"/>
      <point x="31" y="135" type="curve"/>
      <point x="31" y="24" type="line"/>
      <point x="56" y="4"/>
      <point x="86" y="-10"/>
    </contour>
  </outline>
</glyph>
<glyph name="uni01BF" format="2">
  <advance width="300"/>
  <unicode hex="01BF"/>
  <anchor x="162" y="-240" name="bottom"/>
  <anchor x="162" y="553" name="top"/>
  <outline>
    <contour>
      <point x="23" y="-240" type="line"/>
      <point x="136" y="-240" type="line"/>
      <point x="136" y="-10" type="line"/>
      <point x="184" y="-4"/>
      <point x="281" y="102"/>
      <point x="281" y="327" type="curve" smooth="yes"/>
      <point x="281" y="476"/>
      <point x="243" y="555"/>
      <point x="190" y="555" type="curve" smooth="yes"/>
      <point x="174" y="555"/>
      <point x="151" y="538"/>
      <point x="136" y="473" type="curve"/>
      <point x="131" y="473" type="line"/>
      <point x="114" y="545" type="line"/>
      <point x="23" y="545" type="line"/>
    </contour>
    <contour>
      <point x="136" y="95" type="curve"/>
      <point x="136" y="287" type="line"/>
      <point x="136" y="403"/>
      <point x="134" y="453"/>
      <point x="151" y="453" type="curve" smooth="yes"/>
      <point x="158" y="453"/>
      <point x="162" y="404"/>
      <point x="162" y="323" type="curve" smooth="yes"/>
      <point x="162" y="169"/>
      <point x="141" y="100"/>
    </contour>
  </outline>
</glyph>
<glyph name="uni01E4" format="2">
  <advance width="300"/>
  <unicode hex="01E4"/>
  <anchor x="185" y="0" name="bottom"/>
  <anchor x="182" y="714" name="top"/>
  <outline>
    <contour>
      <point x="175" y="-10" type="curve" smooth="yes"/>
      <point x="212" y="-10"/>
      <point x="241" y="1"/>
      <point x="285" y="29" type="curve"/>
      <point x="285" y="411" type="line"/>
      <point x="164" y="411" type="line"/>
      <point x="164" y="306" type="line"/>
      <point x="176" y="306" type="line"/>
      <point x="176" y="109" type="line"/>
      <point x="166" y="102"/>
      <point x="163" y="98"/>
      <point x="161" y="98" type="curve" smooth="yes"/>
      <point x="138" y="98"/>
      <point x="123" y="208"/>
      <point x="123" y="350" type="curve" smooth="yes"/>
      <point x="123" y="525"/>
      <point x="153" y="619"/>
      <point x="193" y="619" type="curve" smooth="yes"/>
      <point x="220" y="619"/>
      <point x="233" y="610"/>
      <point x="260" y="584" type="curve"/>
      <point x="293" y="681" type="line"/>
      <point x="267" y="709"/>
      <point x="235" y="726"/>
      <point x="186" y="726" type="curve" smooth="yes"/>
      <point x="78" y="726"/>
      <point x="6" y="582"/>
      <point x="6" y="348" type="curve" smooth="yes"/>
      <point x="6" y="128"/>
      <point x="61" y="-10"/>
    </contour>
    <contour>
      <point x="164" y="162" type="line"/>
      <point x="290" y="162" type="line"/>
      <point x="290" y="252" type="line"/>
      <point x="164" y="252" type="line"/>
    </contour>
  </outline>
</glyph>
<glyph name="uni01E5" format="2">
  <advance width="300"/>
  <unicode hex="01E5"/>
  <anchor x="149" y="-245" name="bottom"/>
  <anchor x="149" y="546" name="top"/>
  <outline>
    <contour>
      <point x="133" y="-240" type="curve" smooth="yes"/>
      <point x="225" y="-240"/>
      <point x="270" y="-179"/>
      <point x="280" y="-82" type="curve"/>
      <point x="305" y="-82" type="line"/>
      <point x="305" y="-10" type="line"/>
      <point x="283" y="-10" type="line"/>
      <point x="283" y="545" type="line"/>
      <point x="185" y="545" type="line"/>
      <point x="175" y="475" type="line"/>
      <point x="170" y="475" type="line"/>
      <point x="153" y="529"/>
      <point x="129" y="555"/>
      <point x="108" y="555" type="curve" smooth="yes"/>
      <point x="56" y="555"/>
      <point x="11" y="464"/>
      <point x="11" y="293" type="curve" smooth="yes"/>
      <point x="11" y="131"/>
      <point x="47" y="41"/>
      <point x="105" y="41" type="curve" smooth="yes"/>
      <point x="128" y="41"/>
      <point x="148" y="70"/>
      <point x="168" y="120" type="curve"/>
      <point x="172" y="120" type="line"/>
      <point x="169" y="94"/>
      <point x="168" y="61"/>
      <point x="168" y="39" type="curve" smooth="yes"/>
      <point x="168" y="-10" type="line"/>
      <point x="87" y="-10" type="line"/>
      <point x="87" y="-82" type="line"/>
      <point x="163" y="-82" type="line"/>
      <point x="157" y="-129"/>
      <point x="141" y="-148"/>
      <point x="127" y="-148" type="curve" smooth="yes"/>
      <point x="106" y="-148"/>
      <point x="79" y="-138"/>
      <point x="36" y="-112" type="curve"/>
      <point x="36" y="-207" type="line"/>
      <point x="66" y="-228"/>
      <point x="93" y="-240"/>
    </contour>
    <contour>
      <point x="155" y="146" type="curve" smooth="yes"/>
      <point x="141" y="146"/>
      <point x="134" y="191"/>
      <point x="134" y="293" type="curve" smooth="yes"/>
      <point x="134" y="395"/>
      <point x="144" y="450"/>
      <point x="154" y="450" type="curve" smooth="yes"/>
      <point x="163" y="450"/>
      <point x="171" y="402"/>
      <point x="171" y="308" type="curve" smooth="yes"/>
      <point x="171" y="284" type="line" smooth="yes"/>
      <point x="171" y="196"/>
      <point x="162" y="146"/>
    </contour>
  </outline>
</glyph>
<glyph name="uni01F6" format="2">
  <advance width="300"/>
  <unicode hex="01F6"/>
  <anchor x="150" y="0" name="bottom"/>
  <anchor x="150" y="357" name="center"/>
  <anchor x="150" y="714" name="top"/>
  <anchor x="22" y="714" name="topleft"/>
  <outline>
    <contour>
      <point x="193" y="-10" type="curve" smooth="yes"/>
      <point x="245" y="-10"/>
      <point x="271" y="47"/>
      <point x="271" y="119" type="curve" smooth="yes"/>
      <point x="271" y="541" type="line"/>
      <point x="193" y="541" type="line"/>
      <point x="193" y="118" type="line" smooth="yes"/>
      <point x="193" y="92"/>
      <point x="193" y="77"/>
      <point x="193" y="77" type="curve" smooth="yes"/>
      <point x="192" y="77"/>
      <point x="192" y="92"/>
      <point x="192" y="118" type="curve" smooth="yes"/>
      <point x="192" y="714" type="line"/>
      <point x="114" y="714" type="line"/>
      <point x="114" y="417" type="line"/>
      <point x="110" y="417" type="line"/>
      <point x="110" y="714" type="line"/>
      <point x="31" y="714" type="line"/>
      <point x="31" y="0" type="line"/>
      <point x="110" y="0" type="line"/>
      <point x="110" y="330" type="line"/>
      <point x="114" y="330" type="line"/>
      <point x="114" y="119" type="line" smooth="yes"/>
      <point x="114" y="47"/>
      <point x="135" y="-10"/>
    </contour>
  </outline>
</glyph>
<glyph name="uni01F7" format="2">
  <advance width="300"/>
  <unicode hex="01F7"/>
  <anchor x="167" y="-240" name="bottom"/>
  <anchor x="194" y="714" name="top"/>
  <outline>
    <contour>
      <point x="31" y="-240" type="line"/>
      <point x="146" y="-240" type="line"/>
      <point x="146" y="-2" type="line"/>
      <point x="221" y="59"/>
      <point x="285" y="217"/>
      <point x="285" y="449" type="curve" smooth="yes"/>
      <point x="285" y="631"/>
      <point x="258" y="724"/>
      <point x="197" y="724" type="curve" smooth="yes"/>
      <point x="176" y="724"/>
      <point x="158" y="696"/>
      <point x="144" y="641" type="curve"/>
      <point x="142" y="641" type="line"/>
      <point x="130" y="714" type="line"/>
      <point x="31" y="714" type="line"/>
    </contour>
    <contour>
      <point x="146" y="115" type="curve"/>
      <point x="146" y="474" type="line" smooth="yes"/>
      <point x="146" y="572"/>
      <point x="146" y="620"/>
      <point x="154" y="620" type="curve" smooth="yes"/>
      <point x="163" y="620"/>
      <point x="164" y="569"/>
      <point x="164" y="457" type="curve" smooth="yes"/>
      <point x="164" y="269"/>
      <point x="158" y="162"/>
    </contour>
  </outline>
</glyph>
<glyph name="uni021C" format="2">
  <advance width="300"/>
  <unicode hex="021C"/>
  <anchor x="150" y="-105" name="bottom"/>
  <anchor x="150" y="714" name="top"/>
  <outline>
    <contour>
      <point x="31" y="-180" type="line"/>
      <point x="199" y="-102"/>
      <point x="278" y="-1"/>
      <point x="278" y="185" type="curve" smooth="yes"/>
      <point x="278" y="280"/>
      <point x="260" y="336"/>
      <point x="235" y="371" type="curve"/>
      <point x="256" y="410"/>
      <point x="266" y="462"/>
      <point x="266" y="536" type="curve" smooth="yes"/>
      <point x="266" y="655"/>
      <point x="226" y="724"/>
      <point x="144" y="724" type="curve" smooth="yes"/>
      <point x="96" y="724"/>
      <point x="54" y="702"/>
      <point x="21" y="652" type="curve"/>
      <point x="66" y="565" type="line"/>
      <point x="82" y="599"/>
      <point x="110" y="620"/>
      <point x="126" y="620" type="curve" smooth="yes"/>
      <point x="143" y="620"/>
      <point x="149" y="596"/>
      <point x="149" y="532" type="curve" smooth="yes"/>
      <point x="149" y="457"/>
      <point x="143" y="420"/>
      <point x="69" y="380" type="curve"/>
      <point x="93" y="283" type="line"/>
      <point x="115" y="294"/>
      <point x="136" y="307"/>
      <point x="154" y="321" type="curve"/>
      <point x="155" y="291"/>
      <point x="159" y="253"/>
      <point x="159" y="187" type="curve" smooth="yes"/>
      <point x="159" y="80"/>
      <point x="152" y="5"/>
      <point x="31" y="-66" type="curve"/>
    </contour>
  </outline>
</glyph>
<glyph name="uni0221" format="2">
  <advance width="300"/>
  <unicode hex="0221"/>
  <anchor x="150" y="-103" name="bottom"/>
  <anchor x="150" y="760" name="top"/>
  <outline>
    <contour>
      <point x="207" y="-103" type="line"/>
      <point x="206" y="-69"/>
      <point x="209" y="-31"/>
      <point x="211" y="1" type="curve"/>
      <point x="208" y="-3"/>
      <point x="211" y="-4"/>
      <point x="209" y="-4" type="curve" smooth="yes"/>
      <point x="261" y="-4"/>
      <point x="284" y="55"/>
      <point x="284" y="126" type="curve" smooth="yes"/>
      <point x="284" y="194"/>
      <point x="261" y="237"/>
      <point x="230" y="237" type="curve" smooth="yes"/>
      <point x="213" y="237"/>
      <point x="192" y="209"/>
      <point x="181" y="153" type="curve"/>
      <point x="185" y="166"/>
      <point x="188" y="181"/>
      <point x="188" y="199" type="curve" smooth="yes"/>
      <point x="188" y="760" type="line"/>
      <point x="96" y="760" type="line"/>
      <point x="96" y="586" type="line" smooth="yes"/>
      <point x="96" y="560"/>
      <point x="96" y="546"/>
      <point x="97" y="514" type="curve"/>
      <point x="95" y="514" type="line"/>
      <point x="87" y="539"/>
      <point x="82" y="555"/>
      <point x="75" y="555" type="curve" smooth="yes"/>
      <point x="47" y="555"/>
      <point x="18" y="483"/>
      <point x="18" y="273" type="curve" smooth="yes"/>
      <point x="18" y="55"/>
      <point x="47" y="-10"/>
      <point x="77" y="-10" type="curve" smooth="yes"/>
      <point x="92" y="-10"/>
      <point x="107" y="14"/>
      <point x="117" y="68" type="curve"/>
      <point x="121" y="68" type="line"/>
      <point x="126" y="52"/>
      <point x="140" y="32"/>
      <point x="150" y="23" type="curve"/>
      <point x="148" y="-14"/>
      <point x="145" y="-56"/>
      <point x="143" y="-99" type="curve"/>
    </contour>
    <contour>
      <point x="102" y="84" type="curve" smooth="yes"/>
      <point x="109" y="84"/>
      <point x="113" y="116"/>
      <point x="113" y="274" type="curve" smooth="yes"/>
      <point x="113" y="433"/>
      <point x="117" y="462"/>
      <point x="100" y="462" type="curve" smooth="yes"/>
      <point x="101" y="462"/>
      <point x="96" y="438"/>
      <point x="96" y="286" type="curve" smooth="yes"/>
      <point x="96" y="255" type="line" smooth="yes"/>
      <point x="96" y="115"/>
      <point x="100" y="84"/>
    </contour>
    <contour>
      <point x="215" y="72" type="curve" smooth="yes"/>
      <point x="212" y="72"/>
      <point x="216" y="74"/>
      <point x="219" y="77" type="curve"/>
      <point x="219" y="123"/>
      <point x="223" y="162"/>
      <point x="218" y="162" type="curve" smooth="yes"/>
      <point x="212" y="162"/>
      <point x="215" y="151"/>
      <point x="215" y="121" type="curve" smooth="yes"/>
      <point x="215" y="91"/>
      <point x="216" y="72"/>
    </contour>
  </outline>
</glyph>
<glyph name="uni0225" format="2">
  <advance width="300"/>
  <unicode hex="0225"/>
  <anchor x="160" y="-240" name="bottom"/>
  <anchor x="150" y="545" name="top"/>
  <anchor x="289" y="545" name="topright"/>
  <outline>
    <contour>
      <point x="188" y="-216" type="curve" smooth="yes"/>
      <point x="255" y="-216"/>
      <point x="300" y="-159"/>
      <point x="300" y="-47" type="curve" smooth="yes"/>
      <point x="300" y="104" type="line"/>
      <point x="196" y="104" type="line"/>
      <point x="196" y="0" type="line"/>
      <point x="198" y="0" type="line"/>
      <point x="198" y="-44" type="line" smooth="yes"/>
      <point x="198" y="-100"/>
      <point x="185" y="-123"/>
      <point x="156" y="-123" type="curve" smooth="yes"/>
      <point x="146" y="-123"/>
      <point x="137" y="-120"/>
      <point x="128" y="-114" type="curve"/>
      <point x="128" y="-206" type="line"/>
      <point x="141" y="-213"/>
      <point x="159" y="-216"/>
    </contour>
    <component base="z" xOffset="10"/>
  </outline>
</glyph>
<glyph name="uni0235" format="2">
  <advance width="300"/>
  <unicode hex="0235"/>
  <anchor x="147" y="0" name="bottom"/>
  <anchor x="150" y="540" name="top"/>
  <outline>
    <contour>
      <point x="158" y="-27" type="line"/>
      <point x="158" y="-1"/>
      <point x="159" y="23"/>
      <point x="161" y="42" type="curve"/>
      <point x="172" y="11"/>
      <point x="186" y="-10"/>
      <point x="215" y="-10" type="curve" smooth="yes"/>
      <point x="264" y="-10"/>
      <point x="289" y="39"/>
      <point x="289" y="113" type="curve" smooth="yes"/>
      <point x="289" y="189"/>
      <point x="263" y="235"/>
      <point x="225" y="235" type="curve" smooth="yes"/>
      <point x="217" y="235"/>
      <point x="212" y="230"/>
      <point x="208" y="223" type="curve"/>
      <point x="208" y="396" type="line" smooth="yes"/>
      <point x="208" y="506"/>
      <point x="187" y="551"/>
      <point x="147" y="551" type="curve" smooth="yes"/>
      <point x="122" y="551"/>
      <point x="106" y="521"/>
      <point x="97" y="482" type="curve"/>
      <point x="93" y="482" type="line"/>
      <point x="86" y="541" type="line"/>
      <point x="19" y="541" type="line"/>
      <point x="19" y="0" type="line"/>
      <point x="103" y="0" type="line"/>
      <point x="103" y="360" type="line" smooth="yes"/>
      <point x="103" y="438"/>
      <point x="103" y="467"/>
      <point x="115" y="467" type="curve" smooth="yes"/>
      <point x="123" y="467"/>
      <point x="125" y="441"/>
      <point x="125" y="374" type="curve" smooth="yes"/>
      <point x="125" y="174" type="line" smooth="yes"/>
      <point x="125" y="165"/>
      <point x="125" y="152"/>
      <point x="126" y="144" type="curve"/>
      <point x="117" y="108"/>
      <point x="107" y="56"/>
      <point x="102" y="-5" type="curve"/>
    </contour>
    <contour>
      <point x="215" y="60" type="curve" smooth="yes"/>
      <point x="208" y="60"/>
      <point x="207" y="90"/>
      <point x="208" y="145" type="curve"/>
      <point x="208" y="156"/>
      <point x="209" y="166"/>
      <point x="213" y="166" type="curve" smooth="yes"/>
      <point x="218" y="166"/>
      <point x="221" y="149"/>
      <point x="221" y="112" type="curve" smooth="yes"/>
      <point x="221" y="82"/>
      <point x="218" y="60"/>
    </contour>
  </outline>
</glyph>
<glyph name="uni0236" format="2">
  <advance width="300"/>
  <unicode hex="0236"/>
  <anchor x="189" y="0" name="bottom"/>
  <anchor x="150" y="681" name="top"/>
  <outline>
    <contour>
      <point x="110" y="-27" type="line"/>
      <point x="110" y="-2"/>
      <point x="109" y="29"/>
      <point x="110" y="47" type="curve"/>
      <point x="127" y="18"/>
      <point x="147" y="-10"/>
      <point x="182" y="-10" type="curve" smooth="yes"/>
      <point x="264" y="-10"/>
      <point x="289" y="49"/>
      <point x="289" y="127" type="curve" smooth="yes"/>
      <point x="289" y="200"/>
      <point x="262" y="250"/>
      <point x="204" y="250" type="curve" smooth="yes"/>
      <point x="197" y="250"/>
      <point x="190" y="242"/>
      <point x="180" y="231" type="curve"/>
      <point x="180" y="441" type="line"/>
      <point x="289" y="441" type="line"/>
      <point x="289" y="544" type="line"/>
      <point x="181" y="544" type="line"/>
      <point x="181" y="681" type="line"/>
      <point x="110" y="681" type="line"/>
      <point x="72" y="546" type="line"/>
      <point x="-6" y="504" type="line"/>
      <point x="-6" y="441" type="line"/>
      <point x="63" y="441" type="line"/>
      <point x="63" y="200" type="line" smooth="yes"/>
      <point x="63" y="167"/>
      <point x="66" y="148"/>
      <point x="70" y="132" type="curve"/>
      <point x="63" y="105"/>
      <point x="50" y="56"/>
      <point x="42" y="7" type="curve"/>
    </contour>
    <contour>
      <point x="194" y="79" type="curve" smooth="yes"/>
      <point x="192" y="79"/>
      <point x="188" y="104"/>
      <point x="187" y="141" type="curve"/>
      <point x="187" y="153"/>
      <point x="189" y="165"/>
      <point x="193" y="165" type="curve" smooth="yes"/>
      <point x="198" y="165"/>
      <point x="199" y="148"/>
      <point x="199" y="122" type="curve" smooth="yes"/>
      <point x="199" y="97"/>
      <point x="198" y="79"/>
    </contour>
  </outline>
</glyph>
<glyph name="uni0241" format="2">
  <advance width="300"/>
  <unicode hex="0241"/>
  <anchor x="129" y="0" name="bottom"/>
  <anchor x="129" y="714" name="top"/>
  <outline>
    <contour>
      <point x="67" y="0" type="line"/>
      <point x="191" y="0" type="line"/>
      <point x="191" y="255" type="line"/>
      <point x="276" y="312"/>
      <point x="279" y="388"/>
      <point x="279" y="503" type="curve" smooth="yes"/>
      <point x="279" y="642"/>
      <point x="222" y="724"/>
      <point x="129" y="724" type="curve" smooth="yes"/>
      <point x="82" y="724"/>
      <point x="33" y="697"/>
      <point x="4" y="664" type="curve"/>
      <point x="45" y="564" type="line"/>
      <point x="68" y="592"/>
      <point x="96" y="612"/>
      <point x="117" y="612" type="curve" smooth="yes"/>
      <point x="142" y="612"/>
      <point x="149" y="566"/>
      <point x="149" y="493" type="curve" smooth="yes"/>
      <point x="149" y="404"/>
      <point x="134" y="355"/>
      <point x="67" y="314" type="curve"/>
    </contour>
  </outline>
</glyph>
<glyph name="uni0242" format="2">
  <advance width="300"/>
  <unicode hex="0242"/>
  <anchor x="148" y="0" name="bottom"/>
  <anchor x="148" y="545" name="top"/>
  <outline>
    <contour>
      <point x="79" y="0" type="line"/>
      <point x="183" y="0" type="line"/>
      <point x="183" y="114" type="line"/>
      <point x="244" y="186"/>
      <point x="250" y="246"/>
      <point x="250" y="362" type="curve" smooth="yes"/>
      <point x="250" y="481"/>
      <point x="213" y="552"/>
      <point x="140" y="552" type="curve" smooth="yes"/>
      <point x="112" y="552"/>
      <point x="75" y="542"/>
      <point x="39" y="503" type="curve"/>
      <point x="76" y="414" type="line"/>
      <point x="99" y="442"/>
      <point x="110" y="451"/>
      <point x="123" y="451" type="curve" smooth="yes"/>
      <point x="126" y="451"/>
      <point x="138" y="416"/>
      <point x="138" y="353" type="curve" smooth="yes"/>
      <point x="138" y="269"/>
      <point x="140" y="221"/>
      <point x="79" y="154" type="curve"/>
    </contour>
  </outline>
</glyph>
<glyph name="uni0249" format="2">
  <advance width="300"/>
  <unicode hex="0249"/>
  <anchor x="150" y="-245" name="bottom"/>
  <anchor x="171" y="770" name="top"/>
  <anchor x="288" y="770" name="topright"/>
  <outline>
    <contour>
      <point x="47" y="191" type="line"/>
      <point x="281" y="191" type="line"/>
      <point x="281" y="281" type="line"/>
      <point x="47" y="281" type="line"/>
    </contour>
    <component base="j" xOffset="10"/>
  </outline>
</glyph>
<glyph name="uni024D" format="2">
  <advance width="300"/>
  <unicode hex="024D"/>
  <anchor x="126" y="0" name="bottom"/>
  <anchor x="161" y="545" name="top"/>
  <anchor x="289" y="545" name="topright"/>
  <outline>
    <contour>
      <point x="14" y="217" type="line"/>
      <point x="234" y="217" type="line"/>
      <point x="234" y="306" type="line"/>
      <point x="14" y="306" type="line"/>
    </contour>
    <component base="r" xOffset="10"/>
  </outline>
</glyph>
<glyph name="uni024F" format="2">
  <advance width="300"/>
  <unicode hex="024F"/>
  <anchor x="149" y="-245" name="bottom"/>
  <anchor x="149" y="545" name="top"/>
  <anchor x="294" y="545" name="topright"/>
  <outline>
    <contour>
      <point x="2" y="309" type="line"/>
      <point x="298" y="309" type="line"/>
      <point x="298" y="380" type="line"/>
      <point x="2" y="380" type="line"/>
    </contour>
    <component base="y" xOffset="10"/>
  </outline>
</glyph>
<glyph name="uni0251" format="2">
  <advance width="300"/>
  <unicode hex="0251"/>
  <anchor x="150" y="0" name="bottom"/>
  <anchor x="150" y="545" name="top"/>
  <outline>
    <contour>
      <point x="108" y="-10" type="curve" smooth="yes"/>
      <point x="125" y="-10"/>
      <point x="150" y="16"/>
      <point x="174" y="73" type="curve"/>
      <point x="177" y="73" type="line"/>
      <point x="191" y="0" type="line"/>
      <point x="283" y="0" type="line"/>
      <point x="283" y="545" type="line"/>
      <point x="194" y="545" type="line"/>
      <point x="175" y="477" type="line"/>
      <point x="168" y="477" type="line"/>
      <point x="149" y="529"/>
      <point x="127" y="555"/>
      <point x="112" y="555" type="curve" smooth="yes"/>
      <point x="52" y="555"/>
      <point x="11" y="453"/>
      <point x="11" y="270" type="curve" smooth="yes"/>
      <point x="11" y="92"/>
      <point x="46" y="-10"/>
    </contour>
    <contour>
      <point x="152" y="97" type="curve" smooth="yes"/>
      <point x="127" y="97"/>
      <point x="127" y="150"/>
      <point x="127" y="267" type="curve" smooth="yes"/>
      <point x="127" y="400"/>
      <point x="137" y="449"/>
      <point x="153" y="449" type="curve" smooth="yes"/>
      <point x="169" y="449"/>
      <point x="172" y="398"/>
      <point x="172" y="280" type="curve" smooth="yes"/>
      <point x="172" y="255" type="line" smooth="yes"/>
      <point x="172" y="150"/>
      <point x="168" y="97"/>
    </contour>
  </outline>
</glyph>
<glyph name="uni0255" format="2">
  <advance width="300"/>
  <unicode hex="0255"/>
  <anchor x="150" y="0" name="bottom"/>
  <anchor x="150" y="545" name="top"/>
  <outline>
    <contour>
      <point x="97" y="-35" type="line"/>
      <point x="101" y="-14"/>
      <point x="102" y="11"/>
      <point x="106" y="27" type="curve"/>
      <point x="128" y="5"/>
      <point x="155" y="-10"/>
      <point x="175" y="-10" type="curve" smooth="yes"/>
      <point x="243" y="-10"/>
      <point x="289" y="42"/>
      <point x="289" y="128" type="curve" smooth="yes"/>
      <point x="289" y="206"/>
      <point x="255" y="252"/>
      <point x="197" y="252" type="curve" smooth="yes"/>
      <point x="173" y="252"/>
      <point x="147" y="225"/>
      <point x="134" y="202" type="curve"/>
      <point x="139" y="218"/>
      <point x="142" y="242"/>
      <point x="142" y="272" type="curve" smooth="yes"/>
      <point x="142" y="391"/>
      <point x="153" y="449"/>
      <point x="186" y="449" type="curve" smooth="yes"/>
      <point x="206" y="449"/>
      <point x="221" y="439"/>
      <point x="244" y="420" type="curve"/>
      <point x="277" y="520" type="line"/>
      <point x="249" y="540"/>
      <point x="216" y="555"/>
      <point x="167" y="555" type="curve" smooth="yes"/>
      <point x="61" y="555"/>
      <point x="22" y="438"/>
      <point x="22" y="270" type="curve" smooth="yes"/>
      <point x="22" y="201"/>
      <point x="29" y="145"/>
      <point x="40" y="103" type="curve"/>
      <point x="27" y="73"/>
      <point x="18" y="37"/>
      <point x="6" y="-4" type="curve"/>
    </contour>
    <contour>
      <point x="183" y="79" type="curve" smooth="yes"/>
      <point x="175" y="79"/>
      <point x="165" y="91"/>
      <point x="162" y="118" type="curve"/>
      <point x="168" y="147"/>
      <point x="179" y="164"/>
      <point x="183" y="164" type="curve" smooth="yes"/>
      <point x="184" y="164"/>
      <point x="191" y="149"/>
      <point x="191" y="122" type="curve" smooth="yes"/>
      <point x="191" y="98"/>
      <point x="183" y="79"/>
    </contour>
  </outline>
</glyph>
<glyph name="uni0257" format="2">
  <advance width="300"/>
  <unicode hex="0257"/>
  <anchor x="150" y="0" name="bottom"/>
  <anchor x="150" y="772" name="top"/>
  <outline>
    <contour>
      <point x="114" y="-10" type="curve" smooth="yes"/>
      <point x="131" y="-10"/>
      <point x="154" y="22"/>
      <point x="172" y="73" type="curve"/>
      <point x="177" y="73" type="line"/>
      <point x="190" y="0" type="line"/>
      <point x="283" y="0" type="line"/>
      <point x="283" y="603" type="line" smooth="yes"/>
      <point x="283" y="651"/>
      <point x="294" y="666"/>
      <point x="310" y="666" type="curve" smooth="yes"/>
      <point x="318" y="666"/>
      <point x="324" y="663"/>
      <point x="327" y="659" type="curve"/>
      <point x="327" y="763" type="line"/>
      <point x="317" y="768"/>
      <point x="299" y="772"/>
      <point x="280" y="772" type="curve" smooth="yes"/>
      <point x="211" y="772"/>
      <point x="176" y="713"/>
      <point x="176" y="617" type="curve" smooth="yes"/>
      <point x="176" y="570" type="line" smooth="yes"/>
      <point x="176" y="536"/>
      <point x="176" y="501"/>
      <point x="177" y="476" type="curve"/>
      <point x="171" y="476" type="line"/>
      <point x="150" y="527"/>
      <point x="129" y="555"/>
      <point x="113" y="555" type="curve" smooth="yes"/>
      <point x="51" y="555"/>
      <point x="11" y="451"/>
      <point x="11" y="271" type="curve" smooth="yes"/>
      <point x="11" y="97"/>
      <point x="51" y="-10"/>
    </contour>
    <contour>
      <point x="154" y="96" type="curve" smooth="yes"/>
      <point x="134" y="96"/>
      <point x="128" y="153"/>
      <point x="128" y="268" type="curve" smooth="yes"/>
      <point x="128" y="386"/>
      <point x="131" y="449"/>
      <point x="155" y="449" type="curve" smooth="yes"/>
      <point x="174" y="449"/>
      <point x="172" y="393"/>
      <point x="172" y="271" type="curve" smooth="yes"/>
      <point x="172" y="253" type="line" smooth="yes"/>
      <point x="172" y="148"/>
      <point x="165" y="96"/>
    </contour>
  </outline>
</glyph>
<glyph name="schwahook" format="2">
  <advance width="300"/>
  <unicode hex="025A"/>
  <anchor x="126" y="0" name="bottom"/>
  <anchor x="123" y="545" name="top"/>
  <outline>
    <contour>
      <point x="100" y="-10" type="curve" smooth="yes"/>
      <point x="161" y="-10"/>
      <point x="190" y="87"/>
      <point x="191" y="275" type="curve"/>
      <point x="192" y="280" type="line"/>
      <point x="201" y="193"/>
      <point x="223" y="170"/>
      <point x="247" y="170" type="curve" smooth="yes"/>
      <point x="268" y="170"/>
      <point x="281" y="185"/>
      <point x="292" y="202" type="curve"/>
      <point x="274" y="253" type="line"/>
      <point x="270" y="244"/>
      <point x="264" y="237"/>
      <point x="257" y="237" type="curve" smooth="yes"/>
      <point x="248" y="237"/>
      <point x="244" y="253"/>
      <point x="239" y="330" type="curve" smooth="yes"/>
      <point x="236" y="381" type="line"/>
      <point x="188" y="357" type="line"/>
      <point x="181" y="483"/>
      <point x="151" y="554"/>
      <point x="92" y="554" type="curve" smooth="yes"/>
      <point x="59" y="554"/>
      <point x="40" y="541"/>
      <point x="29" y="528" type="curve"/>
      <point x="29" y="438" type="line"/>
      <point x="39" y="452"/>
      <point x="50" y="464"/>
      <point x="70" y="464" type="curve" smooth="yes"/>
      <point x="87" y="464"/>
      <point x="96" y="418"/>
      <point x="97" y="325" type="curve"/>
      <point x="17" y="250" type="line"/>
      <point x="17" y="67"/>
      <point x="42" y="-10"/>
    </contour>
    <contour>
      <point x="104" y="81" type="curve" smooth="yes"/>
      <point x="110" y="81"/>
      <point x="110" y="127"/>
      <point x="109" y="204" type="curve"/>
      <point x="98" y="242" type="line"/>
      <point x="98" y="135"/>
      <point x="108" y="81"/>
    </contour>
  </outline>
</glyph>
<glyph name="uni025E" format="2">
  <advance width="300"/>
  <unicode hex="025E"/>
  <anchor x="150" y="0" name="bottom"/>
  <anchor x="150" y="545" name="top"/>
  <outline>
    <contour>
      <point x="161" y="-10" type="curve" smooth="yes"/>
      <point x="239" y="-10"/>
      <point x="285" y="60"/>
      <point x="285" y="158" type="curve" smooth="yes"/>
      <point x="285" y="230"/>
      <point x="264" y="271"/>
      <point x="233" y="285" type="curve"/>
      <point x="233" y="290" type="line"/>
      <point x="256" y="307"/>
      <point x="273" y="349"/>
      <point x="273" y="411" type="curve" smooth="yes"/>
      <point x="273" y="496"/>
      <point x="238" y="555"/>
      <point x="159" y="555" type="curve" smooth="yes"/>
      <point x="67" y="555"/>
      <point x="16" y="458"/>
      <point x="16" y="271" type="curve" smooth="yes"/>
      <point x="16" y="97"/>
      <point x="58" y="-10"/>
    </contour>
    <contour>
      <point x="162" y="88" type="curve" smooth="yes"/>
      <point x="141" y="88"/>
      <point x="128" y="151"/>
      <point x="128" y="272" type="curve" smooth="yes"/>
      <point x="128" y="397"/>
      <point x="140" y="459"/>
      <point x="153" y="459" type="curve" smooth="yes"/>
      <point x="160" y="459"/>
      <point x="168" y="434"/>
      <point x="168" y="394" type="curve" smooth="yes"/>
      <point x="168" y="349"/>
      <point x="162" y="329"/>
      <point x="173" y="329" type="curve" smooth="yes"/>
      <point x="155" y="329" type="line"/>
      <point x="155" y="237" type="line"/>
      <point x="179" y="237" type="line" smooth="yes"/>
      <point x="170" y="237"/>
      <point x="173" y="214"/>
      <point x="173" y="165" type="curve" smooth="yes"/>
      <point x="173" y="115"/>
      <point x="161" y="88"/>
    </contour>
  </outline>
</glyph>
<glyph name="uni025F" format="2">
  <advance width="300"/>
  <unicode hex="025F"/>
  <anchor x="147" y="-240" name="bottom"/>
  <anchor x="163" y="545" name="top"/>
  <outline>
    <contour>
      <point x="110" y="-240" type="curve" smooth="yes"/>
      <point x="184" y="-240"/>
      <point x="222" y="-185"/>
      <point x="222" y="-64" type="curve" smooth="yes"/>
      <point x="222" y="246" type="line"/>
      <point x="248" y="246" type="line"/>
      <point x="248" y="335" type="line"/>
      <point x="222" y="335" type="line"/>
      <point x="222" y="545" type="line"/>
      <point x="103" y="545" type="line"/>
      <point x="103" y="335" type="line"/>
      <point x="77" y="335" type="line"/>
      <point x="77" y="246" type="line"/>
      <point x="103" y="246" type="line"/>
      <point x="103" y="-58" type="line" smooth="yes"/>
      <point x="103" y="-109"/>
      <point x="95" y="-134"/>
      <point x="81" y="-134" type="curve" smooth="yes"/>
      <point x="72" y="-134"/>
      <point x="64" y="-131"/>
      <point x="52" y="-125" type="curve"/>
      <point x="52" y="-230" type="line"/>
      <point x="71" y="-237"/>
      <point x="92" y="-240"/>
    </contour>
  </outline>
</glyph>
<glyph name="uni0260" format="2">
  <advance width="300"/>
  <unicode hex="0260"/>
  <anchor x="150" y="-245" name="bottom"/>
  <anchor x="150" y="772" name="top"/>
  <outline>
    <contour>
      <point x="136" y="-245" type="curve" smooth="yes"/>
      <point x="235" y="-245"/>
      <point x="283" y="-159"/>
      <point x="283" y="2" type="curve" smooth="yes"/>
      <point x="283" y="600" type="line" smooth="yes"/>
      <point x="283" y="648"/>
      <point x="292" y="666"/>
      <point x="311" y="666" type="curve" smooth="yes"/>
      <point x="319" y="666"/>
      <point x="331" y="663"/>
      <point x="341" y="657" type="curve"/>
      <point x="341" y="761" type="line"/>
      <point x="329" y="767"/>
      <point x="299" y="772"/>
      <point x="284" y="772" type="curve" smooth="yes"/>
      <point x="207" y="772"/>
      <point x="168" y="710"/>
      <point x="168" y="604" type="curve" smooth="yes"/>
      <point x="168" y="540" type="line" smooth="yes"/>
      <point x="168" y="521"/>
      <point x="170" y="496"/>
      <point x="172" y="475" type="curve"/>
      <point x="170" y="475" type="line"/>
      <point x="149" y="530"/>
      <point x="127" y="555"/>
      <point x="115" y="555" type="curve" smooth="yes"/>
      <point x="54" y="555"/>
      <point x="11" y="445"/>
      <point x="11" y="270" type="curve" smooth="yes"/>
      <point x="11" y="96"/>
      <point x="51" y="-10"/>
      <point x="119" y="-10" type="curve" smooth="yes"/>
      <point x="131" y="-10"/>
      <point x="147" y="14"/>
      <point x="167" y="69" type="curve"/>
      <point x="169" y="69" type="line"/>
      <point x="169" y="53"/>
      <point x="168" y="25"/>
      <point x="168" y="6" type="curve" smooth="yes"/>
      <point x="168" y="-16" type="line" smooth="yes"/>
      <point x="168" y="-96"/>
      <point x="151" y="-140"/>
      <point x="130" y="-140" type="curve" smooth="yes"/>
      <point x="111" y="-140"/>
      <point x="75" y="-127"/>
      <point x="37" y="-98" type="curve"/>
      <point x="37" y="-207" type="line"/>
      <point x="70" y="-233"/>
      <point x="101" y="-245"/>
    </contour>
    <contour>
      <point x="163" y="96" type="curve" smooth="yes"/>
      <point x="138" y="96"/>
      <point x="135" y="156"/>
      <point x="135" y="269" type="curve" smooth="yes"/>
      <point x="135" y="385"/>
      <point x="141" y="449"/>
      <point x="160" y="449" type="curve" smooth="yes"/>
      <point x="167" y="449"/>
      <point x="172" y="398"/>
      <point x="172" y="271" type="curve" smooth="yes"/>
      <point x="172" y="253" type="line" smooth="yes"/>
      <point x="172" y="140"/>
      <point x="159" y="96"/>
    </contour>
  </outline>
</glyph>
<glyph name="uni0264" format="2">
  <advance width="300"/>
  <unicode hex="0264"/>
  <anchor x="149" y="0" name="bottom"/>
  <anchor x="149" y="545" name="top"/>
  <outline>
    <contour>
      <point x="152" y="-10" type="curve" smooth="yes"/>
      <point x="215" y="-10"/>
      <point x="256" y="39"/>
      <point x="256" y="116" type="curve" smooth="yes"/>
      <point x="256" y="171"/>
      <point x="239" y="220"/>
      <point x="219" y="270" type="curve"/>
      <point x="238" y="393" type="line" smooth="yes"/>
      <point x="244" y="435"/>
      <point x="252" y="450"/>
      <point x="275" y="450" type="curve" smooth="yes"/>
      <point x="281" y="450"/>
      <point x="280" y="449"/>
      <point x="287" y="446" type="curve"/>
      <point x="287" y="539" type="line"/>
      <point x="278" y="545"/>
      <point x="257" y="551"/>
      <point x="238" y="551" type="curve" smooth="yes"/>
      <point x="204" y="551"/>
      <point x="181" y="537"/>
      <point x="175" y="478" type="curve" smooth="yes"/>
      <point x="165" y="402" type="line" smooth="yes"/>
      <point x="162" y="376"/>
      <point x="153" y="356"/>
      <point x="153" y="343" type="curve"/>
      <point x="150" y="343" type="line"/>
      <point x="150" y="356"/>
      <point x="140" y="381"/>
      <point x="139" y="403" type="curve" smooth="yes"/>
      <point x="129" y="481" type="line" smooth="yes"/>
      <point x="122" y="529"/>
      <point x="99" y="551"/>
      <point x="57" y="551" type="curve" smooth="yes"/>
      <point x="42" y="551"/>
      <point x="22" y="547"/>
      <point x="12" y="539" type="curve"/>
      <point x="12" y="447" type="line"/>
      <point x="18" y="451"/>
      <point x="21" y="452"/>
      <point x="24" y="452" type="curve" smooth="yes"/>
      <point x="36" y="452"/>
      <point x="55" y="438"/>
      <point x="61" y="392" type="curve" smooth="yes"/>
      <point x="78" y="269" type="line"/>
      <point x="63" y="222"/>
      <point x="50" y="169"/>
      <point x="50" y="116" type="curve" smooth="yes"/>
      <point x="50" y="39"/>
      <point x="87" y="-10"/>
    </contour>
    <contour>
      <point x="153" y="66" type="curve" smooth="yes"/>
      <point x="148" y="66"/>
      <point x="144" y="81"/>
      <point x="144" y="116" type="curve" smooth="yes"/>
      <point x="144" y="141"/>
      <point x="144" y="175"/>
      <point x="151" y="209" type="curve"/>
      <point x="161" y="175"/>
      <point x="162" y="142"/>
      <point x="162" y="115" type="curve" smooth="yes"/>
      <point x="162" y="82"/>
      <point x="159" y="66"/>
    </contour>
  </outline>
</glyph>
<glyph name="uni0266" format="2">
  <advance width="300"/>
  <unicode hex="0266"/>
  <anchor x="150" y="0" name="bottom"/>
  <anchor x="90" y="760" name="top"/>
  <outline>
    <contour>
      <point x="17" y="0" type="line"/>
      <point x="133" y="0" type="line"/>
      <point x="133" y="279" type="line" smooth="yes"/>
      <point x="133" y="385"/>
      <point x="125" y="446"/>
      <point x="151" y="446" type="curve" smooth="yes"/>
      <point x="177" y="446"/>
      <point x="170" y="401"/>
      <point x="170" y="321" type="curve" smooth="yes"/>
      <point x="170" y="0" type="line"/>
      <point x="286" y="0" type="line"/>
      <point x="286" y="355" type="line" smooth="yes"/>
      <point x="286" y="488"/>
      <point x="246" y="555"/>
      <point x="191" y="555" type="curve" smooth="yes"/>
      <point x="169" y="555"/>
      <point x="148" y="523"/>
      <point x="131" y="474" type="curve"/>
      <point x="125" y="474" type="line"/>
      <point x="130" y="507"/>
      <point x="133" y="532"/>
      <point x="133" y="552" type="curve" smooth="yes"/>
      <point x="133" y="600" type="line" smooth="yes"/>
      <point x="133" y="647"/>
      <point x="140" y="664"/>
      <point x="154" y="664" type="curve" smooth="yes"/>
      <point x="160" y="664"/>
      <point x="169" y="661"/>
      <point x="176" y="655" type="curve"/>
      <point x="176" y="755" type="line"/>
      <point x="166" y="760"/>
      <point x="139" y="765"/>
      <point x="126" y="765" type="curve" smooth="yes"/>
      <point x="54" y="765"/>
      <point x="17" y="703"/>
      <point x="17" y="602" type="curve" smooth="yes"/>
    </contour>
  </outline>
</glyph>
<glyph name="uni026A" format="2">
  <advance width="300"/>
  <unicode hex="026A"/>
  <anchor x="150" y="0" name="bottom"/>
  <anchor x="150" y="545" name="top"/>
  <outline>
    <contour>
      <point x="18" y="0" type="line"/>
      <point x="282" y="0" type="line"/>
      <point x="282" y="87" type="line"/>
      <point x="208" y="100" type="line"/>
      <point x="208" y="445" type="line"/>
      <point x="282" y="458" type="line"/>
      <point x="282" y="545" type="line"/>
      <point x="18" y="545" type="line"/>
      <point x="18" y="458" type="line"/>
      <point x="94" y="445" type="line"/>
      <point x="94" y="100" type="line"/>
      <point x="18" y="87" type="line"/>
    </contour>
  </outline>
</glyph>
<glyph name="uni026B" format="2">
  <advance width="300"/>
  <unicode hex="026B"/>
  <anchor x="146" y="0" name="bottom"/>
  <anchor x="150" y="760" name="top"/>
  <anchor x="265" y="760" name="topright"/>
  <anchor x="162" y="382" name="center"/>
  <outline>
    <contour>
      <point x="15" y="306" type="curve"/>
      <point x="83" y="306" type="line"/>
      <point x="84" y="342"/>
      <point x="87" y="362"/>
      <point x="95" y="362" type="curve" smooth="yes"/>
      <point x="109" y="362"/>
      <point x="194" y="307"/>
      <point x="224" y="307" type="curve" smooth="yes"/>
      <point x="250" y="307"/>
      <point x="282" y="341"/>
      <point x="283" y="451" type="curve"/>
      <point x="214" y="451" type="line"/>
      <point x="213" y="417"/>
      <point x="214" y="395"/>
      <point x="204" y="395" type="curve" smooth="yes"/>
      <point x="189" y="395"/>
      <point x="107" y="450"/>
      <point x="76" y="450" type="curve" smooth="yes"/>
      <point x="27" y="450"/>
      <point x="15" y="382"/>
    </contour>
    <component base="l" xOffset="10"/>
  </outline>
</glyph>
<glyph name="uni026C" format="2">
  <advance width="300"/>
  <unicode hex="026C"/>
  <anchor x="150" y="0" name="bottom"/>
  <anchor x="153" y="760" name="top"/>
  <anchor x="265" y="760" name="topright"/>
  <anchor x="162" y="382" name="center"/>
  <outline>
    <contour>
      <point x="71" y="288" type="curve"/>
      <point x="246" y="288" type="line"/>
      <point x="246" y="368" type="line"/>
      <point x="206" y="368" type="line"/>
      <point x="94" y="490" type="line" smooth="yes"/>
      <point x="84" y="500"/>
      <point x="80" y="507"/>
      <point x="73" y="507" type="curve" smooth="yes"/>
      <point x="28" y="507"/>
      <point x="5" y="465"/>
      <point x="5" y="401" type="curve" smooth="yes"/>
      <point x="5" y="338"/>
      <point x="14" y="288"/>
    </contour>
    <contour>
      <point x="78" y="368" type="line" smooth="yes"/>
      <point x="82" y="368"/>
      <point x="76" y="376"/>
      <point x="76" y="403" type="curve" smooth="yes"/>
      <point x="76" y="423"/>
      <point x="80" y="435"/>
      <point x="85" y="435" type="curve" smooth="yes"/>
      <point x="81" y="435"/>
      <point x="92" y="416"/>
      <point x="92" y="381" type="curve" smooth="yes"/>
      <point x="92" y="368" type="line"/>
    </contour>
    <component base="l" xOffset="10"/>
  </outline>
</glyph>
<glyph name="uni026E" format="2">
  <advance width="300"/>
  <unicode hex="026E"/>
  <anchor x="154" y="-240" name="bottom"/>
  <anchor x="78" y="760" name="top"/>
  <outline>
    <contour>
      <point x="147" y="-240" type="curve" smooth="yes"/>
      <point x="229" y="-240"/>
      <point x="291" y="-140"/>
      <point x="291" y="18" type="curve" smooth="yes"/>
      <point x="291" y="160"/>
      <point x="253" y="222"/>
      <point x="238" y="233" type="curve"/>
      <point x="279" y="467" type="line"/>
      <point x="279" y="545" type="line"/>
      <point x="125" y="545" type="line"/>
      <point x="125" y="760" type="line"/>
      <point x="20" y="760" type="line"/>
      <point x="20" y="0" type="line"/>
      <point x="125" y="0" type="line"/>
      <point x="125" y="446" type="line"/>
      <point x="160" y="446" type="line"/>
      <point x="132" y="230" type="line"/>
      <point x="132" y="146" type="line"/>
      <point x="146" y="146" type="line" smooth="yes"/>
      <point x="163" y="146"/>
      <point x="183" y="107"/>
      <point x="183" y="13" type="curve" smooth="yes"/>
      <point x="183" y="-84"/>
      <point x="162" y="-136"/>
      <point x="135" y="-136" type="curve" smooth="yes"/>
      <point x="107" y="-136"/>
      <point x="97" y="-121"/>
      <point x="90" y="-107" type="curve"/>
      <point x="90" y="-217" type="line"/>
      <point x="97" y="-229"/>
      <point x="114" y="-240"/>
    </contour>
  </outline>
</glyph>
<glyph name="uni0271" format="2">
  <advance width="300"/>
  <unicode hex="0271"/>
  <anchor x="231" y="-240" name="bottom"/>
  <anchor x="152" y="540" name="top"/>
  <outline>
    <contour>
      <point x="205" y="-240" type="curve" smooth="yes"/>
      <point x="250" y="-240"/>
      <point x="288" y="-197"/>
      <point x="288" y="-92" type="curve" smooth="yes"/>
      <point x="288" y="390" type="line" smooth="yes"/>
      <point x="288" y="500"/>
      <point x="283" y="551"/>
      <point x="238" y="551" type="curve" smooth="yes"/>
      <point x="214" y="551"/>
      <point x="198" y="527"/>
      <point x="187" y="479" type="curve"/>
      <point x="185" y="479" type="line"/>
      <point x="176" y="525"/>
      <point x="166" y="551"/>
      <point x="141" y="551" type="curve" smooth="yes"/>
      <point x="120" y="551"/>
      <point x="104" y="530"/>
      <point x="92" y="484" type="curve"/>
      <point x="90" y="484" type="line"/>
      <point x="78" y="540" type="line"/>
      <point x="13" y="540" type="line"/>
      <point x="13" y="0" type="line"/>
      <point x="90" y="0" type="line"/>
      <point x="90" y="346" type="line" smooth="yes"/>
      <point x="90" y="406"/>
      <point x="88" y="469"/>
      <point x="104" y="469" type="curve" smooth="yes"/>
      <point x="115" y="469"/>
      <point x="112" y="444"/>
      <point x="112" y="389" type="curve" smooth="yes"/>
      <point x="112" y="0" type="line"/>
      <point x="188" y="0" type="line"/>
      <point x="188" y="354" type="line" smooth="yes"/>
      <point x="188" y="417"/>
      <point x="185" y="469"/>
      <point x="200" y="469" type="curve" smooth="yes"/>
      <point x="213" y="469"/>
      <point x="211" y="444"/>
      <point x="211" y="391" type="curve" smooth="yes"/>
      <point x="211" y="-98" type="line" smooth="yes"/>
      <point x="211" y="-144"/>
      <point x="201" y="-163"/>
      <point x="184" y="-163" type="curve" smooth="yes"/>
      <point x="171" y="-163"/>
      <point x="161" y="-157"/>
      <point x="154" y="-152" type="curve"/>
      <point x="154" y="-228" type="line"/>
      <point x="166" y="-234"/>
      <point x="183" y="-240"/>
    </contour>
  </outline>
</glyph>
<glyph name="uni0273" format="2">
  <advance width="300"/>
  <unicode hex="0273"/>
  <anchor x="151" y="-240" name="bottom"/>
  <anchor x="158" y="545" name="top"/>
  <outline>
    <contour>
      <point x="269" y="-240" type="curve" smooth="yes"/>
      <point x="292" y="-240"/>
      <point x="313" y="-235"/>
      <point x="332" y="-226" type="curve"/>
      <point x="332" y="-128" type="line"/>
      <point x="327" y="-133"/>
      <point x="314" y="-138"/>
      <point x="304" y="-138" type="curve" smooth="yes"/>
      <point x="292" y="-138"/>
      <point x="286" y="-122"/>
      <point x="286" y="-82" type="curve" smooth="yes"/>
      <point x="286" y="355" type="line" smooth="yes"/>
      <point x="286" y="493"/>
      <point x="251" y="555"/>
      <point x="193" y="555" type="curve" smooth="yes"/>
      <point x="174" y="555"/>
      <point x="150" y="528"/>
      <point x="132" y="478" type="curve"/>
      <point x="127" y="478" type="line"/>
      <point x="113" y="545" type="line"/>
      <point x="17" y="545" type="line"/>
      <point x="17" y="0" type="line"/>
      <point x="133" y="0" type="line"/>
      <point x="133" y="288" type="line" smooth="yes"/>
      <point x="133" y="400"/>
      <point x="128" y="453"/>
      <point x="151" y="453" type="curve" smooth="yes"/>
      <point x="164" y="453"/>
      <point x="170" y="418"/>
      <point x="170" y="339" type="curve" smooth="yes"/>
      <point x="170" y="-78" type="line" smooth="yes"/>
      <point x="170" y="-194"/>
      <point x="197" y="-240"/>
    </contour>
  </outline>
</glyph>
<glyph name="uni0274" format="2">
  <advance width="300"/>
  <unicode hex="0274"/>
  <anchor x="150" y="0" name="bottom"/>
  <anchor x="150" y="545" name="top"/>
  <outline>
    <contour>
      <point x="26" y="0" type="line"/>
      <point x="128" y="0" type="line"/>
      <point x="128" y="239" type="line" smooth="yes"/>
      <point x="128" y="286"/>
      <point x="126" y="333"/>
      <point x="123" y="377" type="curve"/>
      <point x="165" y="0" type="line"/>
      <point x="282" y="0" type="line"/>
      <point x="282" y="545" type="line"/>
      <point x="180" y="545" type="line"/>
      <point x="180" y="309" type="line" smooth="yes"/>
      <point x="180" y="261"/>
      <point x="181" y="217"/>
      <point x="184" y="168" type="curve"/>
      <point x="143" y="545" type="line"/>
      <point x="26" y="545" type="line"/>
    </contour>
  </outline>
</glyph>
<glyph name="uni0276" format="2">
  <advance width="300"/>
  <unicode hex="0276"/>
  <anchor x="150" y="0" name="bottom"/>
  <anchor x="150" y="545" name="top"/>
  <outline>
    <contour>
      <point x="107" y="-10" type="curve" smooth="yes"/>
      <point x="134" y="-10"/>
      <point x="152" y="13"/>
      <point x="159" y="45" type="curve"/>
      <point x="159" y="0" type="line"/>
      <point x="286" y="0" type="line"/>
      <point x="286" y="95" type="line"/>
      <point x="241" y="95" type="line"/>
      <point x="241" y="231" type="line"/>
      <point x="280" y="231" type="line"/>
      <point x="280" y="326" type="line"/>
      <point x="241" y="326" type="line"/>
      <point x="241" y="451" type="line"/>
      <point x="286" y="451" type="line"/>
      <point x="286" y="545" type="line"/>
      <point x="159" y="545" type="line"/>
      <point x="159" y="502" type="line"/>
      <point x="150" y="534"/>
      <point x="134" y="555"/>
      <point x="112" y="555" type="curve" smooth="yes"/>
      <point x="45" y="555"/>
      <point x="16" y="462"/>
      <point x="16" y="271" type="curve" smooth="yes"/>
      <point x="16" y="84"/>
      <point x="43" y="-10"/>
    </contour>
    <contour>
      <point x="134" y="91" type="curve" smooth="yes"/>
      <point x="123" y="91"/>
      <point x="119" y="137"/>
      <point x="119" y="272" type="curve" smooth="yes"/>
      <point x="119" y="405"/>
      <point x="123" y="454"/>
      <point x="133" y="454" type="curve" smooth="yes"/>
      <point x="143" y="454"/>
      <point x="143" y="408"/>
      <point x="143" y="273" type="curve" smooth="yes"/>
      <point x="143" y="138"/>
      <point x="144" y="91"/>
    </contour>
  </outline>
</glyph>
<glyph name="uni027A" format="2">
  <advance width="300"/>
  <unicode hex="027A"/>
  <anchor x="169" y="0" name="bottom"/>
  <anchor x="187" y="760" name="top"/>
  <outline>
    <contour>
      <point x="62" y="-11" type="curve" smooth="yes"/>
      <point x="99" y="-11"/>
      <point x="127" y="32"/>
      <point x="142" y="94" type="curve"/>
      <point x="147" y="94" type="line"/>
      <point x="157" y="0" type="line"/>
      <point x="290" y="0" type="line"/>
      <point x="290" y="91" type="line"/>
      <point x="242" y="104" type="line"/>
      <point x="242" y="760" type="line"/>
      <point x="131" y="760" type="line"/>
      <point x="131" y="272" type="line" smooth="yes"/>
      <point x="131" y="180"/>
      <point x="113" y="115"/>
      <point x="81" y="115" type="curve" smooth="yes"/>
      <point x="70" y="115"/>
      <point x="53" y="119"/>
      <point x="42" y="130" type="curve"/>
      <point x="11" y="9" type="line"/>
      <point x="36" y="-6"/>
      <point x="51" y="-11"/>
    </contour>
  </outline>
</glyph>
<glyph name="uni027B" format="2">
  <advance width="300"/>
  <unicode hex="027B"/>
  <anchor x="140" y="-240" name="bottom"/>
  <anchor x="192" y="545" name="top"/>
  <outline>
    <contour>
      <point x="244" y="-240" type="curve" smooth="yes"/>
      <point x="276" y="-240"/>
      <point x="297" y="-232"/>
      <point x="316" y="-222" type="curve"/>
      <point x="316" y="-121" type="line"/>
      <point x="308" y="-128"/>
      <point x="292" y="-134"/>
      <point x="275" y="-134" type="curve" smooth="yes"/>
      <point x="254" y="-134"/>
      <point x="246" y="-113"/>
      <point x="246" y="-65" type="curve" smooth="yes"/>
      <point x="246" y="545" type="line"/>
      <point x="135" y="545" type="line"/>
      <point x="135" y="278" type="line" smooth="yes"/>
      <point x="135" y="178"/>
      <point x="120" y="115"/>
      <point x="83" y="115" type="curve" smooth="yes"/>
      <point x="68" y="115"/>
      <point x="52" y="123"/>
      <point x="46" y="130" type="curve"/>
      <point x="15" y="9" type="line"/>
      <point x="25" y="1"/>
      <point x="47" y="-10"/>
      <point x="66" y="-10" type="curve" smooth="yes"/>
      <point x="102" y="-10"/>
      <point x="124" y="33"/>
      <point x="137" y="89" type="curve"/>
      <point x="141" y="89" type="line"/>
      <point x="137" y="59"/>
      <point x="135" y="30"/>
      <point x="135" y="0" type="curve" smooth="yes"/>
      <point x="135" y="-78" type="line" smooth="yes"/>
      <point x="135" y="-194"/>
      <point x="170" y="-240"/>
    </contour>
  </outline>
</glyph>
<glyph name="eshsquatreversed" format="2">
  <advance width="300"/>
  <unicode hex="0285"/>
  <anchor x="172" y="-240" name="bottom"/>
  <anchor x="119" y="544" name="top"/>
  <outline>
    <contour>
      <point x="213" y="-240" type="curve" smooth="yes"/>
      <point x="234" y="-240"/>
      <point x="255" y="-232"/>
      <point x="265" y="-224" type="curve"/>
      <point x="265" y="-110" type="line"/>
      <point x="258" y="-116"/>
      <point x="251" y="-122"/>
      <point x="244" y="-122" type="curve" smooth="yes"/>
      <point x="221" y="-122"/>
      <point x="212" y="-89"/>
      <point x="212" y="-21" type="curve" smooth="yes"/>
      <point x="212" y="344" type="line"/>
      <point x="212" y="477"/>
      <point x="163" y="554"/>
      <point x="95" y="554" type="curve" smooth="yes"/>
      <point x="64" y="554"/>
      <point x="46" y="547"/>
      <point x="35" y="540" type="curve"/>
      <point x="35" y="429" type="line"/>
      <point x="41" y="434"/>
      <point x="50" y="440"/>
      <point x="65" y="440" type="curve" smooth="yes"/>
      <point x="83" y="440"/>
      <point x="94" y="403"/>
      <point x="94" y="339" type="curve" smooth="yes"/>
      <point x="94" y="-27" type="line" smooth="yes"/>
      <point x="94" y="-154"/>
      <point x="135" y="-240"/>
    </contour>
  </outline>
</glyph>
<glyph name="eshcurl" format="2">
  <advance width="300"/>
  <unicode hex="0286"/>
  <anchor x="134" y="-240" name="bottom"/>
  <anchor x="193" y="768" name="top"/>
  <outline>
    <contour>
      <point x="104" y="-240" type="curve" smooth="yes"/>
      <point x="180" y="-240"/>
      <point x="212" y="-180"/>
      <point x="212" y="-87" type="curve"/>
      <point x="238" y="-87" type="line"/>
      <point x="238" y="-13" type="line"/>
      <point x="212" y="-13" type="line"/>
      <point x="212" y="553" type="line" smooth="yes"/>
      <point x="212" y="617"/>
      <point x="225" y="653"/>
      <point x="249" y="653" type="curve" smooth="yes"/>
      <point x="261" y="653"/>
      <point x="271" y="648"/>
      <point x="276" y="643" type="curve"/>
      <point x="276" y="754" type="line"/>
      <point x="265" y="761"/>
      <point x="245" y="768"/>
      <point x="221" y="768" type="curve" smooth="yes"/>
      <point x="146" y="768"/>
      <point x="96" y="691"/>
      <point x="96" y="557" type="curve" smooth="yes"/>
      <point x="96" y="-13" type="line"/>
      <point x="87" y="-13" type="line" smooth="yes"/>
      <point x="31" y="-13"/>
      <point x="5" y="-59"/>
      <point x="5" y="-128" type="curve" smooth="yes"/>
      <point x="5" y="-199"/>
      <point x="34" y="-240"/>
    </contour>
    <contour>
      <point x="86" y="-164" type="curve" smooth="yes"/>
      <point x="80" y="-164"/>
      <point x="78" y="-150"/>
      <point x="78" y="-127" type="curve" smooth="yes"/>
      <point x="78" y="-97"/>
      <point x="89" y="-87"/>
      <point x="84" y="-87" type="curve" smooth="yes"/>
      <point x="96" y="-87" type="line"/>
      <point x="96" y="-101" type="line" smooth="yes"/>
      <point x="96" y="-142"/>
      <point x="86" y="-164"/>
    </contour>
  </outline>
</glyph>
<glyph name="uni0288" format="2">
  <advance width="300"/>
  <unicode hex="0288"/>
  <anchor x="166" y="-240" name="bottom"/>
  <anchor x="166" y="681" name="top"/>
  <outline>
    <contour>
      <point x="201" y="-240" type="curve" smooth="yes"/>
      <point x="224" y="-240"/>
      <point x="264" y="-233"/>
      <point x="294" y="-219" type="curve"/>
      <point x="294" y="-115" type="line"/>
      <point x="261" y="-128"/>
      <point x="236" y="-133"/>
      <point x="231" y="-133" type="curve" smooth="yes"/>
      <point x="224" y="-133"/>
      <point x="200" y="-113"/>
      <point x="200" y="-42" type="curve" smooth="yes"/>
      <point x="200" y="441" type="line"/>
      <point x="299" y="441" type="line"/>
      <point x="299" y="544" type="line"/>
      <point x="202" y="544" type="line"/>
      <point x="202" y="681" type="line"/>
      <point x="130" y="681" type="line"/>
      <point x="92" y="546" type="line"/>
      <point x="15" y="504" type="line"/>
      <point x="15" y="441" type="line"/>
      <point x="84" y="441" type="line"/>
      <point x="84" y="-64" type="line" smooth="yes"/>
      <point x="84" y="-190"/>
      <point x="145" y="-240"/>
    </contour>
  </outline>
</glyph>
<glyph name="uni0289" format="2">
  <advance width="300"/>
  <unicode hex="0289"/>
  <anchor x="149" y="0" name="bottom"/>
  <anchor x="149" y="545" name="top"/>
  <anchor x="272" y="10" name="ogonek"/>
  <anchor x="289" y="545" name="topright"/>
  <outline>
    <contour>
      <point x="9" y="246" type="line"/>
      <point x="290" y="246" type="line"/>
      <point x="290" y="335" type="line"/>
      <point x="9" y="335" type="line"/>
    </contour>
    <component base="u" xOffset="10"/>
  </outline>
</glyph>
<glyph name="uni0290" format="2">
  <advance width="300"/>
  <unicode hex="0290"/>
  <anchor x="155" y="-240" name="bottom"/>
  <anchor x="150" y="545" name="top"/>
  <anchor x="289" y="545" name="topright"/>
  <outline>
    <contour>
      <point x="272" y="-240" type="curve" smooth="yes"/>
      <point x="292" y="-240"/>
      <point x="316" y="-234"/>
      <point x="327" y="-226" type="curve"/>
      <point x="327" y="-144" type="line"/>
      <point x="322" y="-148"/>
      <point x="311" y="-152"/>
      <point x="303" y="-152" type="curve" smooth="yes"/>
      <point x="290" y="-152"/>
      <point x="280" y="-139"/>
      <point x="280" y="-85" type="curve" smooth="yes"/>
      <point x="280" y="104" type="line"/>
      <point x="184" y="0" type="line"/>
      <point x="184" y="-100" type="line" smooth="yes"/>
      <point x="184" y="-203"/>
      <point x="218" y="-240"/>
    </contour>
    <component base="z" xOffset="10"/>
  </outline>
</glyph>
<glyph name="uni0291" format="2">
  <advance width="300"/>
  <unicode hex="0291"/>
  <anchor x="101" y="-101" name="bottom"/>
  <anchor x="116" y="545" name="top"/>
  <outline>
    <contour>
      <point x="167" y="-80" type="line"/>
      <point x="172" y="-54"/>
      <point x="178" y="-26"/>
      <point x="182" y="0" type="curve"/>
      <point x="196" y="0" type="line" smooth="yes"/>
      <point x="234" y="0"/>
      <point x="289" y="40"/>
      <point x="289" y="130" type="curve" smooth="yes"/>
      <point x="289" y="200"/>
      <point x="260" y="238"/>
      <point x="222" y="238" type="curve" smooth="yes"/>
      <point x="190" y="238"/>
      <point x="173" y="200"/>
      <point x="151" y="102" type="curve"/>
      <point x="141" y="102" type="line"/>
      <point x="212" y="462" type="line"/>
      <point x="212" y="545" type="line"/>
      <point x="4" y="545" type="line"/>
      <point x="4" y="443" type="line"/>
      <point x="82" y="443" type="line"/>
      <point x="4" y="77" type="line"/>
      <point x="4" y="0" type="line"/>
      <point x="114" y="0" type="line"/>
      <point x="111" y="-20"/>
      <point x="107" y="-40"/>
      <point x="103" y="-60" type="curve"/>
    </contour>
    <contour>
      <point x="217" y="102" type="line"/>
      <point x="223" y="156"/>
      <point x="219" y="174"/>
      <point x="211" y="174" type="curve" smooth="yes"/>
      <point x="209" y="174"/>
      <point x="211" y="159"/>
      <point x="211" y="139" type="curve" smooth="yes"/>
      <point x="211" y="117"/>
      <point x="211" y="102"/>
      <point x="211" y="102" type="curve" smooth="yes"/>
    </contour>
  </outline>
</glyph>
<glyph name="uni0294" format="2">
  <advance width="300"/>
  <unicode hex="0294"/>
  <anchor x="130" y="0" name="bottom"/>
  <anchor x="130" y="765" name="top"/>
  <outline>
    <contour>
      <point x="66" y="0" type="line"/>
      <point x="186" y="0" type="line"/>
      <point x="186" y="295" type="line"/>
      <point x="251" y="372"/>
      <point x="259" y="454"/>
      <point x="259" y="561" type="curve" smooth="yes"/>
      <point x="259" y="690"/>
      <point x="207" y="765"/>
      <point x="123" y="765" type="curve" smooth="yes"/>
      <point x="67" y="765"/>
      <point x="37" y="736"/>
      <point x="10" y="704" type="curve"/>
      <point x="52" y="609" type="line"/>
      <point x="68" y="633"/>
      <point x="89" y="656"/>
      <point x="110" y="656" type="curve" smooth="yes"/>
      <point x="130" y="656"/>
      <point x="138" y="615"/>
      <point x="138" y="549" type="curve" smooth="yes"/>
      <point x="138" y="471"/>
      <point x="127" y="412"/>
      <point x="66" y="340" type="curve"/>
    </contour>
  </outline>
</glyph>
<glyph name="cstretched" format="2">
  <advance width="300"/>
  <unicode hex="0297"/>
  <anchor x="171" y="-240" name="bottom"/>
  <anchor x="166" y="545" name="top"/>
  <outline>
    <contour>
      <point x="176" y="-240" type="curve" smooth="yes"/>
      <point x="213" y="-240"/>
      <point x="231" y="-227"/>
      <point x="250" y="-210" type="curve"/>
      <point x="250" y="-102" type="line"/>
      <point x="236" y="-118"/>
      <point x="221" y="-132"/>
      <point x="193" y="-132" type="curve" smooth="yes"/>
      <point x="150" y="-132"/>
      <point x="141" y="-59"/>
      <point x="141" y="154" type="curve" smooth="yes"/>
      <point x="141" y="364"/>
      <point x="145" y="447"/>
      <point x="191" y="447" type="curve" smooth="yes"/>
      <point x="210" y="447"/>
      <point x="222" y="437"/>
      <point x="231" y="423" type="curve"/>
      <point x="264" y="526" type="line"/>
      <point x="247" y="541"/>
      <point x="223" y="555"/>
      <point x="185" y="555" type="curve" smooth="yes"/>
      <point x="86" y="555"/>
      <point x="27" y="444"/>
      <point x="27" y="154" type="curve" smooth="yes"/>
      <point x="27" y="-122"/>
      <point x="71" y="-240"/>
    </contour>
  </outline>
</glyph>
<glyph name="dzlig" format="2">
  <advance width="300"/>
  <unicode hex="02A3"/>
  <anchor x="150" y="0" name="bottom"/>
  <anchor x="150" y="760" name="top"/>
  <outline>
    <contour>
      <point x="77" y="-10" type="curve" smooth="yes"/>
      <point x="92" y="-10"/>
      <point x="101" y="11"/>
      <point x="108" y="41" type="curve"/>
      <point x="111" y="41" type="line"/>
      <point x="120" y="0" type="line"/>
      <point x="284" y="0" type="line"/>
      <point x="284" y="73" type="line"/>
      <point x="248" y="73" type="line"/>
      <point x="281" y="476" type="line"/>
      <point x="281" y="540" type="line"/>
      <point x="178" y="540" type="line"/>
      <point x="178" y="760" type="line"/>
      <point x="108" y="760" type="line"/>
      <point x="108" y="564" type="line" smooth="yes"/>
      <point x="108" y="543"/>
      <point x="108" y="521"/>
      <point x="110" y="505" type="curve"/>
      <point x="108" y="505" type="line"/>
      <point x="103" y="532"/>
      <point x="99" y="550"/>
      <point x="81" y="550" type="curve" smooth="yes"/>
      <point x="46" y="550"/>
      <point x="19" y="485"/>
      <point x="19" y="270" type="curve" smooth="yes"/>
      <point x="19" y="49"/>
      <point x="40" y="-10"/>
    </contour>
    <contour>
      <point x="101" y="66" type="curve" smooth="yes"/>
      <point x="94" y="66"/>
      <point x="91" y="97"/>
      <point x="91" y="269" type="curve" smooth="yes"/>
      <point x="91" y="438"/>
      <point x="95" y="475"/>
      <point x="101" y="475" type="curve" smooth="yes"/>
      <point x="106" y="475"/>
      <point x="109" y="440"/>
      <point x="109" y="274" type="curve" smooth="yes"/>
      <point x="109" y="255" type="line" smooth="yes"/>
      <point x="109" y="100"/>
      <point x="103" y="66"/>
    </contour>
    <contour>
      <point x="178" y="70" type="line"/>
      <point x="178" y="468" type="line"/>
      <point x="209" y="468" type="line"/>
    </contour>
  </outline>
</glyph>
<glyph name="uni02A4" format="2">
  <advance width="300"/>
  <unicode hex="02A4"/>
  <anchor x="149" y="-240" name="bottom"/>
  <anchor x="149" y="761" name="top"/>
  <outline>
    <contour>
      <point x="187" y="-240" type="curve" smooth="yes"/>
      <point x="248" y="-240"/>
      <point x="281" y="-138"/>
      <point x="281" y="6" type="curve" smooth="yes"/>
      <point x="281" y="153"/>
      <point x="265" y="216"/>
      <point x="242" y="227" type="curve"/>
      <point x="274" y="482" type="line"/>
      <point x="274" y="541" type="line"/>
      <point x="164" y="541" type="line"/>
      <point x="164" y="761" type="line"/>
      <point x="93" y="761" type="line"/>
      <point x="93" y="558" type="line" smooth="yes"/>
      <point x="93" y="537"/>
      <point x="93" y="521"/>
      <point x="95" y="500" type="curve"/>
      <point x="93" y="500" type="line"/>
      <point x="86" y="534"/>
      <point x="80" y="549"/>
      <point x="68" y="549" type="curve" smooth="yes"/>
      <point x="30" y="549"/>
      <point x="19" y="474"/>
      <point x="19" y="269" type="curve" smooth="yes"/>
      <point x="19" y="61"/>
      <point x="34" y="-10"/>
      <point x="67" y="-10" type="curve" smooth="yes"/>
      <point x="85" y="-10"/>
      <point x="92" y="12"/>
      <point x="97" y="51" type="curve"/>
      <point x="100" y="51" type="line"/>
      <point x="110" y="0" type="line"/>
      <point x="164" y="0" type="line"/>
      <point x="164" y="470" type="line"/>
      <point x="198" y="470" type="line"/>
      <point x="173" y="224" type="line"/>
      <point x="173" y="162" type="line"/>
      <point x="183" y="162" type="line" smooth="yes"/>
      <point x="200" y="162"/>
      <point x="210" y="111"/>
      <point x="210" y="7" type="curve" smooth="yes"/>
      <point x="210" y="-101"/>
      <point x="200" y="-164"/>
      <point x="179" y="-164" type="curve" smooth="yes"/>
      <point x="166" y="-164"/>
      <point x="162" y="-157"/>
      <point x="158" y="-148" type="curve"/>
      <point x="158" y="-226" type="line"/>
      <point x="162" y="-234"/>
      <point x="173" y="-240"/>
    </contour>
    <contour>
      <point x="94" y="63" type="curve" smooth="yes"/>
      <point x="91" y="63"/>
      <point x="89" y="113"/>
      <point x="89" y="268" type="curve" smooth="yes"/>
      <point x="89" y="426"/>
      <point x="88" y="476"/>
      <point x="91" y="476" type="curve" smooth="yes"/>
      <point x="101" y="476"/>
      <point x="99" y="435"/>
      <point x="99" y="276" type="curve" smooth="yes"/>
      <point x="99" y="246" type="line" smooth="yes"/>
      <point x="99" y="104"/>
      <point x="100" y="63"/>
    </contour>
  </outline>
</glyph>
<glyph name="dzligcurl" format="2">
  <advance width="300"/>
  <unicode hex="02A5"/>
  <anchor x="132" y="0" name="bottom"/>
  <anchor x="132" y="760" name="top"/>
  <outline>
    <contour>
      <point x="287" y="-88" type="line"/>
      <point x="293" y="-57"/>
      <point x="301" y="-27"/>
      <point x="308" y="0" type="curve"/>
      <point x="332" y="0" type="line" smooth="yes"/>
      <point x="391" y="0"/>
      <point x="441" y="45"/>
      <point x="441" y="135" type="curve" smooth="yes"/>
      <point x="441" y="203"/>
      <point x="408" y="245"/>
      <point x="363" y="245" type="curve" smooth="yes"/>
      <point x="323" y="245"/>
      <point x="298" y="204"/>
      <point x="269" y="102" type="curve"/>
      <point x="273" y="102" type="line"/>
      <point x="358" y="458" type="line"/>
      <point x="358" y="545" type="line"/>
      <point x="133" y="545" type="line"/>
      <point x="133" y="760" type="line"/>
      <point x="17" y="760" type="line"/>
      <point x="17" y="570" type="line" smooth="yes"/>
      <point x="17" y="540"/>
      <point x="22" y="498"/>
      <point x="24" y="476" type="curve"/>
      <point x="17" y="476" type="line"/>
      <point x="-4" y="527"/>
      <point x="-24" y="555"/>
      <point x="-43" y="555" type="curve" smooth="yes"/>
      <point x="-100" y="555"/>
      <point x="-141" y="451"/>
      <point x="-141" y="271" type="curve" smooth="yes"/>
      <point x="-141" y="96"/>
      <point x="-100" y="-10"/>
      <point x="-40" y="-10" type="curve" smooth="yes"/>
      <point x="-21" y="-10"/>
      <point x="1" y="22"/>
      <point x="19" y="73" type="curve"/>
      <point x="25" y="73" type="line"/>
      <point x="36" y="0" type="line"/>
      <point x="230" y="0" type="line"/>
      <point x="226" y="-20"/>
      <point x="222" y="-40"/>
      <point x="217" y="-62" type="curve"/>
    </contour>
    <contour>
      <point x="-6" y="96" type="curve" smooth="yes"/>
      <point x="-16" y="96"/>
      <point x="-21" y="157"/>
      <point x="-21" y="271" type="curve" smooth="yes"/>
      <point x="-21" y="382"/>
      <point x="-22" y="449"/>
      <point x="-7" y="449" type="curve" smooth="yes"/>
      <point x="17" y="449"/>
      <point x="18" y="393"/>
      <point x="18" y="271" type="curve" smooth="yes"/>
      <point x="18" y="255" type="line" smooth="yes"/>
      <point x="18" y="144"/>
      <point x="6" y="96"/>
    </contour>
    <contour>
      <point x="345" y="102" type="line"/>
      <point x="354" y="156"/>
      <point x="354" y="175"/>
      <point x="350" y="175" type="curve" smooth="yes"/>
      <point x="350" y="175"/>
      <point x="354" y="160"/>
      <point x="354" y="140" type="curve" smooth="yes"/>
      <point x="354" y="117"/>
      <point x="351" y="102"/>
      <point x="347" y="102" type="curve" smooth="yes"/>
    </contour>
    <contour>
      <point x="133" y="84" type="line"/>
      <point x="133" y="443" type="line"/>
      <point x="224" y="443" type="line"/>
    </contour>
  </outline>
</glyph>
<glyph name="tslig" format="2">
  <advance width="300"/>
  <unicode hex="02A6"/>
  <anchor x="150" y="0" name="bottom"/>
  <anchor x="150" y="661" name="top"/>
  <outline>
    <contour>
      <point x="132" y="-1" type="curve" smooth="yes"/>
      <point x="174" y="-1" type="line" smooth="yes"/>
      <point x="245" y="-1"/>
      <point x="287" y="61"/>
      <point x="287" y="160" type="curve" smooth="yes"/>
      <point x="287" y="241"/>
      <point x="270" y="275"/>
      <point x="241" y="315" type="curve" smooth="yes"/>
      <point x="215" y="351"/>
      <point x="210" y="369"/>
      <point x="210" y="408" type="curve" smooth="yes"/>
      <point x="210" y="446"/>
      <point x="217" y="468"/>
      <point x="231" y="468" type="curve" smooth="yes"/>
      <point x="244" y="468"/>
      <point x="255" y="459"/>
      <point x="266" y="448" type="curve"/>
      <point x="282" y="527" type="line"/>
      <point x="268" y="540"/>
      <point x="248" y="550"/>
      <point x="223" y="550" type="curve" smooth="yes"/>
      <point x="206" y="550"/>
      <point x="194" y="545"/>
      <point x="181" y="539" type="curve"/>
      <point x="119" y="539" type="line"/>
      <point x="119" y="661" type="line"/>
      <point x="67" y="661" type="line"/>
      <point x="40" y="546" type="line"/>
      <point x="10" y="509" type="line"/>
      <point x="10" y="462" type="line"/>
      <point x="33" y="462" type="line"/>
      <point x="33" y="167" type="line" smooth="yes"/>
      <point x="33" y="38"/>
      <point x="68" y="-1"/>
    </contour>
    <contour>
      <point x="154" y="81" type="line" smooth="yes"/>
      <point x="133" y="81"/>
      <point x="119" y="109"/>
      <point x="119" y="169" type="curve" smooth="yes"/>
      <point x="119" y="462" type="line"/>
      <point x="127" y="462" type="line"/>
      <point x="127" y="445"/>
      <point x="127" y="422"/>
      <point x="127" y="398" type="curve" smooth="yes"/>
      <point x="127" y="323"/>
      <point x="145" y="290"/>
      <point x="169" y="250" type="curve" smooth="yes"/>
      <point x="190" y="214"/>
      <point x="200" y="194"/>
      <point x="200" y="149" type="curve" smooth="yes"/>
      <point x="200" y="101"/>
      <point x="187" y="81"/>
      <point x="167" y="81" type="curve" smooth="yes"/>
    </contour>
  </outline>
</glyph>
<glyph name="uni02A9" format="2">
  <advance width="300"/>
  <unicode hex="02A9"/>
  <anchor x="151" y="-240" name="bottom"/>
  <anchor x="151" y="766" name="top"/>
  <outline>
    <contour>
      <point x="209" y="-240" type="curve" smooth="yes"/>
      <point x="262" y="-240"/>
      <point x="278" y="-189"/>
      <point x="278" y="-106" type="curve" smooth="yes"/>
      <point x="278" y="414" type="line" smooth="yes"/>
      <point x="278" y="516"/>
      <point x="255" y="549"/>
      <point x="225" y="549" type="curve" smooth="yes"/>
      <point x="203" y="549"/>
      <point x="188" y="525"/>
      <point x="180" y="491" type="curve"/>
      <point x="175" y="491" type="line"/>
      <point x="169" y="539" type="line"/>
      <point x="94" y="539" type="line"/>
      <point x="94" y="629" type="line" smooth="yes"/>
      <point x="94" y="673"/>
      <point x="102" y="693"/>
      <point x="110" y="693" type="curve" smooth="yes"/>
      <point x="117" y="693"/>
      <point x="121" y="689"/>
      <point x="127" y="682" type="curve"/>
      <point x="146" y="751" type="line"/>
      <point x="137" y="760"/>
      <point x="125" y="766"/>
      <point x="101" y="766" type="curve" smooth="yes"/>
      <point x="52" y="766"/>
      <point x="19" y="720"/>
      <point x="19" y="632" type="curve" smooth="yes"/>
      <point x="19" y="542" type="line"/>
      <point x="7" y="518" type="line"/>
      <point x="7" y="469" type="line"/>
      <point x="19" y="469" type="line"/>
      <point x="19" y="0" type="line"/>
      <point x="94" y="0" type="line"/>
      <point x="94" y="469" type="line"/>
      <point x="113" y="469" type="line"/>
      <point x="113" y="0" type="line"/>
      <point x="188" y="0" type="line"/>
      <point x="188" y="353" type="line" smooth="yes"/>
      <point x="188" y="423"/>
      <point x="187" y="473"/>
      <point x="195" y="473" type="curve" smooth="yes"/>
      <point x="202" y="473"/>
      <point x="203" y="455"/>
      <point x="203" y="403" type="curve" smooth="yes"/>
      <point x="203" y="-104" type="line" smooth="yes"/>
      <point x="203" y="-153"/>
      <point x="195" y="-167"/>
      <point x="191" y="-167" type="curve" smooth="yes"/>
      <point x="185" y="-167"/>
      <point x="181" y="-164"/>
      <point x="177" y="-159" type="curve"/>
      <point x="177" y="-231" type="line"/>
      <point x="184" y="-236"/>
      <point x="195" y="-240"/>
    </contour>
  </outline>
</glyph>
<glyph name="uni02AC" format="2">
  <advance width="300"/>
  <unicode hex="02AC"/>
  <anchor x="150" y="0" name="bottom"/>
  <anchor x="150" y="714" name="top"/>
  <outline>
    <contour>
      <point x="46" y="379" type="line"/>
      <point x="137" y="379" type="line"/>
      <point x="149" y="614" type="line"/>
      <point x="158" y="379" type="line"/>
      <point x="248" y="379" type="line"/>
      <point x="287" y="714" type="line"/>
      <point x="211" y="714" type="line"/>
      <point x="199" y="469" type="line"/>
      <point x="190" y="714" type="line"/>
      <point x="106" y="714" type="line"/>
      <point x="98" y="469" type="line"/>
      <point x="88" y="715" type="line"/>
      <point x="13" y="715" type="line"/>
    </contour>
    <contour>
      <point x="46" y="0" type="line"/>
      <point x="137" y="0" type="line"/>
      <point x="149" y="235" type="line"/>
      <point x="158" y="0" type="line"/>
      <point x="248" y="0" type="line"/>
      <point x="287" y="335" type="line"/>
      <point x="211" y="335" type="line"/>
      <point x="199" y="90" type="line"/>
      <point x="190" y="335" type="line"/>
      <point x="106" y="335" type="line"/>
      <point x="98" y="90" type="line"/>
      <point x="88" y="336" type="line"/>
      <point x="13" y="336" type="line"/>
    </contour>
  </outline>
</glyph>
<glyph name="uni02AD" format="2">
  <advance width="300"/>
  <unicode hex="02AD"/>
  <anchor x="150" y="0" name="bottom"/>
  <anchor x="150" y="714" name="top"/>
  <outline>
    <contour>
      <point x="34" y="470" type="line"/>
      <point x="131" y="470" type="line"/>
      <point x="131" y="617" type="line"/>
      <point x="183" y="617" type="line"/>
      <point x="183" y="470" type="line"/>
      <point x="280" y="470" type="line"/>
      <point x="280" y="714" type="line"/>
      <point x="34" y="714" type="line"/>
    </contour>
    <contour>
      <point x="34" y="0" type="line"/>
      <point x="131" y="0" type="line"/>
      <point x="131" y="149" type="line"/>
      <point x="183" y="149" type="line"/>
      <point x="183" y="0" type="line"/>
      <point x="280" y="0" type="line"/>
      <point x="280" y="245" type="line"/>
      <point x="34" y="245" type="line"/>
    </contour>
  </outline>
</glyph>
<glyph name="uni02AF" format="2">
  <advance width="300"/>
  <unicode hex="02AF"/>
  <anchor x="146" y="-240" name="bottom"/>
  <anchor x="146" y="545" name="top"/>
  <outline>
    <contour>
      <point x="252" y="-240" type="curve" smooth="yes"/>
      <point x="283" y="-240"/>
      <point x="304" y="-231"/>
      <point x="325" y="-219" type="curve"/>
      <point x="325" y="-120" type="line"/>
      <point x="317" y="-127"/>
      <point x="302" y="-134"/>
      <point x="290" y="-134" type="curve" smooth="yes"/>
      <point x="283" y="-134"/>
      <point x="283" y="-117"/>
      <point x="283" y="-77" type="curve" smooth="yes"/>
      <point x="283" y="545" type="line"/>
      <point x="167" y="545" type="line"/>
      <point x="167" y="266" type="line" smooth="yes"/>
      <point x="167" y="160"/>
      <point x="175" y="99"/>
      <point x="149" y="99" type="curve" smooth="yes"/>
      <point x="123" y="99"/>
      <point x="130" y="144"/>
      <point x="130" y="224" type="curve" smooth="yes"/>
      <point x="130" y="397" type="line" smooth="yes"/>
      <point x="130" y="505"/>
      <point x="90" y="555"/>
      <point x="13" y="555" type="curve" smooth="yes"/>
      <point x="-3" y="555"/>
      <point x="-24" y="550"/>
      <point x="-34" y="545" type="curve"/>
      <point x="-34" y="442" type="line"/>
      <point x="-28" y="446"/>
      <point x="-19" y="449"/>
      <point x="-11" y="449" type="curve" smooth="yes"/>
      <point x="8" y="449"/>
      <point x="14" y="431"/>
      <point x="14" y="385" type="curve" smooth="yes"/>
      <point x="14" y="190" type="line" smooth="yes"/>
      <point x="14" y="57"/>
      <point x="54" y="-11"/>
      <point x="108" y="-11" type="curve" smooth="yes"/>
      <point x="131" y="-11"/>
      <point x="152" y="22"/>
      <point x="169" y="71" type="curve"/>
      <point x="175" y="71" type="line"/>
      <point x="170" y="38"/>
      <point x="167" y="3"/>
      <point x="167" y="-32" type="curve" smooth="yes"/>
      <point x="167" y="-97" type="line" smooth="yes"/>
      <point x="167" y="-193"/>
      <point x="190" y="-240"/>
    </contour>
  </outline>
</glyph>
<glyph name="uni02BE" format="2">
  <advance width="300"/>
  <unicode hex="02BE"/>
  <outline>
    <contour>
      <point x="111" y="575" type="line"/>
      <point x="152" y="575"/>
      <point x="190" y="619"/>
      <point x="190" y="691" type="curve"/>
      <point x="190" y="762"/>
      <point x="152" y="806"/>
      <point x="111" y="806" type="curve"/>
      <point x="111" y="737" type="line"/>
      <point x="111" y="737"/>
      <point x="119" y="719"/>
      <point x="119" y="691" type="curve"/>
      <point x="119" y="662"/>
      <point x="111" y="644"/>
      <point x="111" y="644" type="curve"/>
    </contour>
  </outline>
</glyph>
<glyph name="uni02C0" format="2">
  <advance width="300"/>
  <unicode hex="02C0"/>
  <outline>
    <contour>
      <point x="96" y="496" type="line"/>
      <point x="178" y="496" type="line"/>
      <point x="178" y="538" type="line"/>
      <point x="215" y="560"/>
      <point x="227" y="592"/>
      <point x="227" y="651" type="curve" smooth="yes"/>
      <point x="227" y="719"/>
      <point x="200" y="766"/>
      <point x="141" y="766" type="curve" smooth="yes"/>
      <point x="112" y="766"/>
      <point x="90" y="755"/>
      <point x="73" y="738" type="curve"/>
      <point x="97" y="669" type="line"/>
      <point x="106" y="684"/>
      <point x="114" y="691"/>
      <point x="120" y="691" type="curve" smooth="yes"/>
      <point x="126" y="691"/>
      <point x="130" y="670"/>
      <point x="130" y="647" type="curve" smooth="yes"/>
      <point x="130" y="612"/>
      <point x="120" y="597"/>
      <point x="96" y="585" type="curve"/>
    </contour>
  </outline>
</glyph>
<glyph name="uni02C4" format="2">
  <advance width="300"/>
  <unicode hex="02C4"/>
  <outline>
    <contour>
      <point x="71" y="543" type="line"/>
      <point x="120" y="543" type="line"/>
      <point x="153" y="712" type="line"/>
      <point x="180" y="543" type="line"/>
      <point x="229" y="543" type="line"/>
      <point x="168" y="784" type="line"/>
      <point x="143" y="784" type="line"/>
    </contour>
  </outline>
</glyph>
<glyph name="circumflex" format="2">
  <advance width="300"/>
  <unicode hex="02C6"/>
  <outline>
    <contour>
      <point x="50" y="606" type="line"/>
      <point x="115" y="606" type="line"/>
      <point x="122" y="626"/>
      <point x="131" y="658"/>
      <point x="150" y="692" type="curve"/>
      <point x="167" y="658"/>
      <point x="176" y="629"/>
      <point x="186" y="606" type="curve"/>
      <point x="250" y="606" type="line"/>
      <point x="250" y="618" type="line"/>
      <point x="225" y="665"/>
      <point x="213" y="722"/>
      <point x="202" y="766" type="curve"/>
      <point x="98" y="766" type="line"/>
      <point x="91" y="726"/>
      <point x="70" y="661"/>
      <point x="50" y="618" type="curve"/>
    </contour>
  </outline>
</glyph>
<glyph name="uni02D7" format="2">
  <advance width="300"/>
  <unicode hex="02D7"/>
  <outline>
    <contour>
      <point x="90" y="348" type="line"/>
      <point x="90" y="294" type="line"/>
      <point x="211" y="294" type="line"/>
      <point x="211" y="348" type="line"/>
    </contour>
  </outline>
</glyph>
